<svg width="22" height="28" viewBox="0 0 22 28" fill="none" xmlns="http://www.w3.org/2000/svg">
<path fill-rule="evenodd" clip-rule="evenodd" d="M10.9996 1.75C9.87247 1.75 8.79147 2.19777 7.99444 2.9948C7.19741 3.79183 6.74964 4.87283 6.74964 6C6.74964 7.12717 7.19741 8.20817 7.99444 9.0052C8.79147 9.80223 9.87247 10.25 10.9996 10.25C12.1268 10.25 13.2078 9.80223 14.0048 9.0052C14.8019 8.20817 15.2496 7.12717 15.2496 6C15.2496 4.87283 14.8019 3.79183 14.0048 2.9948C13.2078 2.19777 12.1268 1.75 10.9996 1.75ZM6.93378 1.93414C8.01211 0.855802 9.47465 0.25 10.9996 0.25C12.5246 0.25 13.9872 0.855802 15.0655 1.93414C16.1438 3.01247 16.7496 4.475 16.7496 6C16.7496 7.525 16.1438 8.98753 15.0655 10.0659C13.9872 11.1442 12.5246 11.75 10.9996 11.75C9.47465 11.75 8.01211 11.1442 6.93378 10.0659C5.85545 8.98753 5.24964 7.52499 5.24964 6C5.24964 4.47501 5.85545 3.01247 6.93378 1.93414ZM10.9996 15.7373C8.57255 15.7373 6.2427 16.6912 4.51253 18.3934C2.89912 19.9806 1.92774 22.0999 1.77185 24.3466C4.59992 25.5712 7.71982 26.25 10.9996 26.25L11.0007 26.25C14.176 26.2543 17.3164 25.6057 20.2274 24.3464C20.0715 22.0998 19.1001 19.9806 17.4868 18.3934C15.7566 16.6912 13.4267 15.7373 10.9996 15.7373ZM3.46056 17.3241C5.4713 15.3459 8.17897 14.2373 10.9996 14.2373C13.8203 14.2373 16.528 15.3459 18.5387 17.3241C20.5495 19.3022 21.7022 21.9915 21.7482 24.8118C21.7531 25.1094 21.5815 25.3817 21.3109 25.5057C18.0757 26.9892 14.5577 27.7548 10.9986 27.75C7.32088 27.7499 3.82801 26.947 0.688085 25.5056C0.417679 25.3815 0.246219 25.1092 0.251077 24.8118C0.297137 21.9915 1.44983 19.3022 3.46056 17.3241Z" fill="black"/>
</svg>
