<svg width="36" height="23" viewBox="0 0 36 23" fill="none" xmlns="http://www.w3.org/2000/svg">
<path fill-rule="evenodd" clip-rule="evenodd" d="M24.0951 1.26379C24.2435 0.877086 24.6773 0.683927 25.064 0.83236L35.36 4.78436C35.7467 4.93279 35.9399 5.36657 35.7915 5.75327L31.8395 16.051C31.691 16.4377 31.2572 16.6309 30.8705 16.4825C30.4838 16.3341 30.2906 15.9003 30.439 15.5136L33.7423 6.90614L30.6459 8.28485C26.4433 10.1482 23.0126 13.4048 20.9332 17.5047C20.8245 17.7191 20.6196 17.8683 20.3823 17.9061C20.1449 17.944 19.9039 17.8657 19.7339 17.6958L12.8005 10.7607L1.63092 21.9303C1.33802 22.2232 0.863149 22.2232 0.570256 21.9303C0.277363 21.6375 0.277363 21.1626 0.570256 20.8697L12.2703 9.16969C12.4109 9.02902 12.6017 8.95001 12.8006 8.95002C12.9996 8.95003 13.1903 9.02907 13.331 9.16975L20.0816 15.9219C22.3469 11.9397 25.8329 8.77809 30.0375 6.91376C30.0377 6.9137 30.0374 6.91381 30.0375 6.91376L33.1321 5.5359L24.5265 2.23274C24.1398 2.08431 23.9466 1.6505 24.0951 1.26379Z" fill="white"/>
</svg>
