<svg width="35" height="33" viewBox="0 0 35 33" fill="none" xmlns="http://www.w3.org/2000/svg">
<path fill-rule="evenodd" clip-rule="evenodd" d="M6.18734 0.375L28.8108 0.375C29.6889 0.375774 30.5314 0.725146 31.1519 1.34632C31.1521 1.34644 31.1518 1.3462 31.1519 1.34632L33.1847 3.37732C33.8221 4.01449 34.3045 4.78988 34.5944 5.64331C34.8842 6.49673 34.9739 7.40541 34.8563 8.29901C34.7387 9.19261 34.4171 10.0472 33.9164 10.7966C33.4979 11.423 32.9636 11.9618 32.3437 12.385V31.125H33.9683C34.3825 31.125 34.7183 31.4608 34.7183 31.875C34.7183 32.2892 34.3825 32.625 33.9683 32.625H1.03159C0.617381 32.625 0.281595 32.2892 0.281595 31.875C0.281595 31.4608 0.617381 31.125 1.03159 31.125H2.65618V12.3825C2.03719 11.9586 1.50383 11.4194 1.08607 10.793C0.586362 10.0437 0.265394 9.18966 0.147913 8.29673C0.0304317 7.40379 0.119574 6.49581 0.408469 5.64277C0.697363 4.78973 1.17829 4.01443 1.81418 3.37663L3.84585 1.34667C3.84595 1.34657 3.84575 1.34676 3.84585 1.34667C4.46644 0.725457 5.30925 0.375773 6.18734 0.375ZM4.15618 13.1224V31.125H19.3124V19.0625C19.3124 18.5238 19.5264 18.0071 19.9074 17.6262C20.2883 17.2453 20.805 17.0312 21.3437 17.0312H26.4687C27.0074 17.0312 27.5241 17.2453 27.905 17.6262C28.2859 18.0071 28.4999 18.5238 28.4999 19.0625V31.125H30.8437V13.1192C29.9585 13.4061 29.012 13.4805 28.0822 13.3283C27.0057 13.152 26.0049 12.6806 25.1875 11.9737C24.1578 12.8653 22.8141 13.4061 21.3444 13.4062M13.6562 13.4062C12.8227 13.4072 11.9986 13.2304 11.2388 12.8876C10.7204 12.6538 10.2401 12.3463 9.81218 11.9759C8.99507 12.6828 7.99449 13.1544 6.91816 13.3309C5.98822 13.4834 5.04152 13.4092 4.15618 13.1224M31.2572 11.2992C31.2443 11.3057 31.2315 11.3126 31.2189 11.3199C30.344 11.8246 29.3214 12.0112 28.3246 11.848C27.3278 11.6848 26.4181 11.1818 25.7498 10.4244C25.6075 10.2631 25.4027 10.1706 25.1875 10.1706C24.9724 10.1706 24.7676 10.2629 24.6252 10.4242C23.8217 11.3343 22.65 11.9062 21.3437 11.9062C20.7231 11.9068 20.1088 11.775 19.5432 11.5196C18.9776 11.2642 18.4729 10.8911 18.063 10.4252C17.9208 10.2635 17.7159 10.1708 17.5006 10.1706C17.2852 10.1704 17.0802 10.2628 16.9377 10.4242C16.1342 11.3343 14.9625 11.9062 13.6562 11.9062C13.0357 11.907 12.4212 11.7755 11.8556 11.5203C11.29 11.2652 10.7854 10.8923 10.3753 10.4266C10.233 10.265 10.028 10.1724 9.81267 10.1723C9.59731 10.1722 9.39231 10.2647 9.24988 10.4263C8.58181 11.1839 7.67222 11.6872 6.6754 11.8507C5.69849 12.0109 4.69674 11.8351 3.83343 11.353C3.81695 11.3417 3.79989 11.3308 3.78226 11.3206C3.20176 10.9842 2.70627 10.5189 2.334 9.96071C1.96173 9.40251 1.72262 8.76628 1.6351 8.10106C1.54758 7.43585 1.61398 6.75942 1.8292 6.12392C2.04436 5.4886 2.40251 4.91117 2.87603 4.4361C2.8759 4.43623 2.87616 4.43597 2.87603 4.4361L4.90662 2.40722C5.24613 2.06729 5.70726 1.8755 6.1877 1.875H28.8105C29.2909 1.8755 29.7515 2.06673 30.091 2.40667L32.1243 4.43833C32.5991 4.91282 32.9582 5.49016 33.1741 6.12569C33.3899 6.76122 33.4567 7.43789 33.3691 8.10334C33.2816 8.76879 33.0421 9.40517 32.6692 9.96324C32.3046 10.509 31.8219 10.9655 31.2572 11.2992ZM26.9999 31.125V19.0625C26.9999 18.9216 26.944 18.7865 26.8443 18.6869C26.7447 18.5872 26.6096 18.5312 26.4687 18.5312H21.3437C21.2028 18.5312 21.0677 18.5872 20.968 18.6869C20.8684 18.7865 20.8124 18.9216 20.8124 19.0625V31.125H26.9999ZM7.09487 17.6262C7.4758 17.2453 7.99246 17.0312 8.53118 17.0312H14.9374C15.4761 17.0312 15.9928 17.2453 16.3737 17.6262C16.7547 18.0071 16.9687 18.5238 16.9687 19.0625V25.467C16.9687 26.0058 16.7547 26.5224 16.3737 26.9034C15.9928 27.2843 15.4762 27.4983 14.9374 27.4983H8.53118C7.41167 27.4983 6.49993 26.5939 6.49993 25.4688V19.0625C6.49993 18.5238 6.71393 18.0071 7.09487 17.6262ZM8.53118 18.5312C8.39028 18.5312 8.25516 18.5872 8.15553 18.6869C8.0559 18.7865 7.99993 18.9216 7.99993 19.0625V25.4688C7.99993 25.7615 8.23618 25.9983 8.53118 25.9983H14.9374C15.0783 25.9983 15.2134 25.9423 15.3131 25.8427C15.4127 25.7431 15.4687 25.6079 15.4687 25.467V19.0625C15.4687 18.9216 15.4127 18.7865 15.3131 18.6869C15.2134 18.5872 15.0783 18.5312 14.9374 18.5312H8.53118Z" fill="white"/>
</svg>
