<svg width="31" height="35" viewBox="0 0 31 35" fill="none" xmlns="http://www.w3.org/2000/svg">
<path fill-rule="evenodd" clip-rule="evenodd" d="M5.19903 2.23702C7.87414 0.899465 11.5172 0.09375 15.5 0.09375C19.4828 0.09375 23.1259 0.899465 25.801 2.23702C28.4312 3.55213 30.3438 5.50768 30.3438 7.89062V27.1094C30.3438 29.4923 28.4312 31.4479 25.801 32.763C23.1259 34.1005 19.4828 34.9062 15.5 34.9062C11.5172 34.9062 7.87414 34.1005 5.19903 32.763C2.56881 31.4479 0.65625 29.4923 0.65625 27.1094V7.89062C0.65625 5.50768 2.56881 3.55213 5.19903 2.23702ZM2.15625 11.3598V14.2969C2.15625 15.8055 3.39898 17.3734 5.86985 18.6088C8.29581 19.8218 11.6996 20.5938 15.5 20.5938C19.3004 20.5938 22.7042 19.8218 25.1302 18.6088C27.601 17.3734 28.8438 15.8055 28.8438 14.2969V11.3598C28.0555 12.2082 27.0032 12.9431 25.801 13.5442C23.1259 14.8818 19.4828 15.6875 15.5 15.6875C11.5172 15.6875 7.87414 14.8818 5.19903 13.5442C3.99679 12.9431 2.9445 12.2082 2.15625 11.3598ZM28.8438 17.7661C28.0555 18.6144 27.0032 19.3494 25.801 19.9505C23.1259 21.288 19.4828 22.0938 15.5 22.0938C11.5172 22.0938 7.87414 21.288 5.19903 19.9505C3.99679 19.3494 2.9445 18.6144 2.15625 17.7661V20.7031C2.15625 22.2118 3.39898 23.7797 5.86985 25.0151C8.29581 26.2281 11.6996 27 15.5 27C19.3004 27 22.7042 26.2281 25.1302 25.0151C27.601 23.7797 28.8438 22.2118 28.8438 20.7031V17.7661ZM28.8438 24.1723C28.0555 25.0207 27.0032 25.7556 25.801 26.3567C23.1259 27.6943 19.4828 28.5 15.5 28.5C11.5172 28.5 7.87414 27.6943 5.19903 26.3567C3.99679 25.7556 2.9445 25.0207 2.15625 24.1723V27.1094C2.15625 28.618 3.39898 30.1859 5.86985 31.4213C8.29581 32.6343 11.6996 33.4062 15.5 33.4062C19.3004 33.4062 22.7042 32.6343 25.1302 31.4213C27.601 30.1859 28.8438 28.618 28.8438 27.1094V24.1723ZM5.86985 3.57866C3.39898 4.8141 2.15625 6.38199 2.15625 7.89062C2.15625 9.39926 3.39898 10.9672 5.86985 12.2026C8.29581 13.4156 11.6996 14.1875 15.5 14.1875C19.3004 14.1875 22.7042 13.4156 25.1302 12.2026C27.601 10.9672 28.8438 9.39926 28.8438 7.89062C28.8438 6.38199 27.601 4.8141 25.1302 3.57866C22.7042 2.36568 19.3004 1.59375 15.5 1.59375C11.6996 1.59375 8.29581 2.36568 5.86985 3.57866Z" fill="white"/>
</svg>
