<svg width="34" height="34" viewBox="0 0 34 34" fill="none" xmlns="http://www.w3.org/2000/svg">
<path fill-rule="evenodd" clip-rule="evenodd" d="M17.0004 2.15002C13.0619 2.15002 9.28477 3.71457 6.49985 6.49949C3.71494 9.2844 2.15039 13.0616 2.15039 17C2.15039 18.9502 2.5345 20.8812 3.28078 22.6829C4.02706 24.4846 5.1209 26.1216 6.49985 27.5006C7.8788 28.8795 9.51586 29.9734 11.3175 30.7196C13.1192 31.4659 15.0503 31.85 17.0004 31.85C18.9505 31.85 20.8816 31.4659 22.6832 30.7196C24.4849 29.9734 26.122 28.8795 27.5009 27.5006C28.8799 26.1216 29.9737 24.4846 30.72 22.6829C31.4663 20.8812 31.8504 18.9502 31.8504 17C31.8504 13.0616 30.2858 9.2844 27.5009 6.49949C24.716 3.71457 20.9389 2.15002 17.0004 2.15002ZM5.43919 5.43883C8.50541 2.37261 12.6641 0.650024 17.0004 0.650024C21.3367 0.650024 25.4954 2.37261 28.5616 5.43883C31.6278 8.50505 33.3504 12.6637 33.3504 17C33.3504 19.1471 32.9275 21.2732 32.1058 23.2569C31.2842 25.2406 30.0798 27.043 28.5616 28.5612C27.0433 30.0795 25.2409 31.2838 23.2573 32.1055C21.2736 32.9271 19.1475 33.35 17.0004 33.35C14.8533 33.35 12.7272 32.9271 10.7435 32.1055C8.75984 31.2838 6.95743 30.0795 5.43919 28.5612C3.92096 27.043 2.71662 25.2406 1.89496 23.2569C1.0733 21.2732 0.650391 19.1471 0.650391 17C0.650391 12.6637 2.37297 8.50505 5.43919 5.43883ZM17.0004 5.85002C17.4146 5.85002 17.7504 6.18581 17.7504 6.60002V16.25H24.8004C25.2146 16.25 25.5504 16.5858 25.5504 17C25.5504 17.4142 25.2146 17.75 24.8004 17.75H17.0004C16.5862 17.75 16.2504 17.4142 16.2504 17V6.60002C16.2504 6.18581 16.5862 5.85002 17.0004 5.85002Z" fill="white"/>
</svg>
