<svg width="26" height="26" viewBox="0 0 26 26" fill="none" xmlns="http://www.w3.org/2000/svg">
<path fill-rule="evenodd" clip-rule="evenodd" d="M12.5841 0.375962C12.836 0.208013 13.1642 0.208013 13.4161 0.375962L25.4161 8.37596C25.7608 8.60573 25.8539 9.07138 25.6241 9.41603C25.3944 9.76067 24.9287 9.8538 24.5841 9.62404L13.0001 1.90139L1.4161 9.62404C1.07146 9.8538 0.605806 9.76067 0.376042 9.41603C0.146278 9.07138 0.239408 8.60573 0.584055 8.37596L12.5841 0.375962ZM12.2501 6C12.2501 5.58579 12.5859 5.25 13.0001 5.25H13.0107C13.425 5.25 13.7607 5.58579 13.7607 6V6.01067C13.7607 6.42488 13.425 6.76067 13.0107 6.76067H13.0001C12.5859 6.76067 12.2501 6.42488 12.2501 6.01067V6ZM13.0001 9.25C16.3874 9.24863 19.7696 9.5111 23.1161 10.035C23.4811 10.0922 23.7501 10.4066 23.7501 10.776V24.25H25.0001C25.4143 24.25 25.7501 24.5858 25.7501 25C25.7501 25.4142 25.4143 25.75 25.0001 25.75H1.00008C0.585866 25.75 0.25008 25.4142 0.25008 25C0.25008 24.5858 0.585866 24.25 1.00008 24.25H2.25008V10.776C2.25008 10.4065 2.5192 10.0921 2.88426 10.035C6.18067 9.51976 9.55959 9.25002 13.0001 9.25ZM3.75008 24.25H7.25008V14C7.25008 13.5858 7.58587 13.25 8.00008 13.25C8.41429 13.25 8.75008 13.5858 8.75008 14V24.25H12.2501V14C12.2501 13.5858 12.5859 13.25 13.0001 13.25C13.4143 13.25 13.7501 13.5858 13.7501 14V24.25H17.2501V14C17.2501 13.5858 17.5859 13.25 18.0001 13.25C18.4143 13.25 18.7501 13.5858 18.7501 14V24.25H22.2501V11.421C19.1875 10.973 16.0961 10.7487 13.0004 10.75C9.85862 10.75 6.76963 10.9802 3.75008 11.4211V24.25Z" fill="black"/>
</svg>
