<svg width="34" height="32" viewBox="0 0 34 32" fill="none" xmlns="http://www.w3.org/2000/svg">
<path fill-rule="evenodd" clip-rule="evenodd" d="M2.01234 2.3119C2.88439 1.43986 4.06713 0.949951 5.30039 0.949951H28.7004C29.9336 0.949951 31.1164 1.43986 31.9884 2.3119C32.8605 3.18395 33.3504 4.36669 33.3504 5.59995V26.4C33.3504 27.6332 32.8605 28.816 31.9884 29.688C31.1164 30.56 29.9336 31.0499 28.7004 31.0499H5.30039C4.06713 31.0499 2.88439 30.56 2.01234 29.688C1.1403 28.816 0.650391 27.6332 0.650391 26.4V5.59995C0.650391 4.36669 1.1403 3.18395 2.01234 2.3119ZM2.15039 7.37942V5.59995C2.15039 4.76452 2.48226 3.9633 3.073 3.37257C3.66374 2.78183 4.46496 2.44995 5.30039 2.44995H28.7004C29.5358 2.44995 30.337 2.78183 30.9278 3.37257C31.5185 3.9633 31.8504 4.76452 31.8504 5.59995V7.37942C30.9937 6.5904 29.8697 6.14995 28.7004 6.14995H5.30039C4.13105 6.14995 3.00711 6.5904 2.15039 7.37942ZM31.8504 10.8C31.8504 9.96452 31.5185 9.1633 30.9278 8.57256C30.337 7.98182 29.5358 7.64995 28.7004 7.64995H5.30039C4.46496 7.64995 3.66374 7.98183 3.073 8.57256C2.48226 9.1633 2.15039 9.96452 2.15039 10.8V12.5794C3.00711 11.7904 4.13105 11.35 5.30039 11.35H11.8004C12.2146 11.35 12.5504 11.6857 12.5504 12.1C12.5504 13.2802 13.0192 14.412 13.8538 15.2466C14.6883 16.0811 15.8202 16.55 17.0004 16.55C18.1806 16.55 19.3125 16.0811 20.147 15.2466C20.9816 14.412 21.4504 13.2802 21.4504 12.1C21.4504 11.6857 21.7862 11.35 22.2004 11.35H28.7004C29.8697 11.35 30.9937 11.7904 31.8504 12.5794V10.8ZM31.8504 16C31.8504 15.1645 31.5185 14.3633 30.9278 13.7726C30.337 13.1818 29.5358 12.85 28.7004 12.85H22.903C22.7376 14.1514 22.1453 15.3697 21.2077 16.3072C20.0918 17.4231 18.5784 18.0499 17.0004 18.0499C15.4224 18.0499 13.9089 17.4231 12.7931 16.3072C11.8555 15.3697 11.2632 14.1514 11.0978 12.85H5.30039C4.46496 12.85 3.66374 13.1818 3.073 13.7726C2.48226 14.3633 2.15039 15.1645 2.15039 16V26.4C2.15039 27.2354 2.48226 28.0366 3.073 28.6273C3.66374 29.2181 4.46496 29.5499 5.30039 29.5499H28.7004C29.5358 29.5499 30.337 29.2181 30.9278 28.6273C31.5185 28.0366 31.8504 27.2354 31.8504 26.4V16Z" fill="white"/>
</svg>
