<svg width="20" height="18" viewBox="0 0 20 18" fill="none" xmlns="http://www.w3.org/2000/svg">
<path fill-rule="evenodd" clip-rule="evenodd" d="M1.12868 0.87868C1.69129 0.316071 2.45435 0 3.25 0H16.75C17.5457 0 18.3087 0.316071 18.8713 0.87868C19.4339 1.44129 19.75 2.20435 19.75 3V15C19.75 15.7956 19.4339 16.5587 18.8713 17.1213C18.3087 17.6839 17.5457 18 16.75 18H3.25C2.45435 18 1.69129 17.6839 1.12868 17.1213C0.566071 16.5587 0.25 15.7956 0.25 15V3C0.25 2.20435 0.566071 1.44129 1.12868 0.87868ZM1.75 3.40192V3C1.75 2.60218 1.90804 2.22064 2.18934 1.93934C2.47064 1.65804 2.85218 1.5 3.25 1.5H16.75C17.1478 1.5 17.5294 1.65804 17.8107 1.93934C18.092 2.22064 18.25 2.60218 18.25 3V3.40191C17.7978 3.14087 17.2812 3 16.75 3H3.25C2.71883 3 2.20218 3.14087 1.75 3.40192ZM18.25 6C18.25 5.60218 18.092 5.22064 17.8107 4.93934C17.5294 4.65804 17.1478 4.5 16.75 4.5H3.25C2.85218 4.5 2.47064 4.65804 2.18934 4.93934C1.90804 5.22064 1.75 5.60218 1.75 6V6.40192C2.20218 6.14087 2.71883 6 3.25 6H7C7.41421 6 7.75 6.33579 7.75 6.75C7.75 7.34674 7.98705 7.91903 8.40901 8.34099C8.83097 8.76295 9.40326 9 10 9C10.5967 9 11.169 8.76295 11.591 8.34099C12.0129 7.91903 12.25 7.34674 12.25 6.75C12.25 6.33579 12.5858 6 13 6H16.75C17.2812 6 17.7978 6.14087 18.25 6.40192V6ZM18.25 9C18.25 8.60218 18.092 8.22064 17.8107 7.93934C17.5294 7.65804 17.1478 7.5 16.75 7.5H13.6742C13.5283 8.21508 13.1754 8.87786 12.6517 9.40165C11.9484 10.1049 10.9946 10.5 10 10.5C9.00544 10.5 8.05161 10.1049 7.34835 9.40165C6.82456 8.87786 6.47173 8.21508 6.32575 7.5H3.25C2.85218 7.5 2.47064 7.65804 2.18934 7.93934C1.90804 8.22064 1.75 8.60218 1.75 9V15C1.75 15.3978 1.90804 15.7794 2.18934 16.0607C2.47064 16.342 2.85218 16.5 3.25 16.5H16.75C17.1478 16.5 17.5294 16.342 17.8107 16.0607C18.092 15.7794 18.25 15.3978 18.25 15V9Z" fill="white"/>
</svg>
