<svg width="33" height="33" viewBox="0 0 33 33" fill="none" xmlns="http://www.w3.org/2000/svg">
<path fill-rule="evenodd" clip-rule="evenodd" d="M11.1122 1.2979C13.732 0.36861 16.5478 0.132241 19.2864 0.612178C22.0426 1.09519 24.6256 2.2871 26.7816 4.07075C28.9376 5.85439 30.5923 8.16837 31.5831 10.7852C32.574 13.4021 32.8668 16.2317 32.4328 18.996C31.9913 21.8083 30.8132 24.4536 29.0181 26.663C27.2231 28.8724 24.8751 30.5673 22.2128 31.5753C19.5506 32.5834 16.6689 32.8686 13.8606 32.4022C11.0524 31.9357 8.41769 30.7341 6.22429 28.9195C4.03088 27.1049 2.35695 24.742 1.3726 22.0708C0.38826 19.3997 0.128593 16.5156 0.619991 13.7116C1.11139 10.9077 2.33634 8.28373 4.17035 6.10652C5.99343 3.94229 8.35375 2.29615 11.014 1.3331C11.0457 1.31915 11.0785 1.30737 11.1122 1.2979ZM9.86495 3.46331C8.12872 4.3477 6.58092 5.57314 5.31756 7.07291C3.65416 9.04758 2.54316 11.4274 2.09747 13.9706C1.65179 16.5137 1.8873 19.1295 2.78008 21.5522C3.67285 23.9748 5.19107 26.1179 7.18044 27.7637C9.16981 29.4095 11.5594 30.4994 14.1064 30.9224C16.6534 31.3455 19.2671 31.0868 21.6817 30.1725C24.0963 29.2583 26.2258 27.7211 27.8539 25.7172C29.4025 23.8111 30.4448 21.5475 30.8875 19.136L29.2226 17.4711C28.8739 17.1217 28.5832 16.718 28.3627 16.2764L26.5444 12.6398C26.2789 12.8911 25.9537 13.0713 25.5992 13.163C25.2258 13.2595 24.8334 13.2545 24.4626 13.1484L22.2912 12.5292C22.2909 12.5291 22.2905 12.529 22.2901 12.5289C22.1142 12.4797 21.9264 12.4947 21.7604 12.5711C21.5941 12.6478 21.4604 12.7812 21.3835 12.9474C21.3066 13.1136 21.2915 13.3018 21.3407 13.4781C21.3898 13.6539 21.4997 13.8065 21.6508 13.9088C21.6513 13.9092 21.6519 13.9095 21.6524 13.9099L22.6535 14.575C24.052 15.5113 24.2541 17.4937 23.0604 18.6874L22.7188 19.0291C22.4974 19.2505 22.3747 19.5483 22.3747 19.8586V20.559C22.3747 21.3921 22.1506 22.209 21.7211 22.9232M21.7211 22.9232L19.4748 26.6659C19.0879 27.311 18.5404 27.8452 17.8859 28.2158C17.2313 28.5866 16.4918 28.7813 15.7395 28.7812M31.1091 17.2363C31.2112 15.2256 30.8972 13.2096 30.1803 11.3164C29.2817 8.94295 27.7809 6.84423 25.8254 5.2265C23.87 3.60878 21.5273 2.52774 19.0275 2.08966C16.6605 1.67484 14.2298 1.85002 11.95 2.59686C11.8394 2.98495 11.678 3.35743 11.4694 3.70444C11.4693 3.70462 11.4695 3.70426 11.4694 3.70444L9.05906 7.72392L9.05767 7.72623C8.95126 7.90225 8.91309 8.11118 8.95039 8.31346C8.98769 8.51573 9.09787 8.69731 9.26007 8.8238C9.42227 8.95029 9.62522 9.0129 9.83049 8.99979C10.0358 8.98668 10.2291 8.89875 10.3739 8.75265L10.3778 8.74874C10.8153 8.31374 11.4112 8.0625 12.0375 8.0625H12.345C12.7513 8.0625 13.1536 7.98248 13.529 7.82701C13.9043 7.67154 14.2454 7.44366 14.5326 7.15638L14.6881 7.00092C14.9163 6.77277 15.2648 6.7161 15.5534 6.86023L16.6895 7.42739C17.2465 7.70631 17.6893 8.17148 17.94 8.74175C18.1906 9.31186 18.2341 9.95158 18.0632 10.5504M18.0632 10.5504L17.7078 11.7975C17.5239 12.4431 17.1036 12.9959 16.5306 13.3457C15.9577 13.6956 15.274 13.8169 14.6156 13.6856L12.6029 13.2824C12.6028 13.2823 12.603 13.2824 12.6029 13.2824C11.9775 13.1574 11.3285 13.2287 10.7452 13.4866C10.1619 13.7445 9.67263 14.1764 9.34426 14.7231C9.34421 14.7232 9.34431 14.723 9.34426 14.7231L9.19051 14.9794C8.99094 15.3119 8.85563 15.6791 8.79172 16.0616L8.77981 16.133C8.66338 16.8292 8.78843 17.5446 9.13432 18.1599C9.48007 18.7749 10.0256 19.2532 10.6805 19.5156C10.6808 19.5157 10.6802 19.5155 10.6805 19.5156L11.8004 19.9618C13.5438 20.66 14.6872 22.3484 14.6872 24.2268V26.229C14.6872 26.508 14.798 26.7757 14.9954 26.973C15.1927 27.1704 15.4604 27.2812 15.7395 27.2812C16.2327 27.2813 16.7176 27.1536 17.1467 26.9106C17.5758 26.6676 17.9347 26.3175 18.1883 25.8945L20.4349 22.1513C20.7226 21.6732 20.8747 21.1231 20.8747 20.559V19.8586C20.8747 19.1507 21.1552 18.4713 21.6581 17.9684L21.9998 17.6268C22.521 17.1055 22.4364 16.2356 21.8199 15.8221C21.8196 15.8219 21.8193 15.8217 21.819 15.8215L20.8184 15.1567L20.8145 15.1541C20.3669 14.8526 20.0412 14.4015 19.896 13.8817C19.7508 13.3619 19.7956 12.8073 20.0222 12.3175C20.2488 11.8277 20.6426 11.4346 21.1328 11.2088C21.623 10.9829 22.1776 10.9391 22.6972 11.0852L22.6999 11.086L24.8746 11.7061C24.9882 11.7386 25.1092 11.7403 25.2236 11.7107C25.338 11.6812 25.4424 11.6215 25.526 11.538C25.6892 11.3746 25.8882 11.253 26.1078 11.1819C26.3274 11.1109 26.5608 11.093 26.7887 11.1297C27.0166 11.1665 27.2325 11.2569 27.4186 11.3935C27.6047 11.53 27.7557 11.7089 27.8592 11.9152L29.7045 15.606C29.8531 15.9035 30.0488 16.1755 30.2837 16.4109L31.1091 17.2363M9.86495 3.46331L7.77402 6.95019C7.77376 6.95062 7.7735 6.95105 7.77324 6.95148C7.4775 7.44139 7.37148 8.02268 7.47526 8.58548C7.57914 9.14877 7.88597 9.65441 8.33765 10.0066C8.78933 10.3589 9.35449 10.5333 9.92611 10.4967C10.4966 10.4603 11.0339 10.2164 11.4369 9.81098C11.5971 9.65238 11.8138 9.5625 12.0375 9.5625H12.345C12.9483 9.56251 13.5456 9.44369 14.103 9.21284C14.5602 9.02343 14.9832 8.76166 15.356 8.43818L16.0187 8.76904C16.0185 8.76898 16.0188 8.7691 16.0187 8.76904C16.2628 8.89139 16.4569 9.09533 16.5668 9.34533C16.6767 9.59546 16.6958 9.87613 16.6207 10.1388L16.2653 11.3864C16.1846 11.6696 16.0002 11.9121 15.7489 12.0655C15.4978 12.2188 15.1982 12.2721 14.9096 12.2147L12.8972 11.8115C11.9685 11.6259 11.0048 11.7317 10.1386 12.1148C9.27238 12.4978 8.54575 13.1392 8.05816 13.9511L7.90431 14.2076C7.90432 14.2075 7.9043 14.2076 7.90431 14.2076C7.60801 14.7013 7.40713 15.2464 7.31223 15.8143L7.30029 15.886C7.12753 16.9195 7.31325 17.9815 7.82679 18.895C8.34039 19.8085 9.15093 20.519 10.1239 20.9085L11.2428 21.3543C11.2426 21.3543 11.2429 21.3544 11.2428 21.3543C12.417 21.8248 13.1872 22.9621 13.1872 24.2268V26.229C13.1872 26.9059 13.4561 27.5551 13.9347 28.0337C14.4133 28.5123 15.0626 28.7812 15.7395 28.7812" fill="white"/>
</svg>
