<svg width="320" height="48" viewBox="0 0 320 48" fill="none" xmlns="http://www.w3.org/2000/svg">
<path fill-rule="evenodd" clip-rule="evenodd" d="M0 24C0 10.7452 10.7452 0 24 0H236C244.32 0 251.652 4.23394 255.957 10.6648C258.283 14.1383 261.82 17 266 17V17C270.18 17 273.717 14.1383 276.043 10.6648C280.348 4.23393 287.68 0 296 0C309.255 0 320 10.7452 320 24C320 37.2548 309.255 48 296 48C288.175 48 281.225 44.2553 276.844 38.4603C274.182 34.9391 270.414 32 266 32V32C261.586 32 257.818 34.9392 255.156 38.4603C250.775 44.2554 243.825 48 236 48H24C10.7452 48 0 37.2548 0 24Z" fill="white"/>
<path d="M291.833 28.1668L300.166 19.8335M300.166 19.8335H291.833M300.166 19.8335V28.1668" stroke="#0B0C0D" stroke-linecap="round" stroke-linejoin="round"/>
<path d="M95.688 28.816H99.592V30H94.232V18.848H95.688V28.816ZM109.298 25.28C109.298 25.5573 109.282 25.8507 109.25 26.16H102.242C102.296 27.024 102.589 27.7013 103.122 28.192C103.666 28.672 104.322 28.912 105.09 28.912C105.72 28.912 106.242 28.768 106.658 28.48C107.085 28.1813 107.384 27.7867 107.554 27.296H109.122C108.888 28.1387 108.418 28.8267 107.714 29.36C107.01 29.8827 106.136 30.144 105.09 30.144C104.258 30.144 103.512 29.9573 102.85 29.584C102.2 29.2107 101.688 28.6827 101.314 28C100.941 27.3067 100.754 26.5067 100.754 25.6C100.754 24.6933 100.936 23.8987 101.298 23.216C101.661 22.5333 102.168 22.0107 102.818 21.648C103.48 21.2747 104.237 21.088 105.09 21.088C105.922 21.088 106.658 21.2693 107.298 21.632C107.938 21.9947 108.429 22.496 108.77 23.136C109.122 23.7653 109.298 24.48 109.298 25.28ZM107.794 24.976C107.794 24.4213 107.672 23.9467 107.426 23.552C107.181 23.1467 106.845 22.8427 106.418 22.64C106.002 22.4267 105.538 22.32 105.026 22.32C104.29 22.32 103.661 22.5547 103.138 23.024C102.626 23.4933 102.333 24.144 102.258 24.976H107.794ZM113.156 22.432V27.6C113.156 28.0267 113.247 28.3307 113.428 28.512C113.609 28.6827 113.924 28.768 114.372 28.768H115.444V30H114.132C113.321 30 112.713 29.8133 112.308 29.44C111.903 29.0667 111.7 28.4533 111.7 27.6V22.432H110.564V21.232H111.7V19.024H113.156V21.232H115.444V22.432H113.156ZM117.592 18.848H119.208L117.672 22.48H116.648L117.592 18.848ZM124.132 30.144C123.46 30.144 122.858 30.032 122.324 29.808C121.791 29.5733 121.37 29.2533 121.06 28.848C120.751 28.432 120.58 27.9573 120.548 27.424H122.052C122.095 27.8613 122.298 28.2187 122.66 28.496C123.034 28.7733 123.519 28.912 124.116 28.912C124.671 28.912 125.108 28.7893 125.428 28.544C125.748 28.2987 125.908 27.9893 125.908 27.616C125.908 27.232 125.738 26.9493 125.396 26.768C125.055 26.576 124.527 26.3893 123.812 26.208C123.162 26.0373 122.628 25.8667 122.212 25.696C121.807 25.5147 121.455 25.2533 121.156 24.912C120.868 24.56 120.724 24.1013 120.724 23.536C120.724 23.088 120.858 22.6773 121.124 22.304C121.391 21.9307 121.77 21.6373 122.26 21.424C122.751 21.2 123.311 21.088 123.94 21.088C124.911 21.088 125.695 21.3333 126.292 21.824C126.89 22.3147 127.21 22.9867 127.252 23.84H125.796C125.764 23.3813 125.578 23.0133 125.236 22.736C124.906 22.4587 124.458 22.32 123.892 22.32C123.37 22.32 122.954 22.432 122.644 22.656C122.335 22.88 122.18 23.1733 122.18 23.536C122.18 23.824 122.271 24.064 122.452 24.256C122.644 24.4373 122.879 24.5867 123.156 24.704C123.444 24.8107 123.839 24.9333 124.34 25.072C124.97 25.2427 125.482 25.4133 125.876 25.584C126.271 25.744 126.607 25.9893 126.884 26.32C127.172 26.6507 127.322 27.0827 127.332 27.616C127.332 28.096 127.199 28.528 126.932 28.912C126.666 29.296 126.287 29.6 125.796 29.824C125.316 30.0373 124.762 30.144 124.132 30.144ZM135.749 22.432V27.6C135.749 28.0267 135.84 28.3307 136.021 28.512C136.203 28.6827 136.517 28.768 136.965 28.768H138.037V30H136.725C135.915 30 135.307 29.8133 134.901 29.44C134.496 29.0667 134.293 28.4533 134.293 27.6V22.432H133.157V21.232H134.293V19.024H135.749V21.232H138.037V22.432H135.749ZM139.417 25.584C139.417 24.688 139.599 23.904 139.961 23.232C140.324 22.5493 140.82 22.0213 141.449 21.648C142.089 21.2747 142.799 21.088 143.577 21.088C144.345 21.088 145.012 21.2533 145.577 21.584C146.143 21.9147 146.564 22.3307 146.841 22.832V21.232H148.313V30H146.841V28.368C146.553 28.88 146.121 29.3067 145.545 29.648C144.98 29.9787 144.319 30.144 143.561 30.144C142.783 30.144 142.079 29.952 141.449 29.568C140.82 29.184 140.324 28.6453 139.961 27.952C139.599 27.2587 139.417 26.4693 139.417 25.584ZM146.841 25.6C146.841 24.9387 146.708 24.3627 146.441 23.872C146.175 23.3813 145.812 23.008 145.353 22.752C144.905 22.4853 144.409 22.352 143.865 22.352C143.321 22.352 142.825 22.48 142.377 22.736C141.929 22.992 141.572 23.3653 141.305 23.856C141.039 24.3467 140.905 24.9227 140.905 25.584C140.905 26.256 141.039 26.8427 141.305 27.344C141.572 27.8347 141.929 28.2133 142.377 28.48C142.825 28.736 143.321 28.864 143.865 28.864C144.409 28.864 144.905 28.736 145.353 28.48C145.812 28.2133 146.175 27.8347 146.441 27.344C146.708 26.8427 146.841 26.2613 146.841 25.6ZM152.39 18.16V30H150.934V18.16H152.39ZM159.927 30L156.487 26.128V30H155.031V18.16H156.487V25.12L159.863 21.232H161.895L157.767 25.6L161.911 30H159.927ZM165.314 18.848L165.138 26.848H163.922L163.746 18.848H165.314ZM164.594 30.096C164.316 30.096 164.082 30 163.89 29.808C163.698 29.616 163.602 29.3813 163.602 29.104C163.602 28.8267 163.698 28.592 163.89 28.4C164.082 28.208 164.316 28.112 164.594 28.112C164.86 28.112 165.084 28.208 165.266 28.4C165.458 28.592 165.554 28.8267 165.554 29.104C165.554 29.3813 165.458 29.616 165.266 29.808C165.084 30 164.86 30.096 164.594 30.096Z" fill="#131313"/>
</svg>
