<svg width="171" height="185" viewBox="0 0 171 185" fill="none" xmlns="http://www.w3.org/2000/svg">
<g clip-path="url(#clip0_225_1851)" filter="url(#filter0_f_225_1851)">
<path d="M153.353 67.4697L89.4643 164.77C86.7101 168.964 81.0678 170.134 76.8733 167.379L20.8021 130.562C16.6075 127.808 15.438 122.166 18.1923 117.971L82.0812 20.6711C84.8355 16.4765 90.4777 15.307 94.6723 18.0613L150.708 54.8551C154.938 57.6329 156.108 63.2751 153.353 67.4697Z" fill="black"/>
<path d="M83.4415 155.735C83.2767 155.986 83.0637 156.154 82.8385 156.263C82.6132 156.372 82.3398 156.397 82.1135 156.351C81.8871 156.305 81.5891 156.212 81.3023 156.024C81.0155 155.836 80.8239 155.659 80.6794 155.41C80.5349 155.161 80.4622 154.959 80.4723 154.709C80.4825 154.459 80.552 154.197 80.7168 153.946C80.9051 153.659 81.1416 153.456 81.4262 153.335C81.6873 153.25 81.9966 153.247 82.2947 153.341L82.1545 153.71C81.9517 153.628 81.7018 153.618 81.5001 153.691C81.2984 153.764 81.109 153.896 80.9677 154.111C80.85 154.29 80.7682 154.493 80.8051 154.671C80.7827 154.862 80.879 155.028 80.9753 155.194C81.0716 155.359 81.2273 155.513 81.4424 155.654C81.6576 155.795 81.8604 155.877 82.0508 155.9C82.2413 155.922 82.4553 155.909 82.5977 155.848C82.7635 155.752 82.9294 155.656 83.0471 155.476C83.1883 155.261 83.2343 155.035 83.221 154.821C83.2076 154.607 83.1112 154.441 82.9432 154.228L83.2268 153.953C83.4307 154.189 83.5516 154.474 83.5773 154.747C83.7229 155.151 83.6298 155.449 83.4415 155.735Z" fill="white"/>
<path d="M84.6643 153.716L82.648 151.161L82.9305 150.731L86.0767 151.565L85.8649 151.888L82.9214 151.135L82.992 151.028L84.8762 153.394L84.6643 153.716ZM84.3373 152.886L84.0505 152.698L84.9215 151.371L85.2083 151.56L84.3373 152.886Z" fill="white"/>
<path d="M86.7829 150.49L84.2017 148.795L84.8608 147.791C84.8843 147.755 84.9079 147.719 84.9079 147.719C84.9079 147.719 84.955 147.648 84.9785 147.612C85.1085 147.492 85.215 147.408 85.3573 147.347C85.4996 147.287 85.6543 147.286 85.7854 147.321C85.9165 147.355 86.0834 147.414 86.191 147.484C86.4061 147.626 86.5259 147.756 86.6346 147.981C86.7073 148.183 86.7207 148.397 86.6153 148.635L86.5806 148.766L86.0627 149.555L87.0307 150.191L86.8188 150.513L86.7829 150.49ZM85.74 149.343L86.1873 148.662C86.2108 148.626 86.2108 148.626 86.2344 148.59C86.2579 148.555 86.2815 148.519 86.2815 148.519C86.2927 148.423 86.3039 148.328 86.3151 148.233C86.3028 148.174 86.2547 148.091 86.2065 148.008C86.1583 147.925 86.0866 147.878 86.0149 147.831C85.9432 147.784 85.8715 147.736 85.7763 147.725C85.6811 147.714 85.5858 147.703 85.5264 147.715C85.467 147.727 85.3841 147.776 85.2776 147.86C85.2541 147.895 85.2305 147.931 85.2305 147.931L85.1835 148.003L84.7362 148.684L85.74 149.343ZM87.7952 148.948L86.4259 148.767L86.5302 148.374L88.0541 148.554L87.7952 148.948Z" fill="white"/>
<path d="M88.7605 147.478L86.1792 145.783L86.6971 144.995C86.7206 144.959 86.7442 144.923 86.7913 144.851C86.8383 144.78 86.8854 144.708 86.909 144.672C87.086 144.48 87.2519 144.384 87.4536 144.311C87.6553 144.239 87.9052 144.249 88.108 144.331C88.3344 144.377 88.573 144.482 88.7881 144.623C89.0032 144.764 89.1948 144.942 89.327 145.131C89.4591 145.32 89.5319 145.522 89.6047 145.724C89.6775 145.926 89.5956 146.128 89.4902 146.367C89.4432 146.439 89.4196 146.475 89.3725 146.546C89.3255 146.618 89.3019 146.654 89.2784 146.69L88.7605 147.478ZM88.6855 146.967L88.9916 146.501C89.0151 146.465 89.0622 146.394 89.0857 146.358C89.1328 146.286 89.1563 146.25 89.1799 146.215C89.2382 146.048 89.273 145.916 89.236 145.738C89.1991 145.56 89.1151 145.454 88.9952 145.324C88.8754 145.194 88.7555 145.064 88.6121 144.969C88.4328 144.852 88.2659 144.793 88.099 144.735C87.932 144.677 87.7774 144.678 87.6227 144.679C87.4681 144.68 87.3381 144.8 87.2316 144.884C87.2081 144.92 87.161 144.991 87.1375 145.027C87.1139 145.063 87.0668 145.135 87.0433 145.171L86.7373 145.637L88.6855 146.967Z" fill="white"/>
<path d="M90.8318 144.323L88.2505 142.628L88.4624 142.306L89.6096 143.059L90.5041 141.697L89.3569 140.943L89.5688 140.621L92.15 142.316L91.9382 142.638L90.7909 141.885L89.8964 143.247L91.0436 144.001L90.8318 144.323Z" fill="white"/>
<path d="M93.7056 140.104C93.5408 140.355 93.3279 140.523 93.1026 140.632C92.8774 140.741 92.604 140.766 92.3776 140.72C92.1513 140.674 91.8533 140.581 91.5664 140.393C91.2796 140.205 91.0881 140.027 90.9436 139.779C90.7991 139.53 90.7263 139.328 90.7365 139.078C90.7466 138.828 90.8162 138.566 90.9809 138.315C91.1457 138.064 91.3587 137.896 91.5839 137.788C91.8092 137.679 92.0826 137.653 92.3089 137.699C92.5353 137.745 92.8333 137.838 93.1201 138.027C93.4069 138.215 93.5985 138.392 93.743 138.641C93.8875 138.89 93.9602 139.091 93.9501 139.341C93.9635 139.555 93.894 139.817 93.7056 140.104ZM93.383 139.892C93.5007 139.713 93.5825 139.51 93.5456 139.332C93.5087 139.154 93.4717 138.976 93.3754 138.81C93.2791 138.644 93.1234 138.491 92.9083 138.349C92.6931 138.208 92.4904 138.126 92.2999 138.104C92.1094 138.081 91.9189 138.059 91.753 138.155C91.5872 138.251 91.4213 138.348 91.3036 138.527C91.1859 138.706 91.104 138.909 91.141 139.087C91.1185 139.278 91.2148 139.444 91.3112 139.61C91.4075 139.775 91.5632 139.929 91.7783 140.07C91.9934 140.211 92.1962 140.293 92.3867 140.316C92.5772 140.338 92.7677 140.361 92.9335 140.264C93.0994 140.168 93.2653 140.072 93.383 139.892Z" fill="white"/>
<path d="M95.1638 137.727L92.5825 136.032L92.7944 135.709L95.0889 137.216L95.8657 136.033L96.1525 136.221L95.1638 137.727Z" fill="white"/>
<path d="M96.8347 135.181L94.2534 133.487L94.7713 132.698C94.7949 132.662 94.8184 132.626 94.8655 132.554C94.9126 132.483 94.9596 132.411 94.9832 132.375C95.1603 132.184 95.3261 132.087 95.5279 132.015C95.7296 131.942 95.9794 131.952 96.1822 132.034C96.4086 132.08 96.6472 132.185 96.8623 132.326C97.0774 132.468 97.269 132.645 97.4012 132.834C97.5334 133.024 97.6061 133.225 97.6789 133.427C97.7517 133.629 97.6699 133.831 97.5645 134.07C97.5174 134.142 97.4938 134.178 97.4468 134.249C97.3997 134.321 97.3761 134.357 97.3526 134.393L96.8347 135.181ZM96.7598 134.671L97.0658 134.204C97.0893 134.169 97.1364 134.097 97.1599 134.061C97.207 133.989 97.2306 133.953 97.2541 133.918C97.3124 133.751 97.3472 133.62 97.3103 133.441C97.2733 133.263 97.1893 133.157 97.0694 133.027C96.9496 132.897 96.8297 132.767 96.6863 132.673C96.5071 132.555 96.3401 132.497 96.1732 132.438C96.0062 132.38 95.8516 132.381 95.697 132.382C95.5423 132.383 95.4123 132.503 95.3058 132.587C95.2823 132.623 95.2352 132.695 95.2117 132.73C95.1881 132.766 95.1411 132.838 95.1175 132.874L94.8115 133.34L96.7598 134.671Z" fill="white"/>
<path d="M98.9065 132.026L96.3252 130.332L97.3845 128.718L97.6713 128.907L96.8003 130.233L97.6249 130.774L98.3547 129.663L98.6415 129.851L97.9117 130.963L98.7721 131.528L99.6431 130.201L99.93 130.39L98.9065 132.026Z" fill="white"/>
<path d="M100.719 129.266L98.1382 127.571L98.7973 126.567C98.8209 126.531 98.8444 126.496 98.8444 126.496C98.8444 126.496 98.8915 126.424 98.915 126.388C99.045 126.268 99.1515 126.184 99.2938 126.124C99.4362 126.063 99.5908 126.062 99.7219 126.097C99.853 126.132 100.02 126.19 100.127 126.261C100.343 126.402 100.462 126.532 100.571 126.757C100.644 126.959 100.657 127.173 100.552 127.411L100.517 127.543L99.9992 128.331L100.967 128.967L100.755 129.29C100.755 129.29 100.719 129.266 100.719 129.266ZM99.6765 128.119L100.124 127.438C100.147 127.402 100.147 127.402 100.171 127.367C100.194 127.331 100.218 127.295 100.218 127.295C100.229 127.2 100.24 127.104 100.252 127.009C100.239 126.95 100.191 126.867 100.143 126.784C100.095 126.701 100.023 126.654 99.9515 126.607C99.8798 126.56 99.8081 126.513 99.7128 126.501C99.6176 126.49 99.5223 126.479 99.4629 126.491C99.4036 126.504 99.3206 126.552 99.2141 126.636C99.1906 126.672 99.1671 126.707 99.1671 126.707L99.12 126.779L98.6727 127.46L99.6765 128.119ZM101.732 127.724L100.362 127.544L100.467 127.15L101.991 127.33L101.732 127.724Z" fill="white"/>
<path d="M103.638 124.82L101.057 123.125L101.269 122.803L104.171 122.759L102.163 121.44L102.375 121.118L104.956 122.813L104.744 123.135L101.842 123.179L103.85 124.498L103.638 124.82Z" fill="white"/>
<path d="M105.639 121.773L103.623 119.218L103.905 118.787L107.051 119.622L106.839 119.945L103.955 119.18L104.026 119.072L105.91 121.438L105.639 121.773ZM105.312 120.943L105.025 120.754L105.896 119.428L106.183 119.616L105.312 120.943Z" fill="white"/>
<path d="M107.758 118.546L105.176 116.852L105.365 116.565L108.044 116.939L106.636 114.629L106.824 114.342L109.405 116.037L109.217 116.324L107.353 115.1L108.652 117.184L108.534 117.363L106.105 117L107.969 118.224L107.758 118.546Z" fill="white"/>
<path d="M110.206 114.818L107.625 113.123L108.684 111.51L108.971 111.698L108.1 113.025L108.924 113.566L109.654 112.455L109.941 112.643L109.211 113.754L110.071 114.319L110.942 112.993L111.229 113.181L110.206 114.818Z" fill="white"/>
<mask id="mask0_225_1851" style="mask-type:luminance" maskUnits="userSpaceOnUse" x="75" y="36" width="17" height="18">
<path d="M82.7046 36.6781L75.4541 47.7202L84.0225 53.3464L91.273 42.3042L82.7046 36.6781Z" fill="white"/>
</mask>
<g mask="url(#mask0_225_1851)">
<path d="M90.0959 44.0968L85.2465 51.4821C84.5874 52.4859 83.2214 52.7691 82.2176 52.1099L77.3059 48.8849C76.3021 48.2258 76.019 46.8597 76.6781 45.8559L81.5275 38.4706C82.1866 37.4667 83.5526 37.1836 84.5564 37.8427L89.468 41.0678C90.4842 41.7863 90.755 43.0929 90.0959 44.0968Z" fill="url(#paint0_linear_225_1851)"/>
</g>
<mask id="mask1_225_1851" style="mask-type:luminance" maskUnits="userSpaceOnUse" x="75" y="36" width="17" height="18">
<path d="M82.7046 36.6781L75.4541 47.7202L84.0225 53.3464L91.273 42.3042L82.7046 36.6781Z" fill="white"/>
</mask>
<g mask="url(#mask1_225_1851)">
<path opacity="0.5" d="M87.4305 38.8576L87.2512 38.7399L84.1439 43.4722L82.8891 42.6483L82.5321 40.9259L84.7214 37.5918L84.5421 37.4741L82.3057 40.8799L82.6874 42.7211L81.8635 43.9759L78.7086 41.9043L78.5909 42.0836L81.7458 44.1551L80.9218 45.4099L79.0807 45.7916L76.8443 49.1974L77.0236 49.3151L79.2129 45.981L80.9352 45.624L82.19 46.4479L79.0827 51.1802L79.2619 51.2979L82.3693 46.5656L83.6241 47.3895L84.018 49.29L81.8994 52.5166L82.0786 52.6343L84.2443 49.336L83.8258 47.3167L84.6497 46.0619L87.8046 48.1335L87.9223 47.9542L84.7674 45.8827L85.5913 44.6279L87.6106 44.2093L89.7764 40.911L89.5971 40.7933L87.4785 44.0199L85.5779 44.4138L84.3231 43.5899L87.4305 38.8576ZM85.365 44.5819L83.6465 47.199L81.0294 45.4805L82.7479 42.8634L85.365 44.5819Z" fill="url(#paint1_linear_225_1851)"/>
</g>
<mask id="mask2_225_1851" style="mask-type:luminance" maskUnits="userSpaceOnUse" x="75" y="36" width="17" height="18">
<path d="M82.7046 36.6781L75.4541 47.7202L84.0225 53.3464L91.273 42.3042L82.7046 36.6781Z" fill="white"/>
</mask>
<g mask="url(#mask2_225_1851)">
<path d="M87.5494 38.833L87.3701 38.7153L84.2627 43.4477L83.008 42.6237L82.6509 40.9014L84.8402 37.5672L84.661 37.4495L82.4246 40.8554L82.8062 42.6965L81.9823 43.9513L78.7916 41.8562L78.6739 42.0355L81.8288 44.107L81.0048 45.3618L79.1637 45.7435L76.9274 49.1493L77.1066 49.267L79.2959 45.9329L81.0182 45.5758L82.273 46.3998L79.1657 51.1321L79.3449 51.2498L82.4523 46.5175L83.7071 47.3414L84.101 49.2419L81.9824 52.4685L82.1616 52.5862L84.3274 49.2879L83.9088 47.2686L84.7327 46.0138L87.8876 48.0854L88.0053 47.9061L84.8504 45.8346L85.6743 44.5798L87.6936 44.1612L89.8594 40.8629L89.7518 40.7923L87.6332 44.0189L85.7326 44.4128L84.4778 43.5889L87.5494 38.833ZM85.5432 44.545L83.8248 47.1621L81.2076 45.4437L82.9261 42.8265L85.5432 44.545Z" fill="#231912"/>
</g>
<path d="M96.0716 36.1681L95.1807 36.3527C94.7867 34.4522 93.6812 32.854 92.0679 31.7947C90.4546 30.7354 88.5487 30.3561 86.6481 30.7501L86.4635 29.8592C88.6016 29.416 90.7338 29.8413 92.5622 31.0418C94.3548 32.2188 95.6048 34.0658 96.0716 36.1681Z" fill="white"/>
<path d="M93.0422 36.7957L92.1513 36.9804C91.9297 35.9113 91.3047 34.9879 90.3726 34.3758C89.4404 33.7638 88.3446 33.5573 87.2756 33.7789L87.0909 32.888C88.3975 32.6172 89.7791 32.8573 90.8905 33.5871C92.0018 34.3168 92.7714 35.4891 93.0422 36.7957Z" fill="white"/>
<path d="M90.5246 37.3485L89.6338 37.5332C89.5476 37.1174 89.3191 36.7622 88.9964 36.5503C88.6379 36.3149 88.2211 36.2464 87.8053 36.3326L87.6207 35.4417C88.274 35.3063 88.9172 35.4208 89.4908 35.7974C89.9927 36.127 90.3892 36.6952 90.5246 37.3485Z" fill="white"/>
<path d="M96.0459 114.191C95.8811 114.442 95.6682 114.61 95.4194 114.755C95.1941 114.863 94.8972 114.925 94.6473 114.915C94.3974 114.905 94.0994 114.812 93.8484 114.647L92.4144 113.705C92.1634 113.54 91.9954 113.327 91.8509 113.079C91.7423 112.853 91.6807 112.556 91.6909 112.307C91.701 112.057 91.7941 111.759 91.9589 111.508C92.1237 111.257 92.3366 111.089 92.5854 110.944C92.8107 110.836 93.1076 110.774 93.3575 110.784C93.6074 110.794 93.9054 110.887 94.1564 111.052L95.5904 111.994C95.8414 112.159 96.0094 112.372 96.1539 112.62C96.2625 112.846 96.3476 113.107 96.3139 113.392C96.3396 113.666 96.2107 113.94 96.0459 114.191ZM95.6157 113.909C95.7099 113.765 95.7682 113.599 95.7906 113.408C95.7896 113.253 95.7526 113.075 95.6922 112.933C95.6317 112.791 95.5118 112.661 95.3326 112.543L93.8627 111.578C93.7193 111.484 93.5523 111.425 93.3618 111.403C93.1713 111.38 93.029 111.441 92.8867 111.501C92.7444 111.562 92.6144 111.682 92.4967 111.861C92.4025 112.004 92.3442 112.171 92.3217 112.362C92.2993 112.552 92.3597 112.694 92.4202 112.837C92.4807 112.979 92.6005 113.109 92.7798 113.227L94.2497 114.192C94.3931 114.286 94.56 114.344 94.7505 114.367C94.9052 114.366 95.0833 114.329 95.2257 114.268C95.368 114.208 95.5215 114.052 95.6157 113.909Z" fill="white"/>
<path d="M98.6118 110.284C98.4471 110.535 98.2341 110.703 97.9853 110.847C97.7601 110.956 97.4631 111.017 97.2132 111.007C96.9633 110.997 96.6653 110.904 96.4143 110.739L94.9803 109.798C94.7293 109.633 94.5613 109.42 94.4168 109.171C94.3082 108.946 94.2466 108.649 94.2568 108.399C94.2669 108.149 94.36 107.851 94.5248 107.6C94.6896 107.349 94.9025 107.181 95.1513 107.037C95.3766 106.928 95.6735 106.866 95.9234 106.877C96.1733 106.887 96.4713 106.98 96.7223 107.145L98.1563 108.086C98.4073 108.251 98.5753 108.464 98.7198 108.713C98.8284 108.938 98.9135 109.199 98.8798 109.485C98.882 109.794 98.7766 110.033 98.6118 110.284ZM98.1816 110.001C98.2758 109.858 98.3341 109.691 98.3566 109.5C98.3555 109.346 98.3185 109.168 98.2581 109.025C98.1976 108.883 98.0777 108.753 97.8985 108.635L96.4286 107.67C96.2852 107.576 96.1182 107.518 95.9277 107.495C95.7373 107.473 95.5949 107.533 95.4526 107.594C95.3103 107.654 95.1803 107.774 95.0626 107.953C94.9684 108.097 94.9101 108.263 94.8876 108.454C94.8652 108.644 94.9257 108.787 94.9861 108.929C95.0466 109.071 95.1665 109.201 95.3457 109.319L96.8156 110.284C96.959 110.378 97.126 110.437 97.3164 110.459C97.4711 110.458 97.6493 110.421 97.7916 110.361C97.9339 110.3 98.0875 110.145 98.1816 110.001Z" fill="white"/>
<path d="M97.0215 104.109L97.3511 103.607L100.54 107.189L100.211 107.691L97.0215 104.109Z" fill="white"/>
<path d="M102.966 103.651C102.802 103.902 102.589 104.07 102.34 104.214C102.115 104.323 101.818 104.384 101.568 104.374C101.318 104.364 101.02 104.271 100.769 104.106L99.3348 103.165C99.0838 103 98.9158 102.787 98.7713 102.538C98.6627 102.313 98.6011 102.016 98.6113 101.766C98.6214 101.516 98.7145 101.218 98.8793 100.967C99.0441 100.716 99.257 100.548 99.5058 100.404C99.7311 100.295 100.028 100.234 100.278 100.244C100.528 100.254 100.826 100.347 101.077 100.512L102.511 101.453C102.762 101.618 102.93 101.831 103.074 102.08C103.183 102.305 103.268 102.566 103.234 102.852C103.237 103.161 103.108 103.436 102.966 103.651ZM102.536 103.368C102.63 103.225 102.689 103.058 102.711 102.868C102.71 102.713 102.673 102.535 102.613 102.392C102.552 102.25 102.432 102.12 102.253 102.002L100.783 101.037C100.64 100.943 100.473 100.885 100.282 100.862C100.092 100.84 99.9494 100.9 99.8071 100.961C99.6648 101.021 99.5348 101.141 99.4171 101.32C99.3229 101.464 99.2646 101.631 99.2421 101.821C99.2197 102.012 99.2801 102.154 99.3406 102.296C99.4011 102.439 99.521 102.569 99.7002 102.686L101.17 103.651C101.314 103.746 101.48 103.804 101.671 103.826C101.826 103.825 102.004 103.788 102.146 103.728C102.288 103.667 102.418 103.548 102.536 103.368Z" fill="white"/>
<path d="M105.509 99.779C105.344 100.03 105.131 100.198 104.882 100.342C104.657 100.451 104.36 100.513 104.11 100.503C103.86 100.492 103.562 100.399 103.311 100.234L101.877 99.2929C101.626 99.1281 101.458 98.9151 101.314 98.6663C101.205 98.4411 101.144 98.1441 101.154 97.8943C101.164 97.6444 101.257 97.3463 101.422 97.0954C101.587 96.8444 101.8 96.6764 102.048 96.5319C102.274 96.4233 102.571 96.3617 102.82 96.3719C103.07 96.382 103.368 96.4751 103.619 96.6399L105.053 97.5815C105.304 97.7463 105.472 97.9592 105.617 98.208C105.725 98.4333 105.811 98.6944 105.777 98.9801C105.803 99.2535 105.674 99.528 105.509 99.779ZM105.079 99.4965C105.173 99.3531 105.231 99.1862 105.254 98.9957C105.252 98.841 105.216 98.6629 105.155 98.5205C105.095 98.3782 104.975 98.2482 104.795 98.1305L103.326 97.1653C103.182 97.0712 103.015 97.0129 102.825 96.9904C102.634 96.968 102.492 97.0284 102.35 97.0889C102.207 97.1494 102.077 97.2692 101.96 97.4485C101.865 97.5919 101.807 97.7588 101.785 97.9493C101.762 98.1398 101.823 98.2821 101.883 98.4245C101.944 98.5668 102.063 98.6968 102.243 98.8145L103.713 99.7797C103.856 99.8738 104.023 99.9321 104.213 99.9546C104.368 99.9535 104.546 99.9166 104.689 99.8561C104.831 99.7956 104.984 99.6399 105.079 99.4965Z" fill="white"/>
<path d="M88.2233 119.932L88.3667 120.026L88.0606 120.492L88.2757 120.634L88.5582 120.203L88.7016 120.298L88.4191 120.728L88.6343 120.869L88.9638 120.367L89.1072 120.461L88.66 121.142L87.7637 120.554L88.1874 119.909L88.2233 119.932Z" fill="white"/>
<path d="M88.4351 119.61L88.8631 119.583L88.7176 119.179L88.8588 118.964L89.1007 119.534L89.7786 119.517L89.6374 119.732L89.1735 119.735L89.3549 120.162L89.2137 120.377L88.9595 119.749L88.3409 119.753L88.4351 119.61Z" fill="white"/>
<path d="M89.687 118.328C89.9021 118.469 89.9155 118.683 89.7743 118.898L89.6566 119.077L89.9075 119.242L89.7898 119.422L88.8936 118.833L89.129 118.474C89.3061 118.283 89.5078 118.21 89.687 118.328ZM89.5693 118.507C89.4618 118.436 89.343 118.461 89.2488 118.605L89.1311 118.784L89.4538 118.996L89.5715 118.816C89.7015 118.697 89.7127 118.601 89.5693 118.507Z" fill="white"/>
<path d="M89.6123 117.817L90.5086 118.406L90.3909 118.585L89.4946 117.996L89.6123 117.817Z" fill="white"/>
<path d="M91.0026 117.653L90.6217 117.608L90.5981 117.644L90.4569 117.859L90.7078 118.024L90.5901 118.203L89.6938 117.614L89.9293 117.256C90.0705 117.041 90.2722 116.968 90.4873 117.109C90.6307 117.203 90.6912 117.346 90.6564 117.477L91.0609 117.486L90.9668 117.629L91.0026 117.653ZM90.3135 117.765L90.4547 117.549C90.5489 117.406 90.5243 117.287 90.4167 117.217C90.3091 117.146 90.1904 117.171 90.0962 117.314L89.955 117.529L90.3135 117.765Z" fill="white"/>
<path d="M90.7657 116.06L90.9091 116.155L90.6031 116.621L90.8182 116.762L91.1007 116.332L91.2441 116.426L90.9616 116.856L91.1767 116.997L91.5063 116.495L91.6497 116.589L91.2024 117.271L90.3062 116.682L90.7299 116.037L90.7657 116.06Z" fill="white"/>
<path d="M91.2389 115.653C91.1918 115.724 91.1806 115.819 91.2164 115.843C91.3957 115.961 91.5942 115.424 91.9168 115.636C92.0961 115.754 92.0736 115.944 91.9559 116.123C91.8617 116.267 91.6959 116.363 91.5771 116.388L91.4808 116.222C91.6231 116.161 91.7654 116.101 91.836 115.993C91.9067 115.886 91.8944 115.826 91.8226 115.779C91.6434 115.662 91.4449 116.198 91.1223 115.986C90.9789 115.892 90.9655 115.678 91.0832 115.499C91.1538 115.391 91.2838 115.272 91.4026 115.247L91.4989 115.413C91.3924 115.497 91.286 115.581 91.2389 115.653Z" fill="white"/>
<path d="M91.4943 118.232L91.6377 118.326L91.3316 118.792L91.5467 118.933L91.8292 118.503L91.9726 118.597L91.6901 119.028L91.9052 119.169L92.2348 118.667L92.3782 118.761L91.9309 119.442L91.0347 118.854L91.4584 118.208L91.4943 118.232Z" fill="white"/>
<path d="M91.7299 117.873L92.6454 117.808L92.0359 117.407L92.1536 117.228L93.0499 117.817L92.9558 117.96L92.0403 118.026L92.6497 118.426L92.532 118.605L91.6357 118.017L91.7299 117.873Z" fill="white"/>
<path d="M93.3024 116.495C93.5534 116.659 93.6149 116.956 93.4266 117.243L93.1912 117.602L92.2949 117.013L92.5303 116.655C92.6951 116.404 93.0156 116.306 93.3024 116.495ZM93.1847 116.674C93.0055 116.556 92.8037 116.629 92.7096 116.772L92.5919 116.952L93.1655 117.328L93.3067 117.113C93.3774 117.006 93.3281 116.768 93.1847 116.674Z" fill="white"/>
<path d="M90.2842 110.151L91.0461 110.241L90.6609 109.578L90.7786 109.398L91.6748 109.987L91.5807 110.13L90.9354 109.707L91.2848 110.347L91.2142 110.454L90.5116 110.352L91.1569 110.776L91.0628 110.919L90.1665 110.331L90.2842 110.151Z" fill="white"/>
<path d="M91.9385 108.57C92.1894 108.734 92.2633 109.091 92.0985 109.342C91.9337 109.593 91.6132 109.69 91.3264 109.502C91.0755 109.337 91.0016 108.981 91.1664 108.73C91.367 108.502 91.6875 108.405 91.9385 108.57ZM91.4206 109.358C91.5998 109.476 91.8016 109.403 91.8957 109.26C92.0134 109.081 91.9406 108.879 91.7972 108.785C91.618 108.667 91.4163 108.74 91.3221 108.883C91.2279 109.027 91.2772 109.264 91.4206 109.358Z" fill="white"/>
<path d="M91.6967 108L92.6122 107.935L92.0027 107.534L92.1204 107.355L93.0167 107.944L92.9225 108.087L92.0071 108.153L92.6165 108.553L92.4988 108.732L91.6025 108.144L91.6967 108Z" fill="white"/>
<path d="M92.6617 106.531L92.8051 106.625L92.6168 106.912L93.3697 107.406L93.2755 107.549L92.5226 107.055L92.3343 107.342L92.1909 107.248L92.6617 106.531Z" fill="white"/>
<path d="M92.8496 106.244L93.244 106.503L93.5265 106.072L93.1321 105.813L93.2498 105.634L94.1461 106.223L94.0284 106.402L93.6699 106.166L93.3874 106.597L93.7459 106.832L93.6282 107.011L92.7319 106.423L92.8496 106.244Z" fill="white"/>
<path d="M93.5304 104.895L94.4545 106.066L94.3603 106.209L93.4362 105.038L93.5304 104.895Z" fill="white"/>
<path d="M94.5421 104.995L94.8289 105.183L94.7112 105.362L94.4244 105.174L93.603 105.096L93.7207 104.917L94.3157 104.949L94.0503 104.415L94.168 104.236L94.5421 104.995Z" fill="white"/>
<path d="M94.6388 103.519L94.7822 103.613L94.4762 104.079L94.6913 104.22L94.9738 103.79L95.1172 103.884L94.8347 104.314L95.0498 104.456L95.3793 103.954L95.5227 104.048L95.0755 104.729L94.1792 104.141L94.6029 103.495L94.6388 103.519Z" fill="white"/>
<path d="M95.8738 103.201L95.5913 103.631L95.7235 103.821L95.6058 104L94.9684 103.017L95.0861 102.838L96.2413 103.032L96.1001 103.247L95.8738 103.201ZM95.6474 103.155L95.1948 103.063L95.4591 103.442L95.6474 103.155Z" fill="white"/>
<path d="M96.6416 102.422L96.2965 102.401L96.2729 102.437L96.1317 102.652L96.3826 102.817L96.2649 102.996L95.3687 102.407L95.6041 102.049C95.7453 101.834 95.947 101.761 96.1621 101.902C96.3055 101.996 96.366 102.139 96.3312 102.27L96.7357 102.279L96.6416 102.422ZM95.976 102.498L96.1172 102.283C96.2114 102.14 96.1867 102.021 96.0792 101.95C95.9716 101.88 95.8529 101.904 95.7587 102.048L95.6175 102.263L95.976 102.498Z" fill="white"/>
<path d="M137.395 75.206L136.43 76.6759L131.354 72.0603L132.319 70.5904L137.395 75.206Z" fill="white"/>
<path d="M135.347 66.2156C135.051 66.4318 134.601 66.8037 134.225 67.3773C133.26 68.8472 133.389 70.3689 134.501 71.0987C135.325 71.6401 136.226 71.2056 136.89 70.8203C137.553 70.435 137.85 70.3734 138.101 70.5382C138.495 70.7971 138.369 71.3809 138.086 71.8111C137.709 72.3847 137.39 72.6368 136.881 73.021L136.656 73.1296L137.805 74.1922C138.184 73.9278 138.728 73.4125 139.175 72.7314C140.187 71.1898 140.094 69.6916 138.934 68.8789C138.289 68.4552 137.528 68.52 136.592 69.0856C136.012 69.4227 135.62 69.6277 135.334 69.4394C135.083 69.2746 134.996 68.8588 135.397 68.2494C135.703 67.7833 136.046 67.4954 136.342 67.2792L136.507 67.1829L135.347 66.2156Z" fill="white"/>
<path d="M140.167 66.61C139.915 66.2906 138.966 65.0006 138.966 65.0006C138.966 65.0006 138.714 64.6812 138.546 64.4683L139.118 64.6903C139.118 64.6903 140.669 65.298 140.979 65.4505C140.826 65.6062 140.355 66.3232 140.167 66.61ZM137.71 62.3805L136.957 63.5277C136.722 63.8862 136.665 64.2078 136.929 64.5866L140.727 70.2105L141.739 68.6689C141.739 68.6689 141.187 67.9471 141.091 67.7812C141.209 67.602 142.197 66.0962 142.339 65.8811C142.577 65.9865 143.317 66.2668 143.317 66.2668L144.211 64.9045L137.71 62.3805Z" fill="white"/>
<path d="M129.942 74.2114L132.872 78.1878L131.989 77.8133C130.928 77.4758 129.359 77.6771 128.245 78.2796L134.1 80.2253L135.112 78.6837L130.942 72.6104L129.942 74.2114Z" fill="white"/>
<path d="M128.129 76.972L126.576 79.3382L126.66 79.4446C128.35 77.8864 130.298 77.4208 131.989 77.8134L129.043 76.5968C128.614 76.469 128.341 76.6493 128.129 76.972Z" fill="#FAA61A"/>
<path d="M60.9132 139.096L59.9811 138.484L58.4745 140.779L57.9009 140.402L55.5062 136.47L55.9535 135.788L58.3482 139.721L59.384 138.143L57.9858 137.225L58.3859 136.616L59.7841 137.534L60.1137 137.032L60.6873 137.409L60.3578 137.911L61.2899 138.523L60.9132 139.096Z" fill="white"/>
<path d="M63.752 135.008C63.5872 135.259 63.3866 135.487 63.1378 135.631C62.889 135.776 62.6279 135.861 62.331 135.922C62.034 135.984 61.7718 135.914 61.4738 135.821L61.707 135.153C61.9098 135.235 62.0644 135.234 62.2785 135.221C62.4566 135.184 62.6348 135.147 62.8007 135.05C62.9665 134.954 63.0966 134.834 63.1907 134.691C63.332 134.476 63.4138 134.273 63.4004 134.059C63.4106 133.809 63.3736 133.631 63.265 133.406C63.1564 133.18 63.0365 133.05 62.8214 132.909C62.6063 132.768 62.4035 132.686 62.1895 132.699C61.9754 132.713 61.7614 132.726 61.5362 132.835C61.3109 132.944 61.1809 133.063 61.0397 133.278C60.8984 133.494 60.8166 133.696 60.8064 133.946C60.7963 134.196 60.8332 134.374 60.8937 134.517L60.3254 134.913L57.8025 133.051L59.5445 130.398L60.1181 130.775L58.5644 133.141L58.5018 132.69L60.487 134.198L60.2136 134.224C60.1643 133.986 60.1509 133.772 60.1846 133.487C60.2183 133.201 60.336 133.022 60.4537 132.842C60.6656 132.52 60.9021 132.316 61.2103 132.159C61.5185 132.002 61.8513 131.964 62.1605 131.962C62.5056 131.984 62.8395 132.1 63.1263 132.288C63.449 132.5 63.6529 132.737 63.7861 133.081C63.9194 133.425 64.0168 133.745 63.9954 134.09C64.057 134.387 63.9404 134.721 63.752 135.008Z" fill="white"/>
<path d="M66.7296 130.396C66.5648 130.647 66.3877 130.838 66.1389 130.983C65.8901 131.127 65.6648 131.236 65.3914 131.261C65.118 131.287 64.8681 131.277 64.5701 131.184L64.7675 130.493C65.0297 130.562 65.3031 130.536 65.5642 130.451C65.8253 130.366 65.9789 130.211 66.1436 129.96C66.2849 129.744 66.3667 129.542 66.3533 129.328C66.3758 129.137 66.303 128.935 66.2302 128.734C66.1339 128.568 65.9782 128.414 65.7631 128.273C65.4404 128.061 65.1189 128.004 64.8219 128.066C64.5249 128.127 64.2526 128.307 64.0643 128.594C64.0172 128.666 63.9466 128.774 63.9353 128.869C63.9241 128.964 63.8893 129.095 63.8781 129.19L63.1879 129.148L62.7034 126.213L62.9656 126.282L61.3413 128.756L60.7677 128.379L62.698 125.44L63.2716 125.816L63.7416 128.382L63.5265 128.241C63.7025 127.895 63.9625 127.655 64.2707 127.498C64.5789 127.342 64.8759 127.28 65.221 127.301C65.5661 127.323 65.9 127.439 66.1868 127.628C66.5095 127.84 66.7492 128.1 66.906 128.408C67.0628 128.716 67.1244 129.013 67.103 129.358C67.0816 129.703 66.9179 130.109 66.7296 130.396Z" fill="white"/>
<path d="M68.658 127.301L68.1203 126.948L67.608 123.431C67.5464 123.134 67.4972 122.896 67.3773 122.766C67.2574 122.636 67.1611 122.47 66.9819 122.353C66.8026 122.235 66.5998 122.153 66.3858 122.167C66.1953 122.144 65.9577 122.193 65.7919 122.29C65.5902 122.362 65.4366 122.518 65.3189 122.697C65.1777 122.912 65.1193 123.079 65.1092 123.329C65.1226 123.543 65.136 123.757 65.2323 123.923C65.3286 124.089 65.4608 124.278 65.6401 124.396L65.2163 125.042C64.8937 124.83 64.6898 124.593 64.533 124.285C64.3762 123.977 64.3382 123.644 64.3596 123.299C64.3809 122.954 64.4976 122.62 64.7094 122.297C64.9213 121.975 65.1578 121.771 65.466 121.614C65.7742 121.457 66.0711 121.395 66.4162 121.417C66.7614 121.438 67.0594 121.531 67.3821 121.743C67.5972 121.884 67.7529 122.038 67.9086 122.192C68.0049 122.357 68.1012 122.523 68.174 122.725C68.2468 122.927 68.296 123.164 68.3218 123.438L68.7703 126.349L68.5081 126.279L70.2501 123.626L70.8238 124.003L68.658 127.301Z" fill="white"/>
<path d="M75.5333 116.987C75.3685 117.238 75.1914 117.43 74.9426 117.574C74.6938 117.719 74.4686 117.828 74.1951 117.853C73.9217 117.879 73.6718 117.869 73.3738 117.776L73.5712 117.084C73.8334 117.154 74.1068 117.128 74.3679 117.043C74.629 116.958 74.7826 116.802 74.9474 116.551C75.0886 116.336 75.1704 116.133 75.1571 115.919C75.1795 115.729 75.1067 115.527 75.0339 115.326C74.9376 115.16 74.7819 115.006 74.5668 114.865C74.2441 114.653 73.9226 114.596 73.6256 114.657C73.3286 114.719 73.0563 114.899 72.868 115.186C72.8209 115.258 72.7503 115.365 72.7391 115.461C72.7278 115.556 72.6931 115.687 72.6818 115.782L71.9916 115.739L71.5071 112.805L71.7693 112.874L70.098 115.42L69.5243 115.043L71.4547 112.103L72.0283 112.48L72.4982 115.046L72.2831 114.905C72.4592 114.558 72.7192 114.319 73.0274 114.162C73.3356 114.005 73.6325 113.944 73.9776 113.965C74.3228 113.986 74.6566 114.103 74.9435 114.291C75.2661 114.503 75.5058 114.763 75.6626 115.071C75.8194 115.38 75.881 115.676 75.8596 116.022C75.8382 116.367 75.7216 116.701 75.5333 116.987Z" fill="white"/>
<path d="M78.1217 112.889L73.8196 110.064L73.7812 111.373L73.1 110.926L73.1384 109.617L73.5386 109.007L78.5219 112.28L78.1217 112.889Z" fill="white"/>
<path d="M81.0773 108.622C80.8654 108.944 80.6054 109.184 80.2972 109.341C79.989 109.498 79.6327 109.572 79.2875 109.55C78.9424 109.529 78.6085 109.412 78.2859 109.2L76.4575 108C76.1348 107.788 75.8951 107.528 75.7383 107.22C75.5815 106.911 75.5076 106.555 75.529 106.21C75.5504 105.865 75.667 105.531 75.8789 105.208C76.0907 104.886 76.3508 104.646 76.6589 104.489C76.9671 104.332 77.3235 104.258 77.6686 104.28C78.0137 104.301 78.3476 104.418 78.6703 104.63L80.4987 105.83C80.8213 106.042 81.0611 106.302 81.2179 106.61C81.3747 106.919 81.4485 107.275 81.4271 107.62C81.4058 107.965 81.2891 108.299 81.0773 108.622ZM80.4678 108.221C80.5855 108.042 80.6674 107.839 80.6775 107.59C80.6641 107.376 80.6507 107.162 80.5421 106.936C80.4693 106.735 80.3136 106.581 80.0985 106.44L78.2342 105.216C78.055 105.098 77.8522 105.016 77.6023 105.006C77.3883 105.019 77.1743 105.033 76.949 105.141C76.7473 105.214 76.5937 105.37 76.4525 105.585C76.3348 105.764 76.2529 105.967 76.2428 106.217C76.2562 106.431 76.2696 106.645 76.3782 106.87C76.451 107.072 76.6067 107.225 76.8218 107.367L78.7219 108.614C78.9012 108.732 79.104 108.814 79.3538 108.824C79.5679 108.811 79.7819 108.797 80.0071 108.689C80.173 108.592 80.3266 108.437 80.4678 108.221Z" fill="white"/>
<path d="M84.3497 103.639C84.1379 103.961 83.8778 104.201 83.5697 104.358C83.2615 104.515 82.9051 104.588 82.56 104.567C82.2149 104.546 81.881 104.429 81.5583 104.217L79.7299 103.017C79.4073 102.805 79.1675 102.545 79.0107 102.236C78.8539 101.928 78.7801 101.572 78.8015 101.227C78.8228 100.882 78.9395 100.548 79.1513 100.225C79.3632 99.9025 79.6232 99.6628 79.9314 99.506C80.2396 99.3492 80.5959 99.2753 80.9411 99.2967C81.2862 99.3181 81.6201 99.4347 81.9427 99.6466L83.7711 100.847C84.0938 101.059 84.3335 101.319 84.4903 101.627C84.6471 101.935 84.721 102.292 84.6996 102.637C84.6782 102.982 84.5616 103.316 84.3497 103.639ZM83.7403 103.238C83.858 103.059 83.9398 102.856 83.95 102.606C83.9366 102.392 83.9232 102.178 83.8146 101.953C83.7418 101.751 83.5861 101.598 83.371 101.457L81.5067 100.232C81.3274 100.115 81.1246 100.033 80.8748 100.023C80.6607 100.036 80.4467 100.05 80.2215 100.158C80.0197 100.231 79.8662 100.387 79.7249 100.602C79.6072 100.781 79.5254 100.984 79.5152 101.234C79.5286 101.448 79.542 101.662 79.6507 101.887C79.7234 102.089 79.8792 102.242 80.0943 102.384L81.9944 103.631C82.1736 103.749 82.3764 103.831 82.6263 103.841C82.8403 103.828 83.0544 103.814 83.2796 103.705C83.469 103.573 83.6226 103.418 83.7403 103.238Z" fill="white"/>
<path d="M85.1312 91.1189C85.3431 90.7963 85.6031 90.5565 85.9113 90.3997C86.2195 90.2429 86.5758 90.1691 86.9209 90.1904C87.2661 90.2118 87.6358 90.352 87.9585 90.5639L89.6076 91.6467C89.9661 91.8821 90.2059 92.1422 90.3985 92.4739C90.5553 92.7821 90.6292 93.1384 90.6436 93.5071C90.6223 93.8522 90.4821 94.2219 90.2702 94.5446C90.0819 94.8314 89.8454 95.0353 89.5966 95.1798C89.3243 95.3601 89.0273 95.4217 88.7304 95.4832L88.642 94.7582C88.8561 94.7448 89.0342 94.7079 89.2595 94.5992C89.4254 94.5029 89.6148 94.3707 89.7325 94.1915C89.8737 93.9764 89.9791 93.7377 89.9657 93.5237C89.9759 93.2738 89.9031 93.0721 89.7944 92.8469C89.6858 92.6216 89.5301 92.4681 89.3508 92.3503L88.347 91.6912L88.5846 91.642C88.7055 91.9266 88.7312 92.2 88.7334 92.5093C88.6997 92.795 88.6066 93.0931 88.4418 93.344C88.23 93.6667 87.9935 93.8706 87.6853 94.0274C87.3771 94.1842 87.0443 94.2222 86.735 94.2243C86.3899 94.203 86.056 94.0863 85.7692 93.898C85.4465 93.6861 85.2427 93.4497 85.0859 93.1415C84.9291 92.8333 84.8552 92.4769 84.8766 92.1318C84.8263 91.7396 84.9429 91.4057 85.1312 91.1189ZM85.7407 91.5191C85.5994 91.7342 85.5176 91.937 85.531 92.151C85.5208 92.4009 85.5578 92.5791 85.6664 92.8043C85.775 93.0296 85.9307 93.1831 86.11 93.3008C86.3251 93.4421 86.5279 93.5239 86.7419 93.5106C86.9918 93.5207 87.17 93.4838 87.3952 93.3751C87.6205 93.2665 87.774 93.1108 87.8917 92.9315C88.033 92.7164 88.1148 92.5136 88.1014 92.2996C88.0881 92.0856 88.0747 91.8716 87.966 91.6463C87.8574 91.421 87.7017 91.2675 87.5224 91.1498C87.3432 91.0321 87.1404 90.9502 86.8905 90.9401C86.6406 90.9299 86.4624 90.9669 86.2372 91.0755C86.0355 91.1483 85.8819 91.304 85.7407 91.5191Z" fill="white"/>
<path d="M88.4027 86.1355C88.6146 85.8129 88.8746 85.5731 89.1828 85.4163C89.491 85.2595 89.8473 85.1857 90.1924 85.207C90.5375 85.2284 90.9073 85.3686 91.2299 85.5805L92.8791 86.6633C93.2376 86.8987 93.4773 87.1587 93.67 87.4905C93.8268 87.7987 93.9006 88.155 93.9151 88.5237C93.8937 88.8688 93.7536 89.2385 93.5417 89.5612C93.3534 89.848 93.1169 90.0519 92.8681 90.1964C92.5958 90.3767 92.2988 90.4383 92.0019 90.4998L91.9135 89.7748C92.1275 89.7614 92.3057 89.7245 92.531 89.6158C92.6968 89.5195 92.8862 89.3873 93.0039 89.2081C93.1452 88.993 93.2506 88.7543 93.2372 88.5403C93.2473 88.2904 93.1746 88.0887 93.0659 87.8635C92.9573 87.6382 92.8016 87.4847 92.6223 87.3669L91.6185 86.7078L91.8561 86.6586C91.977 86.9432 92.0027 87.2166 92.0049 87.5259C91.9712 87.8116 91.8781 88.1097 91.7133 88.3606C91.5014 88.6833 91.265 88.8872 90.9568 89.044C90.6486 89.2008 90.3158 89.2388 90.0065 89.2409C89.6614 89.2196 89.3275 89.1029 89.0407 88.9146C88.718 88.7027 88.5141 88.4663 88.3573 88.1581C88.2006 87.8499 88.1267 87.4935 88.1481 87.1484C88.0977 86.7562 88.2144 86.4223 88.4027 86.1355ZM89.0122 86.5357C88.8709 86.7508 88.7891 86.9536 88.8025 87.1676C88.7923 87.4175 88.8292 87.5957 88.9379 87.8209C89.0465 88.0462 89.2022 88.1997 89.3815 88.3175C89.5966 88.4587 89.7994 88.5405 90.0134 88.5272C90.2633 88.5373 90.4415 88.5004 90.6667 88.3917C90.892 88.2831 91.0455 88.1274 91.1632 87.9481C91.3045 87.733 91.3863 87.5302 91.3729 87.3162C91.3595 87.1022 91.3461 86.8881 91.2375 86.6629C91.1289 86.4376 90.9732 86.2841 90.7939 86.1664C90.6147 86.0487 90.4119 85.9668 90.162 85.9567C89.9121 85.9465 89.7339 85.9835 89.5087 86.0921C89.307 86.1649 89.1534 86.3206 89.0122 86.5357Z" fill="white"/>
<path d="M91.6751 81.1524C91.887 80.8297 92.147 80.59 92.4552 80.4332C92.7634 80.2764 93.1198 80.2025 93.4649 80.2239C93.81 80.2453 94.1797 80.3854 94.5024 80.5973L96.1516 81.6802C96.5101 81.9156 96.7498 82.1756 96.9424 82.5073C97.0992 82.8155 97.1731 83.1719 97.1876 83.5405C97.1662 83.8856 97.026 84.2554 96.8142 84.578C96.6258 84.8649 96.3894 85.0687 96.1406 85.2132C95.8682 85.3936 95.5713 85.4551 95.2743 85.5167L95.186 84.7917C95.4 84.7783 95.5782 84.7413 95.8034 84.6327C95.9693 84.5364 96.1587 84.4042 96.2764 84.2249C96.4176 84.0098 96.523 83.7712 96.5096 83.5572C96.5198 83.3073 96.447 83.1056 96.3384 82.8803C96.2297 82.6551 96.074 82.5015 95.8948 82.3838L94.8909 81.7247L95.1285 81.6754C95.2495 81.9601 95.2752 82.2335 95.2773 82.5428C95.2436 82.8285 95.1505 83.1265 94.9858 83.3775C94.7739 83.7001 94.5374 83.904 94.2292 84.0608C93.921 84.2176 93.5882 84.2556 93.279 84.2578C92.9338 84.2364 92.5999 84.1198 92.3131 83.9315C91.9905 83.7196 91.7866 83.4831 91.6298 83.1749C91.473 82.8667 91.3991 82.5104 91.4205 82.1653C91.3702 81.7731 91.4868 81.4392 91.6751 81.1524ZM92.2846 81.5526C92.1434 81.7677 92.0615 81.9705 92.0749 82.1845C92.0648 82.4344 92.1017 82.6125 92.2103 82.8378C92.319 83.063 92.4747 83.2166 92.6539 83.3343C92.869 83.4755 93.0718 83.5574 93.2859 83.544C93.5357 83.5542 93.7139 83.5172 93.9392 83.4086C94.1644 83.3 94.318 83.1442 94.4357 82.965C94.5769 82.7499 94.6588 82.5471 94.6454 82.3331C94.632 82.119 94.6186 81.905 94.51 81.6797C94.4013 81.4545 94.2456 81.3009 94.0664 81.1832C93.8871 81.0655 93.6843 80.9837 93.4344 80.9735C93.1846 80.9634 93.0064 81.0003 92.7811 81.1089C92.5794 81.1817 92.4259 81.3374 92.2846 81.5526Z" fill="white"/>
<path d="M94.9471 76.169C95.159 75.8463 95.419 75.6066 95.7272 75.4498C96.0354 75.293 96.3917 75.2191 96.7369 75.2405C97.082 75.2619 97.4517 75.402 97.7744 75.6139L99.4235 76.6968C99.782 76.9322 100.022 77.1922 100.214 77.5239C100.371 77.8321 100.445 78.1885 100.46 78.5571C100.438 78.9022 100.298 79.272 100.086 79.5946C99.8978 79.8815 99.6613 80.0853 99.4125 80.2298C99.1402 80.4102 98.8432 80.4717 98.5463 80.5333L98.4579 79.8083C98.672 79.7949 98.8502 79.7579 99.0754 79.6493C99.2413 79.553 99.4307 79.4208 99.5484 79.2415C99.6896 79.0264 99.795 78.7878 99.7816 78.5738C99.7918 78.3239 99.719 78.1222 99.6104 77.8969C99.5017 77.6717 99.346 77.5181 99.1667 77.4004L98.1629 76.7413L98.4005 76.692C98.5214 76.9767 98.5471 77.2501 98.5493 77.5594C98.5156 77.8451 98.4225 78.1431 98.2577 78.3941C98.0459 78.7167 97.8094 78.9206 97.5012 79.0774C97.193 79.2342 96.8602 79.2722 96.5509 79.2744C96.2058 79.253 95.8719 79.1364 95.5851 78.9481C95.2625 78.7362 95.0586 78.4997 94.9018 78.1915C94.745 77.8833 94.6711 77.527 94.6925 77.1819C94.6422 76.7897 94.7588 76.4558 94.9471 76.169ZM95.5566 76.5691C95.4153 76.7843 95.3335 76.9871 95.3469 77.2011C95.3367 77.451 95.3737 77.6291 95.4823 77.8544C95.5909 78.0796 95.7467 78.2332 95.9259 78.3509C96.141 78.4921 96.3438 78.574 96.5578 78.5606C96.8077 78.5708 96.9859 78.5338 97.2111 78.4252C97.4364 78.3166 97.59 78.1608 97.7077 77.9816C97.8489 77.7665 97.9308 77.5637 97.9174 77.3497C97.904 77.1356 97.8906 76.9216 97.7819 76.6963C97.6733 76.4711 97.5176 76.3175 97.3383 76.1998C97.1591 76.0821 96.9563 76.0003 96.7064 75.9901C96.4565 75.98 96.2784 76.0169 96.0531 76.1255C95.8514 76.1983 95.6978 76.354 95.5566 76.5691Z" fill="white"/>
<path d="M105.523 71.1584L101.22 68.3335L101.182 69.6423L100.501 69.195L100.539 67.8862L100.939 67.2768L105.923 70.5489L105.523 71.1584Z" fill="white"/>
<path d="M108.479 66.8912C108.267 67.2139 108.007 67.4536 107.699 67.6104C107.391 67.7672 107.035 67.8411 106.689 67.8197C106.344 67.7983 106.01 67.6817 105.688 67.4698L103.859 66.2692C103.537 66.0574 103.297 65.7974 103.14 65.4892C102.983 65.181 102.909 64.8246 102.931 64.4795C102.952 64.1344 103.069 63.8005 103.281 63.4778C103.493 63.1552 103.753 62.9154 104.061 62.7587C104.369 62.6019 104.725 62.528 105.07 62.5494C105.416 62.5708 105.749 62.6874 106.072 62.8992L107.901 64.0998C108.223 64.3117 108.463 64.5717 108.62 64.8799C108.777 65.1881 108.85 65.5444 108.829 65.8895C108.808 66.2347 108.691 66.5686 108.479 66.8912ZM107.87 66.491C107.987 66.3118 108.069 66.109 108.079 65.8591C108.066 65.6451 108.053 65.431 107.944 65.2058C107.871 65.0041 107.715 64.8505 107.5 64.7093L105.636 63.4852C105.457 63.3675 105.254 63.2856 105.004 63.2755C104.79 63.2889 104.576 63.3022 104.351 63.4109C104.149 63.4837 103.996 63.6394 103.854 63.8545C103.737 64.0337 103.655 64.2365 103.645 64.4864C103.658 64.7004 103.671 64.9145 103.78 65.1397C103.853 65.3414 104.009 65.495 104.224 65.6362L106.124 66.8839C106.303 67.0016 106.506 67.0834 106.756 67.0936C106.97 67.0802 107.184 67.0668 107.409 66.9582C107.575 66.8618 107.728 66.7061 107.87 66.491Z" fill="white"/>
<path d="M111.973 61.3351L111.041 60.723L109.534 63.0175L108.96 62.6409L106.566 58.7083L107.013 58.0271L109.408 61.9597L110.444 60.3822L109.045 59.4642L109.446 58.8547L110.844 59.7728L111.173 59.2708L111.747 59.6475L111.417 60.1494L112.349 60.7615L111.973 61.3351Z" fill="white"/>
<path d="M114.835 57.2113C114.623 57.5339 114.363 57.7737 114.09 57.954C113.818 58.1344 113.485 58.1724 113.176 58.1745C112.867 58.1767 112.533 58.0601 112.246 57.8717C111.959 57.6834 111.719 57.4234 111.598 57.1387C111.442 56.8305 111.404 56.4977 111.484 56.1403L111.7 56.2816C111.427 56.4619 111.13 56.5234 110.88 56.5133C110.595 56.4796 110.332 56.4101 110.082 56.2453C109.795 56.057 109.591 55.8205 109.482 55.5952C109.361 55.3106 109.336 55.0371 109.369 54.7514C109.403 54.4657 109.52 54.1318 109.708 53.845C109.896 53.5582 110.133 53.3543 110.405 53.174C110.654 53.0295 110.915 52.9444 111.224 52.9422C111.533 52.9401 111.772 53.0455 112.059 53.2338C112.31 53.3986 112.478 53.6115 112.622 53.8603C112.767 54.1091 112.793 54.3825 112.735 54.7041L112.52 54.5629C112.816 54.3467 113.172 54.2728 113.482 54.2706C113.791 54.2685 114.125 54.3851 114.412 54.5734C114.698 54.7618 114.938 55.0218 115.059 55.3064C115.18 55.5911 115.242 55.888 115.22 56.2332C115.163 56.5547 115.046 56.8886 114.835 57.2113ZM114.225 56.8111C114.413 56.5243 114.507 56.2262 114.445 55.9293C114.383 55.6323 114.239 55.3835 113.952 55.1952C113.629 54.9833 113.367 54.9138 113.07 54.9754C112.773 55.0369 112.537 55.2408 112.349 55.5276C112.16 55.8144 112.067 56.1124 112.129 56.4094C112.154 56.6828 112.358 56.9193 112.681 57.1312C112.968 57.3195 113.289 57.3767 113.55 57.2916C113.812 57.2065 114.037 57.0979 114.225 56.8111ZM111.751 55.1868C111.916 54.9358 111.986 54.6737 111.972 54.4596C111.959 54.2456 111.814 53.9968 111.563 53.832C111.313 53.6672 111.086 53.6212 110.825 53.7063C110.564 53.7914 110.41 53.9471 110.246 54.1981C110.081 54.4491 110.011 54.7112 110.025 54.9253C110.038 55.1393 110.183 55.3881 110.434 55.5529C110.684 55.7177 110.911 55.7637 111.172 55.6786C111.433 55.5935 111.587 55.4378 111.751 55.1868Z" fill="white"/>
<path d="M36.6874 114.107L37.1818 113.354L37.4327 113.519C37.4429 113.269 37.4889 113.042 37.5349 112.816C37.6167 112.613 37.6986 112.41 37.8163 112.231C37.9811 111.98 38.1582 111.789 38.3476 111.656C38.5605 111.488 38.7622 111.416 39.0357 111.39C39.0346 111.235 39.0335 111.081 39.0324 110.926C39.0313 110.771 39.0661 110.64 39.1009 110.509C39.1356 110.378 39.1704 110.247 39.241 110.139C39.3117 110.032 39.3464 109.901 39.417 109.793C39.5818 109.542 39.7589 109.351 39.9719 109.183C40.1848 109.015 40.3865 108.942 40.5882 108.869C40.79 108.796 41.0398 108.807 41.302 108.876C41.5284 108.922 41.8029 109.051 42.0538 109.216L43.5237 110.181L43.0294 110.934L41.667 110.039C41.4878 109.922 41.3208 109.863 41.1897 109.828C41.0228 109.77 40.8681 109.771 40.7494 109.796C40.6306 109.82 40.4883 109.881 40.3459 109.941C40.2395 110.025 40.1094 110.145 40.0153 110.289C39.9682 110.36 39.9211 110.432 39.9099 110.527C39.8628 110.599 39.8516 110.694 39.8404 110.79C39.8291 110.885 39.8179 110.98 39.8067 111.075C39.7954 111.171 39.8436 111.253 39.8682 111.372L41.8759 112.691L41.3815 113.443L40.0192 112.549C39.8399 112.431 39.673 112.373 39.5419 112.338C39.4108 112.303 39.2203 112.281 39.1015 112.305C38.9827 112.33 38.8404 112.391 38.6981 112.451C38.5916 112.535 38.4616 112.655 38.3674 112.798C38.3204 112.87 38.2497 112.978 38.2385 113.073C38.1914 113.144 38.1567 113.276 38.1454 113.371C38.1342 113.466 38.123 113.561 38.1117 113.657C38.1005 113.752 38.1251 113.871 38.1374 113.93L40.1451 115.248L39.6508 116.001L36.711 114.071L36.6874 114.107Z" fill="white"/>
<path d="M42.5357 108.403C42.3206 108.262 42.1291 108.085 42.0204 107.86C41.8883 107.67 41.8032 107.409 41.7539 107.172C41.7047 106.934 41.7384 106.648 41.8079 106.386C41.8775 106.124 42.0299 105.814 42.1947 105.563C42.383 105.276 42.5837 105.048 42.7966 104.88C43.0096 104.712 43.2584 104.568 43.4959 104.519C43.7335 104.469 43.9711 104.42 44.2332 104.49C44.4596 104.536 44.7218 104.605 44.9369 104.747C45.152 104.888 45.3435 105.065 45.4522 105.29C45.5844 105.48 45.6694 105.741 45.7187 105.978C45.7679 106.216 45.7342 106.502 45.6647 106.764C45.5952 107.026 45.4427 107.336 45.2779 107.587C45.0896 107.874 44.8889 108.101 44.676 108.269C44.4631 108.437 44.2143 108.582 43.9767 108.631C43.7391 108.68 43.5016 108.73 43.2394 108.66C42.9895 108.65 42.7508 108.545 42.5357 108.403ZM43.0536 107.615C43.1612 107.685 43.3281 107.744 43.4234 107.755C43.5545 107.79 43.7091 107.788 43.8514 107.728C43.9937 107.668 44.1361 107.607 44.2425 107.523C44.3726 107.403 44.5026 107.283 44.6203 107.104C44.738 106.925 44.7963 106.758 44.8546 106.591C44.9129 106.424 44.9118 106.269 44.8872 106.151C44.8626 106.032 44.8257 105.854 44.7416 105.747C44.6576 105.641 44.5736 105.534 44.4661 105.464C44.3585 105.393 44.1916 105.335 44.0605 105.3C43.9294 105.265 43.7747 105.266 43.6324 105.327C43.4901 105.387 43.3478 105.448 43.2413 105.532C43.0877 105.687 42.9577 105.807 42.84 105.986C42.7223 106.166 42.664 106.333 42.6057 106.5C42.5474 106.667 42.5485 106.821 42.5731 106.94C42.5742 107.095 42.6346 107.237 42.7187 107.343C42.8385 107.473 42.9461 107.544 43.0536 107.615Z" fill="white"/>
<path d="M43.985 102.993L44.4793 102.24L44.9096 102.522C44.9197 102.272 44.9063 102.058 44.94 101.773C44.986 101.546 45.032 101.32 45.078 101.094L45.9004 101.326C45.7479 101.636 45.6549 101.934 45.5853 102.196C45.5516 102.482 45.5773 102.756 45.6624 103.017L47.455 104.194L46.9606 104.947L43.985 102.993Z" fill="white"/>
<path d="M47.044 101.615C46.7931 101.45 46.6015 101.273 46.4929 101.048C46.3607 100.859 46.2756 100.598 46.2264 100.36C46.1771 100.122 46.2108 99.8367 46.2803 99.5746C46.3499 99.3124 46.4788 99.0379 46.6436 98.7869C46.7142 98.6794 46.7848 98.5718 46.8913 98.4878C46.9619 98.3802 47.0684 98.2962 47.1513 98.2481C47.2578 98.1641 47.3049 98.0923 47.4114 98.0083C47.4943 97.9602 47.5772 97.912 47.6602 97.8639L46.2261 96.9222L46.9356 96.3106L50.9151 98.9236L50.4207 99.6765L50.1339 99.4881C50.1227 99.5834 50.1114 99.6786 50.1361 99.7974C50.1248 99.8927 50.0901 100.024 50.0553 100.155C50.0205 100.286 49.9857 100.417 49.9151 100.525C49.8445 100.632 49.8097 100.763 49.7391 100.871C49.5743 101.122 49.3737 101.349 49.1843 101.481C48.9713 101.649 48.7461 101.758 48.5085 101.807C48.2709 101.856 48.0334 101.906 47.7712 101.836C47.509 101.767 47.2591 101.756 47.044 101.615ZM47.5619 100.827C47.6695 100.897 47.8006 100.932 47.9317 100.967C48.0627 101.001 48.2174 101 48.3597 100.94C48.502 100.879 48.6444 100.819 48.7508 100.735C48.8808 100.615 49.0109 100.495 49.105 100.352C49.1756 100.244 49.2463 100.137 49.2575 100.041C49.2923 99.9104 49.3629 99.8028 49.3741 99.7076C49.4089 99.5765 49.4201 99.4812 49.3955 99.3625C49.4067 99.2672 49.3821 99.1484 49.3575 99.0296L48.3536 98.3705C48.2349 98.3951 48.1519 98.4433 48.0455 98.5273C47.9625 98.5755 47.8561 98.6595 47.7731 98.7076C47.6902 98.7558 47.6196 98.8634 47.5366 98.9115C47.4896 98.9832 47.3831 99.0672 47.336 99.1389C47.2183 99.3182 47.16 99.4851 47.1017 99.6521C47.0434 99.819 47.0444 99.9737 47.0691 100.092C47.0701 100.247 47.1306 100.389 47.2146 100.496C47.3345 100.626 47.4185 100.732 47.5619 100.827Z" fill="white"/>
<path d="M49.9039 97.1819C49.6888 97.0407 49.5331 96.8871 49.4009 96.6977C49.2687 96.5083 49.1836 96.2472 49.1344 96.0096C49.0852 95.7721 49.1188 95.4863 49.1884 95.2242C49.2579 94.962 49.351 94.6639 49.5393 94.3771C49.7277 94.0903 49.9283 93.8629 50.1771 93.7184C50.39 93.5504 50.6747 93.4294 50.9122 93.3802C51.1498 93.331 51.4232 93.3053 51.6854 93.3748C51.9476 93.4443 52.2098 93.5139 52.4249 93.6551C52.4608 93.6787 52.4966 93.7022 52.5325 93.7257C52.5683 93.7493 52.6042 93.7728 52.64 93.7964L50.7803 96.6286C50.8755 96.6398 51.0066 96.6746 51.1254 96.65C51.2442 96.6254 51.3865 96.5649 51.493 96.4809C51.6353 96.4204 51.7418 96.3364 51.836 96.193C51.966 96.0731 52.0601 95.9297 52.1778 95.7505C52.2955 95.5712 52.3774 95.3684 52.4357 95.2015C52.5176 94.9987 52.5759 94.8317 52.6219 94.6054L53.3603 94.7311C53.3255 94.8622 53.3143 94.9574 53.2795 95.0885C53.2447 95.2196 53.21 95.3507 53.1393 95.4582C53.0687 95.5658 53.0339 95.6969 52.9398 95.8403C52.8692 95.9479 52.775 96.0913 52.7044 96.1988C52.4925 96.5215 52.2448 96.8206 52.0083 97.0245C51.7718 97.2283 51.523 97.3728 51.2619 97.4579C51.0008 97.543 50.7868 97.5564 50.5011 97.5227C50.3812 97.3927 50.119 97.3232 49.9039 97.1819ZM51.5239 94.0897C51.4286 94.0784 51.3334 94.0672 51.2381 94.056C51.1194 94.0806 51.0006 94.1052 50.9176 94.1534C50.8347 94.2015 50.6924 94.262 50.6218 94.3696C50.5153 94.4536 50.4211 94.597 50.3505 94.7045C50.2564 94.8479 50.1622 94.9913 50.1274 95.1224C50.0927 95.2535 50.0579 95.3846 50.059 95.5393C50.0836 95.658 50.0724 95.7533 50.097 95.8721C50.1216 95.9908 50.1698 96.0738 50.2179 96.1567L51.5597 94.1132L51.5239 94.0897Z" fill="white"/>
<path d="M53.3642 91.9119L51.0581 92.1421L51.6937 91.1741L53.0843 91.0097L52.6589 89.7042L53.2709 88.7721L54.0234 90.908L56.3295 90.6778L55.6939 91.6458L54.2439 91.8224L54.7052 93.1515L54.0931 94.0836L53.3642 91.9119Z" fill="white"/>
<path d="M34.4095 116.716L38.2333 119.175L34.5441 120.652L34.4095 116.716ZM30.8549 122.129L34.5441 120.652L34.6786 124.589L30.8549 122.129ZM30.5402 121.358L30.4076 122.81L34.2314 125.27L35.5112 124.571L35.4045 121.217L38.5479 119.946L38.6805 118.494L34.8568 116.035L33.5769 116.734L33.6836 120.087L30.5402 121.358Z" fill="white"/>
</g>
<defs>
<filter id="filter0_f_225_1851" x="-3" y="-3" width="177.308" height="191.49" filterUnits="userSpaceOnUse" color-interpolation-filters="sRGB">
<feFlood flood-opacity="0" result="BackgroundImageFix"/>
<feBlend mode="normal" in="SourceGraphic" in2="BackgroundImageFix" result="shape"/>
<feGaussianBlur stdDeviation="8" result="effect1_foregroundBlur_225_1851"/>
</filter>
<linearGradient id="paint0_linear_225_1851" x1="76.0633" y1="47.2686" x2="91.4553" y2="42.451" gradientUnits="userSpaceOnUse">
<stop stop-color="#B56110"/>
<stop offset="0.1507" stop-color="#B56110"/>
<stop offset="0.4638" stop-color="#E5AD5C"/>
<stop offset="0.6129" stop-color="#F9CC7B"/>
<stop offset="0.7204" stop-color="#FFE6A6"/>
<stop offset="0.8387" stop-color="#F9CC7B"/>
<stop offset="1" stop-color="#B56110"/>
</linearGradient>
<linearGradient id="paint1_linear_225_1851" x1="79.1466" y1="51.2782" x2="87.3328" y2="38.811" gradientUnits="userSpaceOnUse">
<stop stop-color="#B56110"/>
<stop offset="0.1507" stop-color="#B56110"/>
<stop offset="0.4638" stop-color="#E5AD5C"/>
<stop offset="0.6129" stop-color="#F9CC7B"/>
<stop offset="0.7204" stop-color="#FFE6A6"/>
<stop offset="0.8387" stop-color="#F9CC7B"/>
<stop offset="1" stop-color="#B56110"/>
</linearGradient>
<clipPath id="clip0_225_1851">
<rect width="134.757" height="85.349" fill="white" transform="translate(13 125.644) rotate(-56.7104)"/>
</clipPath>
</defs>
</svg>
