<svg width="324" height="273" viewBox="0 0 324 273" fill="none" xmlns="http://www.w3.org/2000/svg">
<path d="M234.419 264.731L17.3718 167.01C8.00115 162.791 3.81812 151.757 8.03706 142.386L64.3618 17.2835C68.5807 7.91286 79.615 3.72984 88.9857 7.94878L306.113 105.706C315.484 109.925 319.667 120.959 315.448 130.33L259.159 255.352C254.824 264.767 243.79 268.95 234.419 264.731Z" fill="black"/>
<path d="M33.7907 152.151C33.23 151.898 32.8216 151.522 32.5293 151.101C32.2371 150.681 32.097 150.136 32.1171 149.664C32.1372 149.191 32.2295 148.558 32.5179 147.917C32.8064 147.277 33.1029 146.832 33.5595 146.46C34.0161 146.088 34.4006 145.875 34.9093 145.815C35.4179 145.755 35.9706 145.812 36.5312 146.064C37.1719 146.352 37.6604 146.765 37.9968 147.302C38.253 147.802 38.357 148.427 38.2648 149.06L37.4718 148.896C37.572 148.459 37.512 147.95 37.2999 147.566C37.0877 147.181 36.7593 146.841 36.2788 146.625C35.8783 146.444 35.4418 146.344 35.0934 146.476C34.7009 146.492 34.3965 146.74 34.092 146.989C33.7876 147.237 33.5272 147.601 33.3109 148.082C33.0945 148.562 32.9943 148.999 33.0103 149.391C33.0262 149.784 33.1222 150.212 33.2904 150.481C33.5386 150.785 33.7869 151.09 34.1873 151.27C34.6679 151.486 35.1405 151.506 35.569 151.41C35.9975 151.314 36.302 151.066 36.6785 150.658L37.3272 151.142C36.9146 151.631 36.3779 151.967 35.8332 152.107C35.0642 152.532 34.4314 152.439 33.7907 152.151Z" fill="white"/>
<path d="M38.268 153.974L42.7864 149.073L43.7475 149.506L43.0735 156.138L42.3526 155.813L42.9265 149.618L43.1668 149.726L38.9888 154.299L38.268 153.974ZM39.8421 153.045L40.1306 152.405L43.0138 153.703L42.7254 154.343L39.8421 153.045Z" fill="white"/>
<path d="M45.3959 157.183L47.9922 151.417L50.2347 152.426C50.3148 152.462 50.3949 152.499 50.3949 152.499C50.3949 152.499 50.5551 152.571 50.6352 152.607C50.9195 152.831 51.1237 153.019 51.2919 153.288C51.46 153.556 51.512 153.868 51.4839 154.145C51.4559 154.421 51.3917 154.778 51.2835 155.018C51.0672 155.498 50.8428 155.783 50.4223 156.075C50.0378 156.287 49.6092 156.383 49.0926 156.247L48.8163 156.219L47.0543 155.425L46.0807 157.588L45.3959 157.183ZM47.3788 154.705L48.9005 155.39C48.9806 155.426 48.9806 155.426 49.0607 155.462C49.1408 155.498 49.2209 155.534 49.2209 155.534C49.4172 155.526 49.6134 155.518 49.8096 155.51C49.9258 155.466 50.078 155.342 50.2302 155.218C50.3824 155.094 50.4545 154.934 50.5267 154.773C50.5988 154.613 50.6709 154.453 50.6629 154.257C50.6549 154.06 50.647 153.864 50.6029 153.748C50.5589 153.632 50.4348 153.48 50.2306 153.291C50.1505 153.255 50.0704 153.219 50.0704 153.219L49.9102 153.147L48.3885 152.462L47.3788 154.705ZM48.8398 158.734L48.7643 155.906L49.5933 155.991L49.7208 159.131L48.8398 158.734Z" fill="white"/>
<path d="M52.1239 160.212L54.7202 154.446L56.4822 155.239C56.5623 155.275 56.6424 155.311 56.8026 155.383C56.9628 155.455 57.1229 155.527 57.203 155.563C57.6475 155.86 57.8958 156.164 58.108 156.549C58.3202 156.933 58.3801 157.442 58.2799 157.878C58.2598 158.351 58.1235 158.868 57.9072 159.348C57.6908 159.829 57.3944 160.273 57.0539 160.602C56.7134 160.93 56.3289 161.142 55.9444 161.354C55.5599 161.566 55.1234 161.466 54.6068 161.33C54.4466 161.258 54.3665 161.222 54.2063 161.15C54.0461 161.078 53.966 161.041 53.8859 161.005L52.1239 160.212ZM53.1332 159.896L54.1744 160.365C54.2545 160.401 54.4147 160.473 54.4948 160.509C54.655 160.581 54.7351 160.617 54.8152 160.653C55.1716 160.717 55.4479 160.745 55.7964 160.613C56.1448 160.481 56.3331 160.277 56.5574 159.993C56.7817 159.708 57.0061 159.424 57.1503 159.104C57.3306 158.703 57.3947 158.347 57.4589 157.99C57.523 157.634 57.471 157.322 57.419 157.009C57.367 156.697 57.0827 156.472 56.8785 156.284C56.7984 156.248 56.6382 156.176 56.5581 156.14C56.4781 156.104 56.3179 156.032 56.2378 155.996L55.1966 155.527L53.1332 159.896Z" fill="white"/>
<path d="M59.1718 163.385L61.7681 157.619L62.4889 157.943L61.335 160.506L64.3785 161.877L65.5324 159.314L66.2532 159.638L63.6569 165.405L62.9361 165.08L64.09 162.517L61.0465 161.147L59.8926 163.71L59.1718 163.385Z" fill="white"/>
<path d="M68.6305 167.837C68.0699 167.584 67.6615 167.208 67.3692 166.787C67.0769 166.367 66.9368 165.822 66.957 165.349C66.9771 164.877 67.0693 164.244 67.3578 163.603C67.6463 162.963 67.9427 162.518 68.3993 162.146C68.856 161.773 69.2405 161.561 69.7491 161.501C70.2577 161.441 70.8104 161.497 71.371 161.75C71.9317 162.002 72.3401 162.379 72.6324 162.799C72.9247 163.22 73.0647 163.765 73.0446 164.237C73.0245 164.71 72.9323 165.342 72.6438 165.983C72.3553 166.624 72.0589 167.068 71.6022 167.441C71.1456 167.813 70.7611 168.025 70.2525 168.085C69.8239 168.181 69.2713 168.125 68.6305 167.837ZM68.9551 167.116C69.3555 167.296 69.792 167.396 70.1405 167.264C70.4889 167.132 70.8374 167 71.1418 166.752C71.4462 166.504 71.7066 166.139 71.923 165.659C72.1393 165.178 72.2395 164.742 72.2236 164.349C72.2076 163.957 72.1917 163.564 71.9435 163.26C71.6952 162.955 71.447 162.651 71.0465 162.471C70.646 162.29 70.2095 162.19 69.8611 162.322C69.4686 162.338 69.1642 162.586 68.8598 162.835C68.5553 163.083 68.295 163.447 68.0786 163.928C67.8622 164.408 67.762 164.845 67.778 165.237C67.7939 165.63 67.8099 166.022 68.0581 166.327C68.3064 166.631 68.5546 166.936 68.9551 167.116Z" fill="white"/>
<path d="M73.9081 170.02L76.5044 164.254L77.2252 164.578L74.9174 169.704L77.5604 170.894L77.272 171.535L73.9081 170.02Z" fill="white"/>
<path d="M79.5946 172.581L82.1909 166.814L83.9529 167.607C84.033 167.643 84.1131 167.679 84.2733 167.752C84.4335 167.824 84.5937 167.896 84.6737 167.932C85.1182 168.228 85.3665 168.533 85.5787 168.917C85.7909 169.302 85.8508 169.81 85.7506 170.247C85.7305 170.719 85.5942 171.236 85.3779 171.717C85.1615 172.197 84.8651 172.642 84.5246 172.97C84.1841 173.298 83.7996 173.51 83.4151 173.723C83.0306 173.935 82.5941 173.835 82.0775 173.698C81.9173 173.626 81.8372 173.59 81.677 173.518C81.5168 173.446 81.4367 173.41 81.3566 173.374L79.5946 172.581ZM80.6039 172.264L81.6451 172.733C81.7252 172.769 81.8854 172.841 81.9655 172.877C82.1257 172.949 82.2058 172.986 82.2859 173.022C82.6423 173.086 82.9186 173.114 83.2671 172.982C83.6155 172.85 83.8038 172.645 84.0281 172.361C84.2524 172.077 84.4768 171.792 84.621 171.472C84.8013 171.072 84.8655 170.715 84.9296 170.359C84.9937 170.002 84.9417 169.69 84.8897 169.378C84.8377 169.065 84.5534 168.841 84.3492 168.653C84.2691 168.617 84.1089 168.544 84.0288 168.508C83.9488 168.472 83.7886 168.4 83.7085 168.364L82.6673 167.895L80.6039 172.264Z" fill="white"/>
<path d="M86.643 175.754L89.2393 169.987L92.8434 171.61L92.5549 172.251L89.5915 170.917L88.7622 172.759L91.245 173.876L90.9565 174.517L88.4737 173.399L87.6082 175.322L90.5716 176.656L90.2832 177.296L86.643 175.754Z" fill="white"/>
<path d="M92.81 178.53L95.4062 172.764L97.6488 173.774C97.7289 173.81 97.809 173.846 97.809 173.846C97.809 173.846 97.9692 173.918 98.0493 173.954C98.3336 174.178 98.5378 174.366 98.7059 174.635C98.8741 174.903 98.9261 175.216 98.898 175.492C98.8699 175.768 98.8058 176.125 98.6976 176.365C98.4812 176.845 98.2569 177.13 97.8363 177.422C97.4518 177.634 97.0233 177.73 96.5067 177.594L96.2303 177.566L94.4683 176.773L93.4947 178.935L92.81 178.53ZM94.7929 176.052L96.3146 176.737C96.3947 176.773 96.3947 176.773 96.4748 176.809C96.5549 176.845 96.635 176.881 96.635 176.881C96.8312 176.873 97.0275 176.865 97.2237 176.857C97.3398 176.813 97.4921 176.689 97.6443 176.565C97.7965 176.441 97.8686 176.281 97.9407 176.121C98.0128 175.96 98.085 175.8 98.077 175.604C98.069 175.408 98.061 175.211 98.017 175.095C97.973 174.979 97.8488 174.827 97.6446 174.639C97.5645 174.603 97.4845 174.567 97.4845 174.567L97.3243 174.494L95.8025 173.809L94.7929 176.052ZM96.2539 180.081L96.1783 177.254L97.0073 177.338L97.1349 180.478L96.2539 180.081Z" fill="white"/>
<path d="M102.741 183.002L105.337 177.235L106.058 177.56L107.082 183.415L109.102 178.93L109.823 179.254L107.226 185.021L106.505 184.696L105.481 178.841L103.462 183.326L102.741 183.002Z" fill="white"/>
<path d="M109.469 186.031L113.987 181.13L114.948 181.562L114.274 188.194L113.553 187.87L114.171 181.79L114.412 181.899L110.234 186.471L109.469 186.031ZM111.043 185.102L111.331 184.461L114.295 185.795L114.006 186.436L111.043 185.102Z" fill="white"/>
<path d="M116.677 189.276L119.273 183.51L119.914 183.798L120.021 189.337L124.239 185.745L124.88 186.034L122.284 191.8L121.643 191.512L123.518 187.347L119.721 190.646L119.32 190.466L119.273 185.436L117.398 189.601L116.677 189.276Z" fill="white"/>
<path d="M125.007 193.026L127.603 187.26L131.207 188.882L130.919 189.523L127.955 188.189L127.126 190.031L129.609 191.149L129.32 191.79L126.837 190.672L125.972 192.594L128.935 193.928L128.647 194.569L125.007 193.026Z" fill="white"/>
<path d="M264.024 115.75L263.447 117.032L259.202 115.12L258.337 117.043L262.181 118.773L261.604 120.055L257.76 118.324L256.858 120.326L261.263 122.31L260.65 123.671L254.724 121.003L258.257 113.154L264.024 115.75Z" fill="white"/>
<path d="M265.996 124.633C267.198 125.174 268.243 124.778 268.82 123.496L270.875 118.931L272.397 119.616L270.342 124.182C269.404 126.264 267.546 126.968 265.383 125.995C263.221 125.021 262.436 123.127 263.374 121.044L265.429 116.479L266.951 117.164L264.896 121.73C264.355 122.931 264.795 124.092 265.996 124.633Z" fill="white"/>
<path d="M275.511 130.458L275.275 127.559C275.195 127.523 275.115 127.487 274.955 127.414L273.193 126.621L272.147 128.944L270.625 128.259L274.159 120.41L277.443 121.888C279.445 122.79 280.214 124.292 279.421 126.054C278.88 127.255 277.922 127.884 276.745 127.931L277.353 131.288L275.511 130.458ZM273.806 125.26L275.568 126.053C276.689 126.558 277.546 126.366 277.979 125.405C278.412 124.443 277.987 123.674 276.866 123.17L275.104 122.376L273.806 125.26Z" fill="white"/>
<path d="M288.171 131.438C287.161 133.68 284.525 134.613 282.203 133.567C279.88 132.522 278.831 129.93 279.841 127.688C280.851 125.445 283.486 124.512 285.809 125.558C288.131 126.604 289.252 129.035 288.171 131.438ZM281.363 128.373C280.714 129.814 281.374 131.557 282.816 132.206C284.257 132.855 286 132.194 286.649 130.753C287.298 129.311 286.637 127.569 285.196 126.92C283.754 126.271 282.084 126.771 281.363 128.373Z" fill="white"/>
<mask id="mask0_225_1259" style="mask-type:luminance" maskUnits="userSpaceOnUse" x="62" y="60" width="35" height="31">
<path d="M96.1788 71.7764L71.5107 60.6702L62.8926 79.812L87.5606 90.9182L96.1788 71.7764Z" fill="white"/>
</mask>
<g mask="url(#mask0_225_1259)">
<path d="M83.476 89.0792L66.9772 81.651C64.7347 80.6413 63.7219 77.9699 64.7316 75.7273L69.6717 64.7548C70.6814 62.5123 73.3528 61.4995 75.5954 62.5092L92.0942 69.9374C94.3367 70.9471 95.3495 73.6185 94.3398 75.8611L89.3997 86.8336C88.39 89.0761 85.7185 90.0889 83.476 89.0792Z" fill="url(#paint0_linear_225_1259)"/>
</g>
<mask id="mask1_225_1259" style="mask-type:luminance" maskUnits="userSpaceOnUse" x="62" y="60" width="35" height="31">
<path d="M96.1788 71.7764L71.5107 60.6702L62.8926 79.812L87.5606 90.9182L96.1788 71.7764Z" fill="white"/>
</mask>
<g mask="url(#mask1_225_1259)">
<path opacity="0.5" d="M93.2495 81.9204L93.4298 81.5199L82.8578 76.7601L84.1198 73.9569L87.4882 72.68L94.9367 76.0335L95.117 75.633L87.5083 72.2074L83.9076 73.5724L81.1045 72.3103L84.2777 65.2623L83.8772 65.082L80.704 72.13L77.9008 70.8679L76.5358 67.2673L69.0072 63.8777L68.827 64.2781L76.2754 67.6317L77.5524 71L76.2903 73.8032L65.7182 69.0434L65.5379 69.4438L76.11 74.2037L74.8479 77.0069L71.1311 78.4159L63.9229 75.1705L63.7426 75.571L71.111 78.8885L75.0601 77.3914L77.7832 78.6174L74.61 85.6654L75.0104 85.8457L78.1836 78.7977L80.9868 80.0598L82.4839 84.0089L89.8523 87.3264L90.0326 86.9259L82.8244 83.6806L81.4154 79.9637L82.6775 77.1605L93.2495 81.9204ZM80.9709 79.6673L75.1242 77.035L77.7566 71.1883L83.6032 73.8206L80.9709 79.6673Z" fill="url(#paint1_linear_225_1259)"/>
</g>
<mask id="mask2_225_1259" style="mask-type:luminance" maskUnits="userSpaceOnUse" x="62" y="60" width="35" height="31">
<path d="M96.1788 71.7764L71.5107 60.6702L62.8926 79.812L87.5606 90.9182L96.1788 71.7764Z" fill="white"/>
</mask>
<g mask="url(#mask2_225_1259)">
<path d="M93.3013 82.2327L93.4816 81.8322L82.9096 77.0724L84.2077 74.1891L87.5761 72.9122L95.0246 76.2657L95.2049 75.8652L87.5962 72.4396L83.9955 73.8046L81.1923 72.5425L84.3656 65.4945L83.9651 65.3142L80.7919 72.3622L77.9887 71.1001L76.6237 67.4995L69.015 64.0738L68.8347 64.4743L76.2832 67.8278L77.5602 71.1962L76.2981 73.9993L65.8061 69.2756L65.6258 69.676L76.1979 74.4359L74.9358 77.2391L71.219 78.6481L64.0108 75.4027L63.8305 75.8032L71.1989 79.1206L75.148 77.6236L77.9512 78.8856L74.7779 85.9337L75.1784 86.114L78.2795 79.2261L81.0827 80.4882L82.5798 84.4373L89.9482 87.7548L90.1285 87.3543L82.9203 84.109L81.5112 80.3922L82.7733 77.589L93.3013 82.2327ZM81.1028 80.0156L75.2562 77.3833L77.8885 71.5366L83.7351 74.169L81.1028 80.0156Z" fill="#231912"/>
</g>
<path d="M101.473 98.5302L100.812 96.788C104.529 95.379 107.405 92.6281 109.028 89.024C110.65 85.4199 110.803 81.4431 109.394 77.7263L111.136 77.0658C112.722 81.2472 112.549 85.6966 110.709 89.7813C108.87 93.8659 105.654 96.9451 101.473 98.5302Z" fill="white"/>
<path d="M99.1906 92.6866L98.5301 90.9444C100.621 90.1518 102.287 88.5902 103.225 86.5078C104.162 84.4254 104.227 82.1427 103.434 80.052L105.176 79.3915C106.145 81.9468 106.105 84.8183 104.987 87.3011C103.869 89.7839 101.826 91.754 99.1906 92.6866Z" fill="white"/>
<path d="M97.3772 87.7282L96.7168 85.986C97.5298 85.6777 98.1747 85.1012 98.4992 84.3803C98.8598 83.5794 98.864 82.7144 98.5558 81.9013L100.298 81.2408C100.782 82.5185 100.758 83.8561 100.181 85.1376C99.6403 86.339 98.6549 87.2439 97.3772 87.7282Z" fill="white"/>
<path d="M117.127 166.456C116.646 166.24 116.318 165.899 115.99 165.559C115.742 165.254 115.601 164.71 115.505 164.281C115.489 163.889 115.546 163.336 115.762 162.856L116.952 160.213C117.168 159.732 117.509 159.404 117.849 159.075C118.27 158.783 118.698 158.687 119.127 158.591C119.555 158.495 120.072 158.631 120.553 158.848C121.033 159.064 121.362 159.404 121.69 159.745C121.938 160.049 122.078 160.594 122.174 161.023C122.27 161.451 122.134 161.968 121.918 162.448L120.728 165.091C120.511 165.572 120.171 165.9 119.83 166.228C119.526 166.477 119.061 166.653 118.553 166.713C118.08 166.693 117.608 166.673 117.127 166.456ZM117.524 165.575C117.764 165.683 118.12 165.748 118.397 165.776C118.629 165.688 118.941 165.636 119.21 165.467C119.442 165.379 119.586 165.059 119.731 164.739L120.957 162.016C121.065 161.775 121.129 161.419 121.157 161.142C121.105 160.83 121.017 160.598 120.849 160.329C120.761 160.097 120.476 159.873 120.156 159.729C119.916 159.62 119.559 159.556 119.247 159.608C118.935 159.66 118.702 159.748 118.434 159.916C118.165 160.085 118.057 160.325 117.913 160.645L116.687 163.368C116.579 163.609 116.515 163.965 116.487 164.241C116.459 164.518 116.627 164.786 116.795 165.054C116.999 165.243 117.203 165.431 117.524 165.575Z" fill="white"/>
<path d="M124.336 169.702C123.855 169.485 123.527 169.145 123.198 168.804C122.95 168.5 122.81 167.955 122.714 167.527C122.698 167.134 122.754 166.581 122.971 166.101L124.16 163.458C124.377 162.977 124.717 162.649 125.058 162.321C125.398 161.992 125.907 161.932 126.335 161.836C126.764 161.74 127.281 161.877 127.761 162.093C128.242 162.309 128.57 162.65 128.898 162.99C129.147 163.295 129.287 163.839 129.383 164.268C129.399 164.66 129.342 165.213 129.126 165.694L127.936 168.337C127.72 168.817 127.379 169.145 127.039 169.474C126.654 169.686 126.27 169.898 125.761 169.958C125.369 169.974 124.816 169.918 124.336 169.702ZM124.732 168.821C124.972 168.929 125.329 168.993 125.605 169.021C125.837 168.933 126.15 168.881 126.418 168.713C126.651 168.625 126.795 168.304 126.939 167.984L128.165 165.261C128.273 165.021 128.337 164.664 128.365 164.388C128.313 164.075 128.225 163.843 128.057 163.575C127.969 163.342 127.685 163.118 127.364 162.974C127.124 162.866 126.768 162.802 126.455 162.854C126.143 162.906 125.911 162.994 125.642 163.162C125.374 163.33 125.186 163.534 125.041 163.855L123.815 166.578C123.707 166.818 123.643 167.174 123.695 167.487C123.747 167.799 123.835 168.031 124.003 168.3C124.288 168.524 124.492 168.712 124.732 168.821Z" fill="white"/>
<path d="M134.38 165.362L135.341 165.795L130.174 172.138L129.213 171.705L134.38 165.362Z" fill="white"/>
<path d="M136.749 175.291C136.269 175.074 135.94 174.734 135.612 174.393C135.364 174.089 135.224 173.544 135.128 173.116C135.112 172.723 135.168 172.171 135.384 171.69L136.574 169.047C136.79 168.566 137.131 168.238 137.471 167.91C137.812 167.581 138.32 167.521 138.749 167.425C139.178 167.329 139.694 167.466 140.175 167.682C140.655 167.898 140.984 168.239 141.312 168.579C141.56 168.884 141.7 169.428 141.796 169.857C141.892 170.286 141.756 170.802 141.54 171.283L140.35 173.926C140.133 174.406 139.793 174.735 139.452 175.063C139.148 175.311 138.683 175.487 138.175 175.547C137.622 175.491 137.15 175.471 136.749 175.291ZM137.146 174.41C137.386 174.518 137.742 174.582 138.019 174.61C138.331 174.558 138.563 174.47 138.832 174.302C139.064 174.214 139.208 173.893 139.353 173.573L140.579 170.85C140.687 170.61 140.751 170.253 140.779 169.977C140.727 169.665 140.639 169.432 140.471 169.164C140.383 168.932 140.098 168.707 139.778 168.563C139.538 168.455 139.181 168.391 138.869 168.443C138.557 168.495 138.324 168.583 138.056 168.751C137.788 168.919 137.679 169.159 137.535 169.48L136.309 172.203C136.201 172.443 136.137 172.8 136.109 173.076C136.081 173.352 136.249 173.621 136.417 173.889C136.621 174.077 136.745 174.229 137.146 174.41Z" fill="white"/>
<path d="M143.958 178.536C143.477 178.32 143.149 177.979 142.82 177.639C142.572 177.334 142.432 176.79 142.336 176.361C142.32 175.969 142.376 175.416 142.593 174.935L143.783 172.292C143.999 171.812 144.339 171.484 144.68 171.155C145.02 170.827 145.529 170.767 145.958 170.671C146.386 170.575 146.903 170.711 147.383 170.927C147.864 171.144 148.192 171.484 148.52 171.825C148.769 172.129 148.909 172.674 149.005 173.102C149.101 173.531 148.965 174.048 148.748 174.528L147.558 177.171C147.342 177.652 147.001 177.98 146.661 178.308C146.357 178.557 145.892 178.733 145.383 178.793C144.911 178.773 144.438 178.752 143.958 178.536ZM144.354 177.655C144.595 177.763 144.951 177.827 145.227 177.855C145.54 177.803 145.772 177.715 146.04 177.547C146.273 177.459 146.417 177.139 146.561 176.818L147.787 174.095C147.895 173.855 147.959 173.499 147.988 173.222C147.936 172.91 147.847 172.678 147.679 172.409C147.591 172.177 147.307 171.953 146.987 171.808C146.746 171.7 146.39 171.636 146.077 171.688C145.765 171.74 145.533 171.828 145.264 171.996C144.996 172.164 144.888 172.405 144.744 172.725L143.518 175.448C143.409 175.688 143.345 176.045 143.317 176.321C143.369 176.634 143.457 176.866 143.625 177.134C143.91 177.359 144.034 177.511 144.354 177.655Z" fill="white"/>
<path d="M105.447 154.744L105.338 154.984L104.457 154.587L104.277 154.988L105.078 155.348L104.97 155.588L104.169 155.228L103.989 155.628L104.95 156.061L104.842 156.301L103.56 155.724L104.317 154.042L105.447 154.744Z" fill="white"/>
<path d="M106.007 154.996L106.155 155.737L106.808 155.357L107.209 155.537L106.288 156.085L106.532 157.255L106.131 157.075L105.983 156.334L105.33 156.714L104.93 156.534L105.967 155.941L105.767 154.888L106.007 154.996Z" fill="white"/>
<path d="M108.522 156.899C108.341 157.299 108.029 157.351 107.629 157.171L107.308 157.027L107.092 157.507L106.772 157.363L107.529 155.681L108.17 155.97C108.57 156.15 108.702 156.498 108.522 156.899ZM108.201 156.755C108.31 156.514 108.185 156.362 107.945 156.254L107.625 156.11L107.336 156.75L107.657 156.895C107.977 157.039 108.129 156.915 108.201 156.755Z" fill="white"/>
<path d="M109.371 156.51L108.614 158.192L108.294 158.048L109.051 156.366L109.371 156.51Z" fill="white"/>
<path d="M110.055 158.841L110.031 158.253L109.951 158.217L109.551 158.036L109.335 158.517L109.094 158.409L109.852 156.727L110.492 157.015C110.893 157.196 111.061 157.464 110.845 157.944C110.736 158.185 110.468 158.353 110.272 158.361L110.34 159.066L110.055 158.841ZM109.659 157.796L110.06 157.976C110.3 158.085 110.532 157.996 110.604 157.836C110.712 157.596 110.588 157.444 110.348 157.336L109.948 157.155L109.659 157.796Z" fill="white"/>
<path d="M112.735 158.025L112.627 158.265L111.666 157.833L111.486 158.233L112.287 158.594L112.178 158.834L111.377 158.473L111.197 158.874L112.158 159.306L112.05 159.547L110.769 158.97L111.526 157.288L112.735 158.025Z" fill="white"/>
<path d="M113.472 158.742C113.311 158.67 113.195 158.714 113.159 158.794C113.015 159.114 113.968 159.351 113.716 159.911C113.571 160.232 113.259 160.284 112.859 160.103C112.618 159.995 112.37 159.691 112.326 159.575L112.594 159.407C112.763 159.675 112.887 159.827 113.127 159.935C113.287 160.007 113.403 159.963 113.475 159.803C113.62 159.483 112.667 159.246 112.919 158.686C113.027 158.445 113.376 158.313 113.776 158.494C113.936 158.566 114.22 158.79 114.345 158.942L114.076 159.11C113.756 158.966 113.552 158.778 113.472 158.742Z" fill="white"/>
<path d="M109.194 159.899L109.086 160.139L108.205 159.742L108.025 160.143L108.826 160.503L108.717 160.744L107.917 160.383L107.736 160.783L108.697 161.216L108.589 161.456L107.308 160.879L108.065 159.198L109.194 159.899Z" fill="white"/>
<path d="M109.835 160.187L110.211 161.705L110.716 160.584L111.036 160.728L110.279 162.41L110.039 162.302L109.663 160.784L109.158 161.905L108.837 161.761L109.595 160.079L109.835 160.187Z" fill="white"/>
<path d="M112.518 162.358C112.301 162.839 111.837 163.015 111.276 162.762L110.635 162.474L111.393 160.792L112.033 161.08C112.558 161.413 112.734 161.878 112.518 162.358ZM112.277 162.25C112.422 161.93 112.29 161.581 111.969 161.437L111.649 161.293L111.18 162.334L111.58 162.514C111.785 162.702 112.133 162.57 112.277 162.25Z" fill="white"/>
<path d="M122.351 155.708L122.442 157.002L123.472 156.213L123.792 156.357L123.035 158.039L122.795 157.931L123.336 156.729L122.422 157.474L122.182 157.366L122.134 156.189L121.593 157.39L121.353 157.282L122.11 155.6L122.351 155.708Z" fill="white"/>
<path d="M125.47 157.979C125.253 158.46 124.673 158.68 124.192 158.464C123.712 158.247 123.455 157.747 123.708 157.186C123.924 156.706 124.505 156.485 124.985 156.702C125.394 157.078 125.65 157.579 125.47 157.979ZM124.028 157.33C123.884 157.651 124.016 157.999 124.336 158.143C124.657 158.288 125.005 158.156 125.149 157.835C125.294 157.515 125.162 157.166 124.841 157.022C124.449 157.038 124.136 157.09 124.028 157.33Z" fill="white"/>
<path d="M126.355 157.511L126.731 159.029L127.236 157.908L127.556 158.052L126.799 159.734L126.559 159.626L126.183 158.108L125.678 159.229L125.357 159.085L126.115 157.403L126.355 157.511Z" fill="white"/>
<path d="M129.078 158.737L128.97 158.977L128.41 158.725L127.76 160.166L127.44 160.022L128.089 158.581L127.529 158.328L127.637 158.088L129.078 158.737Z" fill="white"/>
<path d="M129.639 158.989L129.315 159.71L130.116 160.071L130.44 159.35L130.76 159.494L130.003 161.176L129.683 161.032L129.971 160.391L129.17 160.031L128.882 160.671L128.562 160.527L129.319 158.845L129.639 158.989Z" fill="white"/>
<path d="M132.07 159.795L130.34 161.713L130.019 161.569L131.75 159.651L132.07 159.795Z" fill="white"/>
<path d="M132.214 161.401L131.961 161.962L131.641 161.817L131.893 161.257L131.721 159.927L132.042 160.071L132.162 161.089L133.003 160.504L133.323 160.648L132.214 161.401Z" fill="white"/>
<path d="M134.685 161.261L134.577 161.501L133.696 161.105L133.515 161.505L134.316 161.866L134.208 162.106L133.407 161.745L133.227 162.146L134.188 162.579L134.08 162.819L132.798 162.242L133.556 160.56L134.685 161.261Z" fill="white"/>
<path d="M135.585 163.112L134.785 162.751L134.48 162.999L134.16 162.855L135.638 161.498L135.958 161.642L135.922 163.648L135.601 163.504L135.585 163.112ZM135.614 162.835L135.662 162.086L135.133 162.619L135.614 162.835Z" fill="white"/>
<path d="M137.203 164.225L137.179 163.637L137.099 163.601L136.699 163.42L136.482 163.901L136.162 163.757L136.883 162.155L137.524 162.443C137.924 162.624 138.093 162.892 137.912 163.292C137.804 163.533 137.536 163.701 137.34 163.709L137.408 164.414L137.203 164.225ZM136.807 163.18L137.207 163.36C137.448 163.469 137.68 163.38 137.752 163.22C137.824 163.06 137.736 162.828 137.496 162.72L137.095 162.539L136.807 163.18Z" fill="white"/>
<path d="M102.768 44.304L104.45 45.0612L104.197 45.6219C104.706 45.5619 105.178 45.582 105.651 45.6021C106.088 45.7023 106.524 45.8025 106.924 45.9828C107.485 46.2352 107.93 46.5317 108.258 46.8722C108.666 47.2487 108.879 47.6332 109.019 48.1779C109.331 48.1259 109.643 48.0739 109.956 48.0219C110.268 47.9699 110.545 47.998 110.821 48.0261C111.097 48.0542 111.374 48.0822 111.614 48.1904C111.854 48.2986 112.13 48.3267 112.371 48.4349C112.931 48.6873 113.376 48.9837 113.784 49.3603C114.193 49.7368 114.405 50.1213 114.617 50.5058C114.829 50.8903 114.889 51.399 114.833 51.9516C114.813 52.4242 114.641 53.0209 114.388 53.5815L112.91 56.8653L111.228 56.108L112.598 53.0646C112.778 52.6641 112.843 52.3077 112.871 52.0314C112.935 51.6749 112.883 51.3625 112.795 51.1302C112.707 50.8979 112.538 50.6296 112.37 50.3612C112.166 50.1729 111.882 49.9486 111.561 49.8044C111.401 49.7323 111.241 49.6601 111.045 49.6681C110.885 49.596 110.688 49.604 110.492 49.6119C110.296 49.6199 110.1 49.6279 109.903 49.6359C109.707 49.6438 109.555 49.768 109.323 49.856L107.303 54.3411L105.621 53.5839L106.992 50.5404C107.172 50.14 107.236 49.7835 107.264 49.5072C107.292 49.2309 107.276 48.8384 107.188 48.6061C107.1 48.3738 106.932 48.1054 106.764 47.8371C106.56 47.6488 106.275 47.4245 105.955 47.2802C105.795 47.2081 105.555 47.0999 105.358 47.1079C105.198 47.0358 104.922 47.0077 104.726 47.0157C104.529 47.0236 104.333 47.0316 104.137 47.0396C103.941 47.0476 103.708 47.1356 103.592 47.1797L101.573 51.6648L99.8909 50.9075L102.768 44.304Z" fill="white"/>
<path d="M116.186 54.2948C116.402 53.8142 116.699 53.3697 117.119 53.0774C117.46 52.7491 117.96 52.4929 118.425 52.3168C118.889 52.1406 119.478 52.1167 120.031 52.1729C120.584 52.2291 121.26 52.4374 121.821 52.6899C122.462 52.9783 122.986 53.3108 123.395 53.6874C123.803 54.0639 124.176 54.5205 124.352 54.9851C124.528 55.4498 124.704 55.9144 124.648 56.467C124.628 56.9396 124.571 57.4923 124.355 57.9728C124.139 58.4533 123.842 58.8978 123.422 59.1901C123.081 59.5185 122.581 59.7747 122.116 59.9508C121.651 60.1269 121.063 60.1508 120.51 60.0947C119.957 60.0385 119.281 59.8301 118.72 59.5777C118.079 59.2892 117.555 58.9567 117.146 58.5802C116.738 58.2036 116.365 57.747 116.189 57.2824C116.013 56.8178 115.837 56.3532 115.893 55.8005C115.833 55.2919 115.969 54.7753 116.186 54.2948ZM117.948 55.0881C117.84 55.3283 117.775 55.6848 117.783 55.881C117.755 56.1573 117.807 56.4697 117.976 56.7381C118.144 57.0064 118.312 57.2748 118.516 57.4631C118.8 57.6874 119.085 57.9117 119.485 58.092C119.886 58.2723 120.242 58.3365 120.598 58.4006C120.955 58.4648 121.267 58.4128 121.5 58.3247C121.732 58.2366 122.08 58.1045 122.269 57.9003C122.457 57.6961 122.645 57.4919 122.753 57.2516C122.861 57.0113 122.926 56.6549 122.954 56.3786C122.982 56.1023 122.93 55.7899 122.762 55.5215C122.593 55.2531 122.425 54.9848 122.221 54.7965C121.857 54.5361 121.572 54.3118 121.172 54.1315C120.771 53.9512 120.415 53.8871 120.059 53.8229C119.702 53.7588 119.39 53.8108 119.157 53.8988C118.845 53.9508 118.577 54.119 118.388 54.3232C118.164 54.6075 118.056 54.8478 117.948 55.0881Z" fill="white"/>
<path d="M127.596 55.4822L129.278 56.2395L128.845 57.2006C129.354 57.1406 129.782 57.0445 130.371 57.0206C130.844 57.0407 131.316 57.0609 131.789 57.081L131.584 58.8191C130.907 58.6107 130.275 58.5184 129.722 58.4623C129.133 58.4862 128.589 58.6263 128.088 58.8825L126.285 62.887L124.603 62.1298L127.596 55.4822Z" fill="white"/>
<path d="M131.367 61.2261C131.62 60.6655 131.916 60.221 132.337 59.9287C132.677 59.6004 133.178 59.3441 133.643 59.168C134.107 58.9919 134.696 58.968 135.249 59.0241C135.801 59.0803 136.398 59.2526 136.959 59.505C137.199 59.6132 137.439 59.7214 137.643 59.9097C137.884 60.0178 138.088 60.2061 138.212 60.3583C138.416 60.5466 138.576 60.6187 138.781 60.807C138.905 60.9592 139.029 61.1114 139.153 61.2636L140.595 58.06L142.061 59.2978L138.058 68.1879L136.376 67.4306L136.665 66.7899C136.469 66.7979 136.272 66.8059 136.04 66.8939C135.844 66.9019 135.567 66.8738 135.291 66.8457C135.015 66.8176 134.738 66.7895 134.498 66.6814C134.258 66.5732 133.982 66.5451 133.741 66.4369C133.181 66.1845 132.656 65.852 132.328 65.5115C131.919 65.135 131.627 64.7144 131.451 64.2498C131.275 63.7852 131.099 63.3206 131.155 62.7679C131.211 62.2153 131.151 61.7066 131.367 61.2261ZM133.129 62.0194C133.021 62.2597 132.993 62.536 132.965 62.8123C132.937 63.0887 132.989 63.4011 133.157 63.6694C133.325 63.9378 133.493 64.2061 133.698 64.3944C133.982 64.6187 134.266 64.8431 134.587 64.9873C134.827 65.0955 135.067 65.2037 135.263 65.1957C135.54 65.2238 135.78 65.332 135.976 65.324C136.253 65.3521 136.449 65.3441 136.681 65.256C136.877 65.2481 137.11 65.16 137.342 65.0719L138.352 62.8294C138.264 62.5971 138.139 62.4449 137.935 62.2566C137.811 62.1044 137.607 61.9161 137.483 61.7639C137.359 61.6117 137.118 61.5035 136.994 61.3513C136.834 61.2792 136.63 61.0909 136.47 61.0188C136.069 60.8385 135.713 60.7744 135.356 60.7102C135 60.6461 134.688 60.6981 134.455 60.7861C134.143 60.8381 133.875 61.0063 133.686 61.2105C133.462 61.4948 133.274 61.699 133.129 62.0194Z" fill="white"/>
<path d="M141.255 65.5814C141.471 65.1008 141.731 64.7364 142.072 64.4081C142.412 64.0798 142.913 63.8235 143.378 63.6474C143.842 63.4713 144.431 63.4474 144.984 63.5035C145.536 63.5597 146.169 63.6519 146.81 63.9404C147.45 64.2289 147.975 64.5614 148.347 65.018C148.756 65.3946 149.092 65.9313 149.268 66.3959C149.444 66.8605 149.584 67.4052 149.528 67.9579C149.472 68.5105 149.416 69.0632 149.2 69.5437C149.164 69.6238 149.127 69.7039 149.091 69.784C149.055 69.8641 149.019 69.9442 148.983 70.0243L142.656 67.1756C142.664 67.3718 142.636 67.6482 142.724 67.8805C142.812 68.1128 142.98 68.3811 143.184 68.5694C143.353 68.8378 143.557 69.026 143.877 69.1703C144.161 69.3946 144.482 69.5388 144.882 69.7191C145.283 69.8994 145.719 69.9996 146.076 70.0638C146.512 70.164 146.869 70.2281 147.341 70.2482L147.325 71.7821C147.049 71.754 146.852 71.762 146.576 71.7339C146.3 71.7058 146.023 71.6777 145.783 71.5696C145.543 71.4614 145.266 71.4333 144.946 71.2891C144.706 71.1809 144.385 71.0366 144.145 70.9285C143.424 70.6039 142.74 70.1993 142.251 69.7867C141.763 69.3741 141.39 68.9175 141.134 68.4168C140.878 67.9162 140.782 67.4876 140.758 66.8989C140.982 66.6146 141.038 66.0619 141.255 65.5814ZM148.03 67.8614C148.023 67.6652 148.015 67.469 148.007 67.2727C147.918 67.0404 147.83 66.8081 147.706 66.6559C147.582 66.5037 147.414 66.2353 147.174 66.1272C146.97 65.9389 146.649 65.7947 146.409 65.6865C146.089 65.5422 145.768 65.398 145.492 65.3699C145.216 65.3418 144.939 65.3137 144.627 65.3657C144.394 65.4538 144.198 65.4618 143.966 65.5498C143.734 65.6379 143.581 65.762 143.429 65.8862L148.03 67.8614Z" fill="white"/>
<path d="M153.028 70.8821L151.82 66.2922L153.982 67.2658L154.763 70.0254L157.266 68.7443L159.348 69.6818L155.271 71.8917L156.48 76.4816L154.317 75.508L153.493 72.6323L150.953 73.9935L148.871 73.056L153.028 70.8821Z" fill="white"/>
<path d="M96.7573 40.5381L93.0151 49.0638L88.8393 42.0785L96.7573 40.5381ZM84.7436 35.1292L88.9194 42.1145L81.0014 43.6549L84.7436 35.1292ZM86.2016 34.2444L83.2219 34.4441L79.4797 42.9698L81.3055 45.333L88.054 44.0367L91.6372 49.9847L94.6169 49.785L98.3591 41.2593L96.5333 38.896L89.7848 40.1923L86.2016 34.2444Z" fill="white"/>
<mask id="mask3_225_1259" style="mask-type:luminance" maskUnits="userSpaceOnUse" x="6" y="6" width="312" height="261">
<path d="M234.419 264.731L17.3718 167.01C8.00116 162.791 3.81813 151.757 8.03707 142.386L64.3618 17.2835C68.5807 7.91286 79.615 3.72984 88.9857 7.94878L306.113 105.706C315.484 109.925 319.667 120.959 315.448 130.33L259.159 255.352C254.824 264.767 243.79 268.95 234.419 264.731Z" fill="white"/>
</mask>
<g mask="url(#mask3_225_1259)">
<path opacity="0.5" d="M164.721 37.4231L247.116 174.699L90.8387 204.518M60.2158 191.019L97.048 237.367L230.348 211.941L300.764 329.182L360.017 325.517L433.935 158.342L397.103 111.995L263.767 137.5L193.387 20.1795L134.098 23.9248M403.312 144.844L329.43 311.938L247.036 174.663L403.312 144.844Z" stroke="#EAEAEA" stroke-width="0.4994" stroke-miterlimit="10"/>
</g>
<path d="M213.799 235.219L210.516 233.74L218.215 221.987L221.499 223.466L213.799 235.219Z" fill="white"/>
<path d="M231.322 228.178C230.789 227.649 229.892 226.86 228.611 226.283C225.327 224.804 222.291 225.557 221.174 228.039C220.344 229.882 221.513 231.564 222.506 232.781C223.499 233.999 223.719 234.58 223.467 235.141C223.07 236.022 221.849 235.953 220.888 235.521C219.606 234.944 218.994 234.379 218.053 233.473L217.76 233.053L215.982 235.72C216.638 236.401 217.856 237.334 219.377 238.019C222.821 239.57 225.821 238.898 227.091 236.291C227.74 234.849 227.364 233.331 225.919 231.621C225.05 230.555 224.509 229.83 224.798 229.189C225.05 228.629 225.863 228.321 227.225 228.934C228.266 229.402 228.959 230.003 229.491 230.532L229.74 230.836L231.322 228.178Z" fill="white"/>
<path d="M231.998 238.018C232.562 237.405 234.866 235.071 234.866 235.071C234.866 235.071 235.43 234.458 235.807 234.05L235.542 235.279C235.542 235.279 234.813 238.611 234.605 239.288C234.24 239.027 232.638 238.306 231.998 238.018ZM239.76 231.687L237.197 230.534C236.396 230.173 235.728 230.161 235.047 230.817L224.896 240.311L228.34 241.862C228.34 241.862 229.622 240.512 229.927 240.264C230.327 240.444 233.691 241.959 234.171 242.175C234.035 242.692 233.706 244.278 233.706 244.278L236.75 245.648L239.76 231.687Z" fill="white"/>
<path d="M213.41 219.824L206.312 227.031L206.785 225.125C207.126 222.87 206.213 219.762 204.636 217.704L202.587 230.171L206.031 231.721L216.97 221.33L213.41 219.824Z" fill="white"/>
<path d="M207.243 217.047L201.957 214.667L201.769 214.872C205.465 217.788 207.034 221.577 206.785 225.125L208.296 218.774C208.416 217.865 207.964 217.372 207.243 217.047Z" fill="#FAA61A"/>
<path d="M55.4046 112.274L56.3421 110.192L51.2163 107.884L51.7933 106.603L58.9752 100.492L60.4969 101.178L53.315 107.288L56.839 108.874L58.2453 105.751L59.687 106.4L58.2806 109.523L59.4019 110.028L58.825 111.31L57.7037 110.805L56.7662 112.887L55.4046 112.274Z" fill="white"/>
<path d="M64.427 116.625C63.8663 116.373 63.3417 116.04 62.9694 115.584C62.597 115.127 62.3408 114.626 62.1206 114.046C61.9806 113.501 61.9566 112.912 62.0489 112.279L63.4746 112.536C63.3744 112.973 63.4264 113.285 63.5224 113.714C63.6545 114.062 63.7866 114.41 64.0348 114.715C64.2831 115.019 64.5674 115.244 64.8878 115.388C65.3683 115.604 65.8048 115.704 66.2334 115.608C66.742 115.548 67.0905 115.416 67.511 115.124C67.9316 114.832 68.1559 114.547 68.3723 114.067C68.5886 113.586 68.6888 113.15 68.5928 112.721C68.4968 112.293 68.4007 111.864 68.1085 111.444C67.8162 111.023 67.5319 110.799 67.0513 110.582C66.5708 110.366 66.1343 110.266 65.6256 110.326C65.117 110.386 64.7685 110.518 64.5002 110.686L63.5152 109.665L66.4679 103.962L72.3946 106.631L71.8177 107.912L66.6918 105.604L67.585 105.332L65.1732 109.833L65.0331 109.288C65.4977 109.112 65.9262 109.016 66.515 108.992C67.1037 108.968 67.5041 109.149 67.9046 109.329C68.6254 109.654 69.1139 110.066 69.5303 110.639C69.9467 111.212 70.1308 111.873 70.2349 112.497C70.3028 113.202 70.1745 113.915 69.886 114.556C69.5615 115.277 69.1489 115.765 68.496 116.145C67.8432 116.526 67.2263 116.826 66.5215 116.894C65.8166 116.962 65.0677 116.914 64.427 116.625Z" fill="white"/>
<path d="M74.679 121.241C74.1183 120.988 73.6738 120.692 73.3015 120.235C72.9291 119.779 72.6368 119.358 72.4968 118.813C72.3567 118.269 72.2967 117.76 72.3889 117.127L73.8507 117.304C73.7945 117.857 73.9346 118.401 74.1908 118.902C74.4831 119.322 74.8114 119.663 75.3721 119.915C75.8526 120.132 76.2891 120.232 76.7177 120.136C77.1462 120.04 77.4947 119.908 77.8792 119.696C78.1836 119.447 78.444 119.083 78.6603 118.602C78.9849 117.882 78.997 117.213 78.7769 116.632C78.5567 116.051 78.1042 115.559 77.4635 115.27C77.3033 115.198 77.063 115.09 76.8668 115.098C76.6706 115.106 76.3942 115.078 76.198 115.086L76.0621 113.676L81.8415 111.751L81.7854 112.303L76.2591 109.815L76.836 108.534L83.4035 111.491L82.8265 112.772L77.788 114.549L78.0044 114.069C78.7613 114.313 79.3299 114.762 79.7463 115.335C80.1627 115.907 80.3828 116.488 80.4508 117.193C80.5187 117.898 80.3905 118.611 80.102 119.251C79.7774 119.972 79.3288 120.541 78.756 120.957C78.1832 121.374 77.6025 121.594 76.8976 121.662C76.0325 121.658 75.3998 121.565 74.679 121.241Z" fill="white"/>
<path d="M81.6749 124.101L82.2158 122.9L89.1647 120.731C89.7455 120.511 90.2101 120.334 90.4344 120.05C90.7388 119.802 90.9631 119.518 91.1434 119.117C91.3237 118.717 91.4239 118.28 91.3279 117.852C91.312 117.459 91.1358 116.995 90.8876 116.69C90.6754 116.306 90.311 116.045 89.9106 115.865C89.43 115.649 89.0736 115.584 88.5649 115.644C88.1364 115.74 87.7079 115.836 87.4034 116.085C87.099 116.333 86.7585 116.661 86.5782 117.062L85.1366 116.413C85.4611 115.692 85.8737 115.203 86.4465 114.787C87.0193 114.371 87.6801 114.186 88.385 114.119C89.0899 114.051 89.8027 114.179 90.5236 114.503C91.2444 114.828 91.7329 115.241 92.1493 115.813C92.5657 116.386 92.7859 116.967 92.8538 117.672C92.9218 118.377 92.8295 119.009 92.505 119.73C92.2886 120.211 92.0283 120.575 91.7679 120.939C91.4634 121.188 91.159 121.436 90.7745 121.648C90.39 121.86 89.9254 122.036 89.3807 122.177L83.6373 124.022L83.6935 123.469L89.6202 126.137L89.0433 127.419L81.6749 124.101Z" fill="white"/>
<path d="M104.633 134.727C104.072 134.475 103.628 134.178 103.256 133.721C102.883 133.265 102.591 132.844 102.451 132.3C102.311 131.755 102.251 131.246 102.343 130.613L103.805 130.79C103.749 131.343 103.889 131.887 104.145 132.388C104.437 132.809 104.766 133.149 105.326 133.401C105.807 133.618 106.243 133.718 106.672 133.622C107.1 133.526 107.449 133.394 107.833 133.182C108.138 132.933 108.398 132.569 108.614 132.088C108.939 131.368 108.951 130.699 108.731 130.118C108.511 129.537 108.058 129.045 107.418 128.756C107.257 128.684 107.017 128.576 106.821 128.584C106.625 128.592 106.348 128.564 106.152 128.572L106.016 127.162L111.796 125.237L111.739 125.789L106.213 123.301L106.79 122.02L113.358 124.977L112.781 126.258L107.742 128.035L107.958 127.555C108.715 127.799 109.284 128.248 109.7 128.821C110.117 129.393 110.337 129.974 110.405 130.679C110.473 131.384 110.345 132.097 110.056 132.738C109.732 133.458 109.283 134.027 108.71 134.443C108.137 134.86 107.557 135.08 106.852 135.148C105.987 135.144 105.274 135.015 104.633 134.727Z" fill="white"/>
<path d="M113.871 138.597L118.199 128.986L115.539 129.33L116.224 127.809L118.884 127.465L120.245 128.078L115.233 139.21L113.871 138.597Z" fill="white"/>
<path d="M123.294 143.129C122.573 142.804 122.004 142.356 121.588 141.783C121.172 141.21 120.907 140.513 120.84 139.808C120.772 139.103 120.9 138.391 121.224 137.67L123.027 133.665C123.352 132.944 123.801 132.376 124.373 131.959C124.946 131.543 125.643 131.279 126.348 131.211C127.053 131.143 127.766 131.271 128.486 131.596C129.207 131.92 129.776 132.369 130.192 132.942C130.609 133.514 130.873 134.211 130.941 134.916C131.009 135.621 130.88 136.334 130.556 137.055L128.717 141.139C128.392 141.86 127.944 142.429 127.371 142.845C126.798 143.262 126.101 143.526 125.396 143.594C124.728 143.582 124.015 143.453 123.294 143.129ZM123.871 141.847C124.271 142.028 124.708 142.128 125.216 142.068C125.725 142.008 126.074 141.876 126.494 141.584C126.879 141.371 127.139 141.007 127.355 140.526L129.267 136.282C129.447 135.881 129.547 135.445 129.487 134.936C129.391 134.507 129.295 134.079 129.003 133.658C128.791 133.274 128.426 133.013 127.946 132.797C127.545 132.617 127.109 132.517 126.6 132.577C126.171 132.673 125.743 132.769 125.322 133.061C124.938 133.273 124.677 133.637 124.461 134.118L122.55 138.363C122.37 138.763 122.269 139.2 122.329 139.708C122.425 140.137 122.521 140.566 122.814 140.986C123.106 141.407 123.39 141.631 123.871 141.847Z" fill="white"/>
<path d="M134.507 148.177C133.786 147.853 133.217 147.404 132.801 146.831C132.385 146.258 132.12 145.561 132.052 144.857C131.984 144.152 132.113 143.439 132.437 142.718L134.24 138.714C134.565 137.993 135.013 137.424 135.586 137.008C136.159 136.591 136.856 136.327 137.561 136.259C138.266 136.191 138.979 136.319 139.699 136.644C140.42 136.969 140.989 137.417 141.405 137.99C141.822 138.563 142.086 139.26 142.154 139.965C142.222 140.669 142.093 141.382 141.769 142.103L139.93 146.188C139.605 146.909 139.157 147.477 138.584 147.894C138.011 148.31 137.314 148.574 136.609 148.642C135.94 148.63 135.228 148.502 134.507 148.177ZM135.084 146.896C135.484 147.076 135.921 147.176 136.429 147.116C136.938 147.056 137.286 146.924 137.707 146.632C138.092 146.42 138.352 146.055 138.568 145.575L140.479 141.33C140.66 140.929 140.76 140.493 140.7 139.984C140.604 139.556 140.508 139.127 140.216 138.707C140.003 138.322 139.639 138.062 139.158 137.845C138.758 137.665 138.321 137.565 137.813 137.625C137.384 137.721 136.956 137.817 136.535 138.109C136.151 138.321 135.89 138.686 135.674 139.166L133.763 143.411C133.582 143.812 133.482 144.248 133.542 144.757C133.638 145.185 133.734 145.614 134.027 146.034C134.319 146.455 134.603 146.679 135.084 146.896Z" fill="white"/>
<path d="M160.043 145.803C160.763 146.128 161.332 146.576 161.748 147.149C162.165 147.722 162.429 148.419 162.497 149.124C162.565 149.828 162.401 150.621 162.076 151.342L160.417 155.026C160.057 155.827 159.608 156.396 158.999 156.892C158.426 157.309 157.73 157.573 156.989 157.721C156.284 157.789 155.491 157.625 154.77 157.3C154.129 157.012 153.641 156.599 153.268 156.142C152.816 155.65 152.596 155.069 152.376 154.488L153.813 154.076C153.909 154.505 154.042 154.853 154.334 155.274C154.582 155.578 154.91 155.918 155.311 156.099C155.791 156.315 156.308 156.451 156.737 156.355C157.245 156.295 157.63 156.083 158.05 155.791C158.471 155.499 158.731 155.134 158.912 154.734L159.921 152.491L160.097 152.956C159.561 153.292 159.016 153.432 158.391 153.536C157.802 153.56 157.17 153.468 156.609 153.215C155.888 152.891 155.4 152.478 154.983 151.906C154.567 151.333 154.383 150.672 154.279 150.047C154.211 149.342 154.339 148.629 154.628 147.989C154.916 147.348 155.365 146.779 155.937 146.363C156.51 145.947 157.207 145.682 157.912 145.614C158.609 145.35 159.322 145.478 160.043 145.803ZM159.466 147.084C158.985 146.868 158.549 146.768 158.12 146.864C157.611 146.924 157.263 147.056 156.842 147.348C156.422 147.641 156.161 148.005 155.981 148.405C155.765 148.886 155.665 149.322 155.761 149.751C155.821 150.26 155.953 150.608 156.245 151.029C156.537 151.449 156.902 151.71 157.302 151.89C157.783 152.106 158.219 152.207 158.648 152.11C159.156 152.051 159.505 151.918 159.925 151.626C160.346 151.334 160.606 150.969 160.787 150.569C160.967 150.169 161.067 149.732 161.007 149.223C160.947 148.715 160.815 148.366 160.523 147.946C160.194 147.605 159.866 147.265 159.466 147.084Z" fill="white"/>
<path d="M171.175 150.815C171.896 151.14 172.465 151.588 172.881 152.161C173.298 152.734 173.562 153.431 173.63 154.136C173.698 154.841 173.533 155.634 173.209 156.354L171.55 160.039C171.19 160.839 170.741 161.408 170.132 161.905C169.559 162.321 168.862 162.585 168.121 162.733C167.417 162.801 166.624 162.637 165.903 162.312C165.262 162.024 164.774 161.611 164.401 161.155C163.949 160.662 163.729 160.081 163.508 159.5L164.946 159.088C165.042 159.517 165.174 159.865 165.467 160.286C165.715 160.59 166.043 160.931 166.444 161.111C166.924 161.327 167.441 161.464 167.869 161.368C168.378 161.308 168.762 161.095 169.183 160.803C169.604 160.511 169.864 160.146 170.044 159.746L171.054 157.503L171.23 157.968C170.693 158.304 170.149 158.444 169.524 158.548C168.935 158.572 168.302 158.48 167.742 158.228C167.021 157.903 166.532 157.491 166.116 156.918C165.7 156.345 165.516 155.684 165.412 155.059C165.344 154.354 165.472 153.642 165.76 153.001C166.049 152.36 166.497 151.792 167.07 151.375C167.643 150.959 168.34 150.695 169.045 150.627C169.742 150.362 170.455 150.491 171.175 150.815ZM170.598 152.097C170.118 151.88 169.681 151.78 169.253 151.876C168.744 151.936 168.396 152.068 167.975 152.361C167.555 152.653 167.294 153.017 167.114 153.418C166.898 153.898 166.797 154.335 166.893 154.763C166.953 155.272 167.085 155.62 167.378 156.041C167.67 156.461 168.034 156.722 168.435 156.902C168.915 157.119 169.352 157.219 169.78 157.123C170.289 157.063 170.638 156.931 171.058 156.638C171.479 156.346 171.739 155.982 171.919 155.581C172.1 155.181 172.2 154.744 172.14 154.236C172.08 153.727 171.948 153.379 171.656 152.958C171.327 152.617 170.999 152.277 170.598 152.097Z" fill="white"/>
<path d="M182.228 155.792C182.948 156.116 183.517 156.565 183.933 157.138C184.35 157.71 184.614 158.407 184.682 159.112C184.75 159.817 184.586 160.61 184.261 161.331L182.602 165.015C182.242 165.816 181.793 166.384 181.184 166.881C180.611 167.297 179.915 167.562 179.174 167.71C178.469 167.778 177.676 167.613 176.955 167.289C176.314 167 175.826 166.588 175.453 166.131C175.001 165.638 174.781 165.057 174.561 164.477L175.998 164.064C176.094 164.493 176.227 164.841 176.519 165.262C176.767 165.566 177.095 165.907 177.496 166.087C177.976 166.304 178.493 166.44 178.922 166.344C179.43 166.284 179.815 166.072 180.235 165.779C180.656 165.487 180.916 165.123 181.097 164.722L182.106 162.48L182.282 162.944C181.746 163.281 181.201 163.421 180.576 163.525C179.987 163.549 179.355 163.456 178.794 163.204C178.073 162.879 177.585 162.467 177.168 161.894C176.752 161.321 176.568 160.66 176.464 160.036C176.396 159.331 176.524 158.618 176.813 157.977C177.101 157.336 177.55 156.768 178.123 156.351C178.695 155.935 179.392 155.671 180.097 155.603C180.874 155.375 181.587 155.503 182.228 155.792ZM181.651 157.073C181.17 156.857 180.734 156.756 180.305 156.852C179.796 156.912 179.448 157.045 179.027 157.337C178.607 157.629 178.346 157.994 178.166 158.394C177.95 158.875 177.85 159.311 177.946 159.74C178.006 160.248 178.138 160.597 178.43 161.017C178.722 161.438 179.087 161.698 179.487 161.878C179.968 162.095 180.404 162.195 180.833 162.099C181.341 162.039 181.69 161.907 182.11 161.615C182.531 161.322 182.791 160.958 182.972 160.558C183.152 160.157 183.252 159.721 183.192 159.212C183.132 158.703 183 158.355 182.708 157.934C182.46 157.63 182.131 157.289 181.651 157.073Z" fill="white"/>
<path d="M193.28 160.768C194.001 161.092 194.57 161.541 194.986 162.114C195.403 162.686 195.667 163.383 195.735 164.088C195.803 164.793 195.638 165.586 195.314 166.307L193.655 169.991C193.295 170.792 192.846 171.36 192.237 171.857C191.664 172.273 190.967 172.538 190.226 172.686C189.522 172.754 188.729 172.589 188.008 172.265C187.367 171.976 186.879 171.564 186.506 171.107C186.054 170.614 185.834 170.034 185.613 169.453L187.051 169.041C187.147 169.469 187.279 169.818 187.572 170.238C187.82 170.543 188.148 170.883 188.549 171.063C189.029 171.28 189.546 171.416 189.974 171.32C190.483 171.26 190.867 171.048 191.288 170.755C191.709 170.463 191.969 170.099 192.149 169.698L193.159 167.456L193.335 167.92C192.798 168.257 192.254 168.397 191.629 168.501C191.04 168.525 190.407 168.432 189.847 168.18C189.126 167.856 188.637 167.443 188.221 166.87C187.805 166.297 187.621 165.637 187.517 165.012C187.449 164.307 187.577 163.594 187.865 162.953C188.154 162.313 188.602 161.744 189.175 161.328C189.748 160.911 190.445 160.647 191.15 160.579C191.927 160.351 192.64 160.479 193.28 160.768ZM192.703 162.049C192.223 161.833 191.786 161.733 191.358 161.829C190.849 161.889 190.501 162.021 190.08 162.313C189.66 162.605 189.399 162.97 189.219 163.37C189.003 163.851 188.902 164.287 188.998 164.716C189.058 165.224 189.19 165.573 189.483 165.993C189.775 166.414 190.139 166.674 190.54 166.855C191.02 167.071 191.457 167.171 191.885 167.075C192.394 167.015 192.743 166.883 193.163 166.591C193.584 166.298 193.844 165.934 194.024 165.534C194.205 165.133 194.305 164.697 194.245 164.188C194.185 163.679 194.053 163.331 193.761 162.91C193.512 162.606 193.184 162.265 192.703 162.049Z" fill="white"/>
<path d="M206.938 180.498L211.265 170.887L208.606 171.231L209.291 169.71L211.95 169.366L213.312 169.979L208.299 181.111L206.938 180.498Z" fill="white"/>
<path d="M216.44 185.066C215.72 184.741 215.151 184.293 214.735 183.72C214.318 183.147 214.054 182.45 213.986 181.745C213.918 181.04 214.046 180.328 214.371 179.607L216.174 175.602C216.498 174.881 216.947 174.313 217.52 173.896C218.093 173.48 218.79 173.216 219.494 173.148C220.199 173.08 220.912 173.208 221.633 173.533C222.354 173.857 222.922 174.306 223.339 174.879C223.755 175.451 224.019 176.148 224.087 176.853C224.155 177.558 224.027 178.271 223.702 178.992L221.863 183.076C221.539 183.797 221.09 184.366 220.517 184.782C219.945 185.199 219.248 185.463 218.543 185.531C217.874 185.519 217.161 185.39 216.44 185.066ZM217.017 183.784C217.418 183.965 217.854 184.065 218.363 184.005C218.872 183.945 219.22 183.813 219.641 183.521C220.025 183.308 220.285 182.944 220.502 182.463L222.413 178.219C222.593 177.818 222.694 177.382 222.634 176.873C222.537 176.444 222.441 176.016 222.149 175.595C221.937 175.211 221.573 174.95 221.092 174.734C220.692 174.554 220.255 174.454 219.746 174.514C219.318 174.61 218.889 174.706 218.469 174.998C218.084 175.21 217.824 175.574 217.608 176.055L215.696 180.3C215.516 180.7 215.416 181.137 215.476 181.645C215.572 182.074 215.668 182.503 215.96 182.923C216.252 183.344 216.537 183.568 217.017 183.784Z" fill="white"/>
<path d="M228.802 190.343L229.74 188.26L224.614 185.952L225.191 184.671L232.373 178.561L233.894 179.246L226.712 185.356L230.236 186.943L231.643 183.819L233.004 184.432L231.598 187.556L232.719 188.061L232.142 189.342L231.021 188.837L230.084 190.92L228.802 190.343Z" fill="white"/>
<path d="M238.065 194.802C237.344 194.477 236.775 194.029 236.323 193.536C235.87 193.043 235.686 192.382 235.582 191.758C235.478 191.133 235.607 190.42 235.895 189.779C236.184 189.138 236.632 188.57 237.169 188.234C237.742 187.817 238.403 187.633 239.151 187.681L238.935 188.162C238.483 187.669 238.263 187.088 238.203 186.58C238.179 185.991 238.235 185.438 238.487 184.878C238.776 184.237 239.152 183.828 239.609 183.456C240.146 183.12 240.69 182.98 241.279 182.956C241.868 182.932 242.581 183.06 243.221 183.349C243.862 183.637 244.351 184.05 244.803 184.542C245.175 184.999 245.432 185.5 245.536 186.125C245.64 186.749 245.503 187.266 245.215 187.907C244.962 188.467 244.586 188.876 244.129 189.248C243.673 189.62 243.128 189.76 242.459 189.748L242.676 189.268C243.208 189.797 243.472 190.493 243.576 191.118C243.68 191.743 243.552 192.456 243.263 193.097C242.975 193.737 242.526 194.306 241.99 194.642C241.453 194.979 240.872 195.199 240.167 195.267C239.498 195.255 238.786 195.126 238.065 194.802ZM238.642 193.52C239.283 193.809 239.915 193.901 240.496 193.681C241.077 193.461 241.533 193.088 241.822 192.448C242.146 191.727 242.203 191.174 241.982 190.593C241.726 190.093 241.274 189.6 240.633 189.311C239.992 189.023 239.36 188.931 238.779 189.151C238.234 189.291 237.821 189.78 237.497 190.5C237.208 191.141 237.196 191.81 237.453 192.311C237.709 192.811 238.001 193.232 238.642 193.52ZM241.13 187.994C241.691 188.246 242.243 188.303 242.672 188.207C243.1 188.11 243.557 187.738 243.809 187.177C244.062 186.617 244.082 186.144 243.826 185.644C243.569 185.143 243.205 184.883 242.644 184.63C242.084 184.378 241.531 184.322 241.103 184.418C240.674 184.514 240.217 184.886 239.965 185.447C239.712 186.007 239.692 186.48 239.949 186.98C240.205 187.481 240.569 187.742 241.13 187.994Z" fill="white"/>
<defs>
<linearGradient id="paint0_linear_225_1259" x1="72.5199" y1="61.7964" x2="87.2034" y2="91.3364" gradientUnits="userSpaceOnUse">
<stop stop-color="#B56110"/>
<stop offset="0.1507" stop-color="#B56110"/>
<stop offset="0.4638" stop-color="#E5AD5C"/>
<stop offset="0.6129" stop-color="#F9CC7B"/>
<stop offset="0.7204" stop-color="#FFE6A6"/>
<stop offset="0.8387" stop-color="#F9CC7B"/>
<stop offset="1" stop-color="#B56110"/>
</linearGradient>
<linearGradient id="paint1_linear_225_1259" x1="65.5177" y1="69.2242" x2="93.334" y2="81.7479" gradientUnits="userSpaceOnUse">
<stop stop-color="#B56110"/>
<stop offset="0.1507" stop-color="#B56110"/>
<stop offset="0.4638" stop-color="#E5AD5C"/>
<stop offset="0.6129" stop-color="#F9CC7B"/>
<stop offset="0.7204" stop-color="#FFE6A6"/>
<stop offset="0.8387" stop-color="#F9CC7B"/>
<stop offset="1" stop-color="#B56110"/>
</linearGradient>
</defs>
</svg>
