<svg width="212" height="232" viewBox="0 0 212 232" fill="none" xmlns="http://www.w3.org/2000/svg">
<g clip-path="url(#clip0_122_3437)">
<path d="M204.127 79.4413L111.658 220.267C107.672 226.338 99.5057 228.031 93.4347 224.045L12.2807 170.757C6.2097 166.771 4.51703 158.605 8.50335 152.534L100.972 11.708C104.959 5.63698 113.125 3.94429 119.196 7.93061L200.298 61.1838C206.421 65.2041 208.113 73.3704 204.127 79.4413Z" fill="black"/>
<path d="M102.941 207.192C102.702 207.555 102.394 207.798 102.068 207.955C101.742 208.113 101.346 208.15 101.019 208.083C100.691 208.017 100.26 207.882 99.8448 207.609C99.4297 207.337 99.1524 207.081 98.9433 206.72C98.7342 206.36 98.6289 206.068 98.6436 205.707C98.6582 205.345 98.7589 204.966 98.9974 204.602C99.27 204.187 99.6122 203.892 100.024 203.717C100.402 203.594 100.85 203.591 101.281 203.726L101.078 204.261C100.785 204.142 100.423 204.128 100.131 204.233C99.8392 204.338 99.565 204.53 99.3606 204.841C99.1903 205.1 99.0718 205.394 99.1252 205.652C99.0927 205.927 99.2322 206.167 99.3716 206.408C99.511 206.648 99.7364 206.87 100.048 207.074C100.359 207.279 100.653 207.397 100.928 207.43C101.204 207.462 101.514 207.443 101.72 207.355C101.96 207.216 102.2 207.076 102.37 206.817C102.575 206.506 102.641 206.178 102.622 205.868C102.602 205.559 102.463 205.318 102.22 205.01L102.63 204.611C102.925 204.954 103.1 205.366 103.138 205.761C103.348 206.345 103.214 206.777 102.941 207.192Z" fill="white"/>
<path d="M104.711 204.27L101.792 200.571L102.201 199.949L106.755 201.156L106.448 201.623L102.188 200.534L102.29 200.378L105.017 203.803L104.711 204.27ZM104.237 203.068L103.822 202.795L105.083 200.875L105.498 201.148L104.237 203.068Z" fill="white"/>
<path d="M107.777 199.6L104.041 197.147L104.995 195.694C105.029 195.642 105.063 195.59 105.063 195.59C105.063 195.59 105.131 195.486 105.165 195.434C105.354 195.261 105.508 195.139 105.714 195.052C105.92 194.964 106.143 194.963 106.333 195.013C106.523 195.063 106.765 195.148 106.92 195.25C107.232 195.454 107.405 195.643 107.562 195.969C107.668 196.261 107.687 196.57 107.534 196.916L107.484 197.105L106.735 198.247L108.136 199.167L107.829 199.634L107.777 199.6ZM106.268 197.94L106.915 196.954C106.949 196.903 106.949 196.903 106.983 196.851C107.017 196.799 107.051 196.747 107.051 196.747C107.067 196.609 107.084 196.471 107.1 196.333C107.082 196.247 107.012 196.127 106.943 196.007C106.873 195.887 106.769 195.819 106.665 195.751C106.562 195.683 106.458 195.615 106.32 195.599C106.182 195.582 106.044 195.566 105.958 195.584C105.872 195.602 105.752 195.671 105.598 195.793C105.564 195.845 105.53 195.897 105.53 195.897L105.462 196L104.815 196.986L106.268 197.94ZM109.242 197.369L107.26 197.107L107.411 196.538L109.617 196.798L109.242 197.369Z" fill="white"/>
<path d="M110.639 195.241L106.903 192.788L107.653 191.647C107.687 191.595 107.721 191.543 107.789 191.439C107.857 191.335 107.925 191.231 107.96 191.18C108.216 190.902 108.456 190.763 108.748 190.658C109.04 190.552 109.401 190.567 109.695 190.685C110.023 190.752 110.368 190.904 110.679 191.109C110.991 191.313 111.268 191.57 111.459 191.844C111.65 192.118 111.756 192.41 111.861 192.702C111.967 192.994 111.848 193.287 111.696 193.633C111.627 193.736 111.593 193.788 111.525 193.892C111.457 193.996 111.423 194.048 111.389 194.1L110.639 195.241ZM110.531 194.502L110.974 193.827C111.008 193.775 111.076 193.671 111.11 193.62C111.178 193.516 111.212 193.464 111.246 193.412C111.331 193.17 111.381 192.981 111.328 192.723C111.274 192.465 111.153 192.311 110.979 192.123C110.806 191.934 110.632 191.746 110.425 191.61C110.165 191.44 109.923 191.355 109.682 191.271C109.44 191.186 109.216 191.188 108.993 191.19C108.769 191.191 108.581 191.365 108.427 191.486C108.392 191.538 108.324 191.642 108.29 191.694C108.256 191.746 108.188 191.849 108.154 191.901L107.711 192.576L110.531 194.502Z" fill="white"/>
<path d="M113.637 190.675L109.901 188.222L110.208 187.755L111.868 188.845L113.163 186.873L111.503 185.783L111.809 185.316L115.545 187.769L115.239 188.236L113.578 187.146L112.284 189.118L113.944 190.208L113.637 190.675Z" fill="white"/>
<path d="M117.796 184.568C117.558 184.931 117.25 185.175 116.924 185.332C116.598 185.489 116.202 185.526 115.874 185.46C115.547 185.393 115.115 185.258 114.7 184.986C114.285 184.713 114.008 184.457 113.799 184.097C113.59 183.737 113.484 183.445 113.499 183.083C113.514 182.722 113.614 182.342 113.853 181.979C114.091 181.616 114.4 181.372 114.726 181.215C115.052 181.058 115.447 181.021 115.775 181.087C116.103 181.154 116.534 181.289 116.949 181.561C117.364 181.834 117.641 182.09 117.85 182.45C118.06 182.81 118.165 183.102 118.15 183.464C118.17 183.774 118.069 184.153 117.796 184.568ZM117.329 184.262C117.5 184.002 117.618 183.709 117.565 183.451C117.511 183.193 117.458 182.935 117.318 182.695C117.179 182.455 116.954 182.233 116.642 182.028C116.331 181.824 116.037 181.705 115.762 181.673C115.486 181.64 115.21 181.608 114.97 181.747C114.73 181.887 114.49 182.026 114.32 182.285C114.15 182.545 114.031 182.838 114.084 183.096C114.052 183.372 114.191 183.612 114.331 183.852C114.47 184.092 114.696 184.314 115.007 184.519C115.318 184.723 115.612 184.842 115.887 184.874C116.163 184.907 116.439 184.939 116.679 184.8C116.919 184.66 117.159 184.521 117.329 184.262Z" fill="white"/>
<path d="M119.907 181.127L116.171 178.674L116.478 178.207L119.798 180.388L120.923 178.676L121.338 178.948L119.907 181.127Z" fill="white"/>
<path d="M122.326 177.443L118.59 174.99L119.339 173.849C119.373 173.797 119.408 173.745 119.476 173.641C119.544 173.537 119.612 173.434 119.646 173.382C119.902 173.104 120.142 172.965 120.434 172.86C120.726 172.754 121.088 172.769 121.382 172.887C121.709 172.954 122.054 173.107 122.366 173.311C122.677 173.515 122.954 173.772 123.146 174.046C123.337 174.32 123.442 174.612 123.548 174.904C123.653 175.196 123.535 175.489 123.382 175.835C123.314 175.939 123.28 175.99 123.212 176.094C123.144 176.198 123.109 176.25 123.075 176.302L122.326 177.443ZM122.217 176.704L122.66 176.029C122.694 175.977 122.763 175.874 122.797 175.822C122.865 175.718 122.899 175.666 122.933 175.614C123.017 175.373 123.068 175.183 123.014 174.925C122.961 174.667 122.839 174.513 122.666 174.325C122.492 174.137 122.319 173.948 122.111 173.812C121.852 173.642 121.61 173.557 121.368 173.473C121.127 173.389 120.903 173.39 120.679 173.392C120.455 173.393 120.267 173.567 120.113 173.688C120.079 173.74 120.011 173.844 119.977 173.896C119.943 173.948 119.875 174.052 119.84 174.103L119.398 174.778L122.217 176.704Z" fill="white"/>
<path d="M125.324 172.877L121.588 170.424L123.121 168.089L123.536 168.361L122.276 170.281L123.469 171.065L124.525 169.456L124.94 169.729L123.884 171.337L125.129 172.155L126.39 170.235L126.805 170.508L125.324 172.877Z" fill="white"/>
<path d="M127.948 168.882L124.212 166.428L125.166 164.976C125.2 164.924 125.234 164.872 125.234 164.872C125.234 164.872 125.302 164.768 125.336 164.716C125.524 164.543 125.679 164.421 125.885 164.334C126.091 164.246 126.314 164.244 126.504 164.295C126.694 164.345 126.935 164.429 127.091 164.532C127.402 164.736 127.576 164.924 127.733 165.25C127.838 165.542 127.858 165.852 127.705 166.197L127.655 166.387L126.905 167.529L128.306 168.449L128 168.916C128 168.916 127.948 168.882 127.948 168.882ZM126.438 167.222L127.086 166.236C127.12 166.184 127.12 166.184 127.154 166.132C127.188 166.081 127.222 166.029 127.222 166.029C127.238 165.891 127.255 165.753 127.271 165.615C127.253 165.529 127.183 165.409 127.114 165.289C127.044 165.169 126.94 165.101 126.836 165.033C126.733 164.965 126.629 164.896 126.491 164.88C126.353 164.864 126.215 164.848 126.129 164.866C126.043 164.883 125.923 164.953 125.769 165.075C125.735 165.127 125.701 165.178 125.701 165.178L125.633 165.282L124.986 166.268L126.438 167.222ZM129.413 166.65L127.431 166.389L127.582 165.82L129.788 166.08L129.413 166.65Z" fill="white"/>
<path d="M132.173 162.448L128.437 159.994L128.743 159.527L132.944 159.464L130.038 157.556L130.345 157.089L134.081 159.542L133.774 160.009L129.573 160.073L132.479 161.981L132.173 162.448Z" fill="white"/>
<path d="M135.068 158.037L132.15 154.338L132.559 153.716L137.112 154.924L136.806 155.391L132.631 154.283L132.734 154.128L135.461 157.552L135.068 158.037ZM134.595 156.835L134.18 156.562L135.44 154.643L135.855 154.915L134.595 156.835Z" fill="white"/>
<path d="M138.134 153.367L134.398 150.914L134.671 150.499L138.549 151.04L136.511 147.697L136.783 147.282L140.519 149.735L140.247 150.15L137.549 148.378L139.429 151.395L139.259 151.655L135.743 151.128L138.441 152.9L138.134 153.367Z" fill="white"/>
<path d="M141.678 147.97L137.942 145.517L139.476 143.182L139.891 143.455L138.63 145.375L139.824 146.158L140.88 144.55L141.295 144.822L140.239 146.431L141.484 147.249L142.745 145.329L143.16 145.601L141.678 147.97Z" fill="white"/>
<mask id="mask0_122_3437" style="mask-type:luminance" maskUnits="userSpaceOnUse" x="91" y="34" width="24" height="26">
<path d="M101.875 34.8754L91.3809 50.8572L103.782 59.0002L114.276 43.0184L101.875 34.8754Z" fill="white"/>
</mask>
<g mask="url(#mask0_122_3437)">
<path d="M112.573 45.6128L105.554 56.3018C104.6 57.7547 102.623 58.1645 101.17 57.2105L94.0614 52.5428C92.6085 51.5888 92.1987 49.6117 93.1527 48.1588L100.171 37.4698C101.125 36.0169 103.102 35.6071 104.555 36.5611L111.664 41.2288C113.135 42.2688 113.527 44.1599 112.573 45.6128Z" fill="url(#paint0_linear_122_3437)"/>
</g>
<mask id="mask1_122_3437" style="mask-type:luminance" maskUnits="userSpaceOnUse" x="91" y="34" width="24" height="26">
<path d="M101.875 34.8754L91.3809 50.8572L103.782 59.0002L114.276 43.0184L101.875 34.8754Z" fill="white"/>
</mask>
<g mask="url(#mask1_122_3437)">
<path opacity="0.5" d="M108.715 38.0299L108.455 37.8596L103.958 44.7089L102.142 43.5164L101.625 41.0236L104.794 36.1979L104.534 36.0276L101.298 40.957L101.85 43.6218L100.657 45.4379L96.0912 42.4396L95.9209 42.699L100.487 45.6973L99.2946 47.5134L96.6299 48.0658L93.3931 52.9952L93.6525 53.1655L96.8212 48.3399L99.314 47.8232L101.13 49.0157L96.6327 55.865L96.8922 56.0353L101.39 49.186L103.206 50.3785L103.776 53.1292L100.709 57.7992L100.969 57.9696L104.103 53.1958L103.498 50.2732L104.69 48.4571L109.256 51.4553L109.427 51.1959L104.86 48.1976L106.053 46.3815L108.976 45.7757L112.11 41.002L111.851 40.8316L108.784 45.5016L106.034 46.0717L104.217 44.8793L108.715 38.0299ZM105.725 46.3149L103.238 50.1028L99.4503 47.6156L101.937 43.8277L105.725 46.3149Z" fill="url(#paint1_linear_122_3437)"/>
</g>
<mask id="mask2_122_3437" style="mask-type:luminance" maskUnits="userSpaceOnUse" x="91" y="34" width="24" height="26">
<path d="M101.875 34.8754L91.3809 50.8572L103.782 59.0002L114.276 43.0184L101.875 34.8754Z" fill="white"/>
</mask>
<g mask="url(#mask2_122_3437)">
<path d="M108.887 37.9944L108.627 37.8241L104.13 44.6734L102.314 43.4809L101.797 40.9881L104.966 36.1624L104.706 35.9921L101.47 40.9215L102.022 43.5862L100.829 45.4023L96.2114 42.37L96.041 42.6295L100.607 45.6277L99.4147 47.4438L96.75 47.9962L93.5132 52.9256L93.7727 53.096L96.9413 48.2703L99.4341 47.7536L101.25 48.9461L96.7528 55.7954L97.0123 55.9658L101.51 49.1164L103.326 50.3089L103.896 53.0596L100.83 57.7296L101.089 57.9L104.224 53.1262L103.618 50.2036L104.81 48.3875L109.376 51.3857L109.547 51.1263L104.981 48.128L106.173 46.3119L109.096 45.7061L112.23 40.9324L112.075 40.8302L109.008 45.5001L106.257 46.0703L104.441 44.8778L108.887 37.9944ZM105.983 46.2616L103.496 50.0495L99.7082 47.5623L102.195 43.7744L105.983 46.2616Z" fill="#231912"/>
</g>
<path d="M121.221 34.1374L119.932 34.4047C119.361 31.6539 117.761 29.3409 115.426 27.8077C113.091 26.2745 110.333 25.7256 107.582 26.2957L107.315 25.0063C110.409 24.3649 113.495 24.9804 116.142 26.718C118.736 28.4215 120.545 31.0947 121.221 34.1374Z" fill="white"/>
<path d="M116.837 35.0459L115.547 35.3132C115.226 33.7659 114.322 32.4293 112.973 31.5435C111.624 30.6576 110.038 30.3588 108.49 30.6795L108.223 29.3901C110.114 28.9981 112.114 29.3457 113.722 30.4019C115.331 31.4581 116.445 33.1548 116.837 35.0459Z" fill="white"/>
<path d="M113.193 35.8462L111.903 36.1134C111.778 35.5117 111.448 34.9975 110.981 34.6909C110.462 34.3502 109.859 34.2511 109.257 34.3758L108.99 33.0864C109.935 32.8904 110.866 33.0561 111.696 33.6012C112.423 34.0782 112.997 34.9006 113.193 35.8462Z" fill="white"/>
<path d="M121.184 147.063C120.945 147.427 120.637 147.67 120.277 147.879C119.951 148.036 119.521 148.125 119.159 148.111C118.798 148.096 118.366 147.961 118.003 147.723L115.928 146.36C115.564 146.121 115.321 145.813 115.112 145.453C114.955 145.127 114.866 144.697 114.881 144.335C114.895 143.974 115.03 143.542 115.268 143.179C115.507 142.816 115.815 142.573 116.175 142.364C116.501 142.206 116.931 142.117 117.293 142.132C117.654 142.147 118.086 142.281 118.449 142.52L120.525 143.883C120.888 144.121 121.131 144.43 121.34 144.79C121.497 145.116 121.62 145.494 121.572 145.907C121.609 146.303 121.422 146.7 121.184 147.063ZM120.561 146.654C120.697 146.447 120.782 146.205 120.814 145.93C120.813 145.706 120.759 145.448 120.672 145.242C120.584 145.036 120.411 144.848 120.151 144.677L118.024 143.281C117.816 143.144 117.575 143.06 117.299 143.027C117.023 142.995 116.817 143.082 116.611 143.17C116.405 143.257 116.217 143.431 116.047 143.69C115.91 143.898 115.826 144.139 115.794 144.415C115.761 144.691 115.849 144.897 115.936 145.103C116.024 145.309 116.197 145.497 116.457 145.667L118.584 147.064C118.792 147.201 119.033 147.285 119.309 147.317C119.533 147.316 119.791 147.262 119.997 147.175C120.203 147.087 120.425 146.862 120.561 146.654Z" fill="white"/>
<path d="M124.898 141.408C124.659 141.771 124.351 142.014 123.991 142.223C123.665 142.38 123.235 142.469 122.873 142.455C122.512 142.44 122.08 142.305 121.717 142.067L119.642 140.704C119.278 140.465 119.035 140.157 118.826 139.797C118.669 139.471 118.58 139.041 118.594 138.68C118.609 138.318 118.744 137.887 118.982 137.523C119.221 137.16 119.529 136.917 119.889 136.708C120.215 136.551 120.645 136.462 121.007 136.476C121.368 136.491 121.8 136.626 122.163 136.864L124.238 138.227C124.602 138.466 124.845 138.774 125.054 139.134C125.211 139.46 125.334 139.838 125.286 140.251C125.289 140.699 125.136 141.044 124.898 141.408ZM124.275 140.999C124.411 140.791 124.496 140.55 124.528 140.274C124.527 140.05 124.473 139.792 124.386 139.586C124.298 139.38 124.125 139.192 123.865 139.022L121.738 137.625C121.53 137.488 121.289 137.404 121.013 137.372C120.737 137.339 120.531 137.427 120.325 137.514C120.119 137.602 119.931 137.775 119.761 138.035C119.624 138.242 119.54 138.484 119.507 138.759C119.475 139.035 119.562 139.241 119.65 139.447C119.738 139.653 119.911 139.841 120.17 140.012L122.298 141.409C122.505 141.545 122.747 141.629 123.023 141.662C123.247 141.66 123.504 141.607 123.71 141.519C123.916 141.432 124.139 141.206 124.275 140.999Z" fill="white"/>
<path d="M122.596 132.471L123.073 131.744L127.689 136.929L127.212 137.655L122.596 132.471Z" fill="white"/>
<path d="M131.2 131.808C130.962 132.171 130.654 132.414 130.294 132.623C129.968 132.781 129.538 132.87 129.176 132.855C128.814 132.84 128.383 132.706 128.02 132.467L125.944 131.104C125.581 130.866 125.338 130.558 125.129 130.198C124.972 129.872 124.882 129.442 124.897 129.08C124.912 128.718 125.047 128.287 125.285 127.924C125.524 127.561 125.832 127.317 126.192 127.108C126.518 126.951 126.948 126.862 127.309 126.877C127.671 126.891 128.102 127.026 128.466 127.265L130.541 128.627C130.904 128.866 131.148 129.174 131.357 129.534C131.514 129.86 131.637 130.238 131.588 130.652C131.591 131.099 131.405 131.497 131.2 131.808ZM130.578 131.399C130.714 131.192 130.798 130.95 130.831 130.674C130.829 130.45 130.776 130.193 130.688 129.987C130.601 129.781 130.427 129.592 130.168 129.422L128.04 128.025C127.833 127.889 127.591 127.804 127.316 127.772C127.04 127.739 126.834 127.827 126.628 127.914C126.422 128.002 126.234 128.175 126.063 128.435C125.927 128.642 125.843 128.884 125.81 129.16C125.778 129.436 125.865 129.641 125.953 129.847C126.04 130.053 126.214 130.242 126.473 130.412L128.601 131.809C128.808 131.945 129.05 132.03 129.325 132.062C129.549 132.061 129.807 132.007 130.013 131.92C130.219 131.832 130.407 131.659 130.578 131.399Z" fill="white"/>
<path d="M134.88 126.204C134.642 126.567 134.333 126.81 133.973 127.02C133.647 127.177 133.217 127.266 132.856 127.251C132.494 127.236 132.063 127.102 131.7 126.863L129.624 125.5C129.261 125.262 129.018 124.954 128.808 124.594C128.651 124.268 128.562 123.838 128.577 123.476C128.592 123.114 128.726 122.683 128.965 122.32C129.203 121.957 129.511 121.713 129.872 121.504C130.198 121.347 130.627 121.258 130.989 121.273C131.351 121.287 131.782 121.422 132.145 121.661L134.221 123.023C134.584 123.262 134.827 123.57 135.036 123.93C135.194 124.256 135.317 124.634 135.268 125.048C135.305 125.443 135.119 125.841 134.88 126.204ZM134.257 125.795C134.394 125.588 134.478 125.346 134.511 125.07C134.509 124.846 134.456 124.589 134.368 124.383C134.281 124.177 134.107 123.988 133.848 123.818L131.72 122.421C131.513 122.285 131.271 122.2 130.995 122.168C130.72 122.135 130.514 122.223 130.308 122.31C130.102 122.398 129.913 122.571 129.743 122.831C129.607 123.038 129.522 123.28 129.49 123.556C129.457 123.832 129.545 124.037 129.632 124.243C129.72 124.449 129.893 124.638 130.153 124.808L132.28 126.205C132.488 126.341 132.729 126.426 133.005 126.458C133.229 126.457 133.487 126.403 133.693 126.316C133.899 126.228 134.121 126.003 134.257 125.795Z" fill="white"/>
<path d="M109.861 155.372L110.069 155.509L109.626 156.183L109.937 156.388L110.346 155.765L110.554 155.901L110.145 156.524L110.456 156.728L110.933 156.002L111.141 156.138L110.494 157.124L109.196 156.272L109.81 155.338L109.861 155.372Z" fill="white"/>
<path d="M110.168 154.905L110.788 154.867L110.577 154.283L110.782 153.971L111.132 154.795L112.113 154.771L111.909 155.083L111.237 155.087L111.5 155.705L111.295 156.017L110.927 155.107L110.032 155.113L110.168 154.905Z" fill="white"/>
<path d="M111.98 153.05C112.292 153.255 112.311 153.565 112.107 153.876L111.936 154.135L112.3 154.374L112.129 154.633L110.832 153.781L111.173 153.263C111.429 152.985 111.721 152.88 111.98 153.05ZM111.81 153.31C111.654 153.208 111.483 153.243 111.346 153.451L111.176 153.71L111.643 154.017L111.813 153.757C112.001 153.584 112.018 153.446 111.81 153.31Z" fill="white"/>
<path d="M111.872 152.311L113.169 153.163L112.998 153.422L111.701 152.57L111.872 152.311Z" fill="white"/>
<path d="M113.884 152.073L113.333 152.008L113.299 152.06L113.095 152.371L113.458 152.61L113.287 152.869L111.99 152.017L112.331 151.498C112.535 151.187 112.827 151.082 113.139 151.286C113.346 151.422 113.434 151.628 113.383 151.818L113.969 151.831L113.833 152.039L113.884 152.073ZM112.887 152.235L113.091 151.924C113.228 151.716 113.192 151.544 113.036 151.442C112.881 151.34 112.709 151.375 112.573 151.583L112.368 151.894L112.887 152.235Z" fill="white"/>
<path d="M113.541 149.768L113.749 149.905L113.306 150.579L113.617 150.784L114.026 150.161L114.234 150.297L113.825 150.92L114.136 151.124L114.613 150.398L114.821 150.534L114.173 151.52L112.876 150.668L113.489 149.734L113.541 149.768Z" fill="white"/>
<path d="M114.226 149.178C114.158 149.282 114.142 149.42 114.194 149.454C114.453 149.624 114.74 148.847 115.207 149.154C115.467 149.324 115.434 149.6 115.264 149.86C115.128 150.067 114.888 150.206 114.716 150.242L114.576 150.002C114.782 149.915 114.988 149.827 115.09 149.671C115.193 149.516 115.175 149.43 115.071 149.362C114.812 149.191 114.524 149.968 114.057 149.661C113.85 149.525 113.83 149.215 114.001 148.956C114.103 148.8 114.291 148.627 114.463 148.591L114.602 148.831C114.448 148.953 114.294 149.074 114.226 149.178Z" fill="white"/>
<path d="M114.596 152.912L114.803 153.048L114.36 153.722L114.672 153.927L115.081 153.304L115.288 153.44L114.879 154.063L115.191 154.268L115.668 153.541L115.875 153.677L115.228 154.663L113.931 153.812L114.544 152.878L114.596 152.912Z" fill="white"/>
<path d="M114.937 152.393L116.262 152.297L115.38 151.718L115.55 151.459L116.848 152.311L116.711 152.518L115.386 152.613L116.268 153.193L116.098 153.452L114.801 152.6L114.937 152.393Z" fill="white"/>
<path d="M117.213 150.397C117.576 150.635 117.665 151.065 117.393 151.48L117.052 151.999L115.755 151.147L116.096 150.629C116.334 150.265 116.798 150.124 117.213 150.397ZM117.043 150.656C116.783 150.486 116.491 150.591 116.355 150.799L116.185 151.058L117.015 151.604L117.219 151.292C117.322 151.137 117.25 150.793 117.043 150.656Z" fill="white"/>
<path d="M112.845 141.216L113.948 141.346L113.39 140.386L113.561 140.126L114.858 140.978L114.722 141.186L113.788 140.573L114.293 141.499L114.191 141.654L113.174 141.507L114.108 142.12L113.972 142.327L112.675 141.476L112.845 141.216Z" fill="white"/>
<path d="M115.239 138.927C115.602 139.165 115.709 139.681 115.471 140.044C115.232 140.408 114.768 140.549 114.353 140.276C113.99 140.037 113.883 139.522 114.122 139.158C114.412 138.829 114.876 138.688 115.239 138.927ZM114.49 140.068C114.749 140.239 115.041 140.133 115.177 139.926C115.348 139.666 115.242 139.374 115.035 139.238C114.775 139.068 114.483 139.173 114.347 139.381C114.211 139.588 114.282 139.932 114.49 140.068Z" fill="white"/>
<path d="M114.889 138.103L116.214 138.008L115.332 137.428L115.502 137.169L116.8 138.021L116.663 138.228L115.338 138.324L116.221 138.903L116.05 139.162L114.753 138.311L114.889 138.103Z" fill="white"/>
<path d="M116.286 135.975L116.493 136.112L116.221 136.527L117.311 137.242L117.174 137.45L116.085 136.734L115.812 137.149L115.604 137.013L116.286 135.975Z" fill="white"/>
<path d="M116.558 135.56L117.129 135.935L117.538 135.312L116.967 134.938L117.137 134.678L118.434 135.53L118.264 135.789L117.745 135.449L117.336 136.071L117.855 136.412L117.685 136.672L116.388 135.82L116.558 135.56Z" fill="white"/>
<path d="M117.543 133.608L118.881 135.303L118.745 135.511L117.407 133.815L117.543 133.608Z" fill="white"/>
<path d="M119.008 133.753L119.423 134.025L119.252 134.285L118.837 134.012L117.648 133.9L117.819 133.64L118.68 133.686L118.296 132.914L118.466 132.655L119.008 133.753Z" fill="white"/>
<path d="M119.148 131.617L119.355 131.753L118.912 132.428L119.224 132.632L119.632 132.009L119.84 132.146L119.431 132.768L119.742 132.973L120.219 132.246L120.427 132.382L119.78 133.368L118.482 132.517L119.096 131.583L119.148 131.617Z" fill="white"/>
<path d="M120.935 131.157L120.526 131.779L120.718 132.054L120.547 132.313L119.625 130.89L119.795 130.631L121.467 130.912L121.263 131.223L120.935 131.157ZM120.608 131.09L119.952 130.957L120.335 131.505L120.608 131.09Z" fill="white"/>
<path d="M122.046 130.03L121.547 129.999L121.513 130.051L121.308 130.362L121.672 130.601L121.501 130.86L120.204 130.008L120.545 129.489C120.749 129.178 121.041 129.073 121.353 129.277C121.56 129.413 121.648 129.619 121.597 129.809L122.183 129.822L122.046 130.03ZM121.083 130.14L121.288 129.829C121.424 129.621 121.388 129.449 121.232 129.347C121.077 129.245 120.905 129.28 120.769 129.488L120.564 129.799L121.083 130.14Z" fill="white"/>
<path d="M181.031 90.6386L179.634 92.766L172.287 86.0856L173.684 83.9582L181.031 90.6386Z" fill="white"/>
<path d="M178.066 77.6263C177.637 77.9392 176.987 78.4775 176.442 79.3077C175.045 81.4351 175.232 83.6376 176.841 84.6938C178.034 85.4774 179.338 84.8485 180.299 84.2909C181.259 83.7332 181.689 83.6441 182.052 83.8826C182.623 84.2574 182.439 85.1023 182.03 85.725C181.485 86.5552 181.023 86.92 180.287 87.4761L179.961 87.6333L181.624 89.1712C182.172 88.7886 182.959 88.0428 183.606 87.0569C185.072 84.8257 184.936 82.6573 183.258 81.4811C182.324 80.8678 181.222 80.9615 179.868 81.7802C179.028 82.2682 178.462 82.5648 178.047 82.2922C177.683 82.0537 177.559 81.452 178.138 80.5699C178.581 79.8953 179.077 79.4787 179.505 79.1658L179.745 79.0264L178.066 77.6263Z" fill="white"/>
<path d="M185.042 78.1972C184.677 77.7349 183.304 75.8679 183.304 75.8679C183.304 75.8679 182.939 75.4056 182.696 75.0974L183.524 75.4187C183.524 75.4187 185.769 76.2983 186.218 76.519C185.996 76.7443 185.314 77.7821 185.042 78.1972ZM181.487 72.0757L180.396 73.7361C180.056 74.255 179.973 74.7204 180.355 75.2687L185.853 83.4083L187.318 81.1771C187.318 81.1771 186.519 80.1324 186.379 79.8923C186.55 79.6329 187.981 77.4536 188.185 77.1422C188.53 77.2948 189.601 77.7005 189.601 77.7005L190.895 75.7287L181.487 72.0757Z" fill="white"/>
<path d="M170.243 89.1991L174.484 94.9543L173.206 94.4123C171.671 93.9237 169.4 94.2151 167.788 95.0872L176.261 97.9032L177.726 95.672L171.69 86.8819L170.243 89.1991Z" fill="white"/>
<path d="M167.62 93.1944L165.371 96.619L165.493 96.7731C167.939 94.5178 170.758 93.8439 173.206 94.4121L168.942 92.6514C168.32 92.4663 167.926 92.7274 167.62 93.1944Z" fill="#FAA61A"/>
<path d="M70.3355 183.109L68.9864 182.223L66.8058 185.544L65.9756 184.999L62.5097 179.307L63.157 178.322L66.6229 184.013L68.1221 181.73L66.0984 180.401L66.6776 179.519L68.7013 180.848L69.1783 180.122L70.0085 180.667L69.5315 181.393L70.8806 182.279L70.3355 183.109Z" fill="white"/>
<path d="M74.4442 177.192C74.2057 177.556 73.9154 177.885 73.5553 178.094C73.1952 178.303 72.8173 178.426 72.3875 178.515C71.9577 178.604 71.5782 178.504 71.1468 178.369L71.4844 177.402C71.7779 177.521 72.0017 177.519 72.3115 177.5C72.5694 177.447 72.8273 177.393 73.0673 177.254C73.3074 177.114 73.4956 176.941 73.6318 176.733C73.8363 176.422 73.9547 176.128 73.9353 175.819C73.95 175.457 73.8966 175.199 73.7394 174.873C73.5821 174.547 73.4086 174.359 73.0973 174.154C72.786 173.95 72.4925 173.832 72.1827 173.851C71.8729 173.87 71.5632 173.89 71.2371 174.047C70.9111 174.204 70.7229 174.378 70.5185 174.689C70.3141 175 70.1956 175.294 70.1809 175.655C70.1662 176.017 70.2197 176.275 70.3072 176.481L69.4848 177.055L65.8332 174.36L68.3545 170.52L69.1847 171.066L66.936 174.49L66.8454 173.837L69.7186 176.02L69.3229 176.057C69.2516 175.714 69.2322 175.404 69.281 174.99C69.3298 174.577 69.5001 174.317 69.6705 174.058C69.9771 173.591 70.3194 173.296 70.7654 173.069C71.2115 172.842 71.6932 172.787 72.1408 172.784C72.6403 172.815 73.1236 172.984 73.5387 173.256C74.0057 173.563 74.3007 173.905 74.4936 174.403C74.6865 174.901 74.8275 175.365 74.7965 175.864C74.8856 176.294 74.7168 176.777 74.4442 177.192Z" fill="white"/>
<path d="M78.7532 170.517C78.5147 170.88 78.2584 171.157 77.8983 171.366C77.5382 171.575 77.2122 171.733 76.8164 171.77C76.4207 171.807 76.059 171.792 75.6277 171.657L75.9134 170.657C76.2929 170.758 76.6886 170.72 77.0665 170.597C77.4444 170.474 77.6666 170.249 77.9051 169.885C78.1096 169.574 78.228 169.281 78.2087 168.971C78.2412 168.695 78.1358 168.403 78.0305 168.111C77.8911 167.871 77.6657 167.649 77.3544 167.445C76.8874 167.138 76.4219 167.055 75.9921 167.144C75.5623 167.233 75.1682 167.494 74.8956 167.909C74.8275 168.013 74.7252 168.169 74.709 168.307C74.6927 168.444 74.6424 168.634 74.6262 168.772L73.6271 168.71L72.926 164.463L73.3055 164.563L70.9546 168.143L70.1243 167.598L72.9182 163.343L73.7484 163.889L74.4286 167.603L74.1173 167.398C74.372 166.897 74.7484 166.55 75.1944 166.323C75.6405 166.096 76.0703 166.007 76.5698 166.038C77.0693 166.069 77.5525 166.238 77.9676 166.511C78.4346 166.817 78.7816 167.193 79.0085 167.64C79.2355 168.086 79.3246 168.515 79.2936 169.015C79.2627 169.514 79.0258 170.101 78.7532 170.517Z" fill="white"/>
<path d="M81.5448 166.038L80.7665 165.527L80.025 160.436C79.9359 160.006 79.8647 159.662 79.6912 159.474C79.5177 159.286 79.3783 159.046 79.1188 158.875C78.8594 158.705 78.5659 158.587 78.2561 158.606C77.9804 158.573 77.6366 158.645 77.3965 158.784C77.1046 158.89 76.8823 159.115 76.712 159.374C76.5075 159.686 76.4231 159.927 76.4085 160.289C76.4278 160.599 76.4472 160.908 76.5866 161.149C76.726 161.389 76.9173 161.663 77.1768 161.833L76.5635 162.767C76.0965 162.46 75.8014 162.118 75.5745 161.672C75.3476 161.226 75.2925 160.744 75.3235 160.245C75.3544 159.745 75.5232 159.262 75.8299 158.795C76.1365 158.328 76.4788 158.033 76.9248 157.806C77.3709 157.579 77.8007 157.49 78.3002 157.521C78.7997 157.552 79.2311 157.687 79.6981 157.993C80.0094 158.198 80.2348 158.42 80.4601 158.642C80.5995 158.882 80.739 159.122 80.8443 159.414C80.9496 159.706 81.0209 160.05 81.0581 160.446L81.7074 164.659L81.3279 164.559L83.8491 160.719L84.6794 161.264L81.5448 166.038Z" fill="white"/>
<path d="M91.4954 151.11C91.2569 151.473 91.0006 151.751 90.6405 151.96C90.2804 152.169 89.9544 152.326 89.5586 152.363C89.1629 152.4 88.8012 152.386 88.3699 152.251L88.6556 151.25C89.035 151.351 89.4308 151.314 89.8087 151.191C90.1866 151.068 90.4088 150.842 90.6473 150.479C90.8518 150.168 90.9702 149.874 90.9508 149.564C90.9833 149.289 90.878 148.997 90.7727 148.705C90.6333 148.465 90.4079 148.242 90.0965 148.038C89.6296 147.731 89.1641 147.649 88.7343 147.738C88.3045 147.827 87.9104 148.088 87.6378 148.503C87.5696 148.607 87.4674 148.762 87.4512 148.9C87.4349 149.038 87.3846 149.228 87.3683 149.366L86.3693 149.304L85.6682 145.056L86.0477 145.157L83.6286 148.841L82.7984 148.296L85.5922 144.041L86.4224 144.586L87.1026 148.3L86.7913 148.096C87.0461 147.594 87.4224 147.248 87.8685 147.021C88.3145 146.794 88.7443 146.705 89.2438 146.735C89.7433 146.766 90.2266 146.935 90.6417 147.208C91.1087 147.514 91.4557 147.891 91.6826 148.337C91.9095 148.783 91.9986 149.213 91.9677 149.712C91.9367 150.212 91.7679 150.695 91.4954 151.11Z" fill="white"/>
<path d="M95.2419 145.179L89.0153 141.09L88.9597 142.984L87.9738 142.337L88.0294 140.443L88.6086 139.561L95.8211 144.296L95.2419 145.179Z" fill="white"/>
<path d="M99.5197 139.002C99.2131 139.469 98.8368 139.816 98.3907 140.043C97.9447 140.27 97.4289 140.377 96.9294 140.346C96.4299 140.315 95.9466 140.146 95.4796 139.84L92.8333 138.102C92.3663 137.795 92.0193 137.419 91.7924 136.973C91.5655 136.527 91.4586 136.011 91.4895 135.512C91.5204 135.012 91.6892 134.529 91.9959 134.062C92.3025 133.595 92.6789 133.248 93.1249 133.021C93.571 132.794 94.0867 132.687 94.5862 132.718C95.0857 132.749 95.569 132.918 96.036 133.225L98.6823 134.962C99.1493 135.269 99.4963 135.645 99.7232 136.091C99.9502 136.537 100.057 137.053 100.026 137.553C99.9952 138.052 99.8264 138.535 99.5197 139.002ZM98.6376 138.423C98.808 138.164 98.9265 137.87 98.9411 137.508C98.9218 137.199 98.9024 136.889 98.7451 136.563C98.6398 136.271 98.4144 136.049 98.1031 135.844L95.4049 134.073C95.1454 133.902 94.8519 133.784 94.4903 133.769C94.1805 133.788 93.8707 133.808 93.5447 133.965C93.2528 134.07 93.0305 134.296 92.8261 134.607C92.6557 134.867 92.5373 135.16 92.5226 135.522C92.542 135.831 92.5613 136.141 92.7186 136.467C92.8239 136.759 93.0493 136.981 93.3606 137.186L96.1107 138.992C96.3702 139.162 96.6637 139.28 97.0253 139.295C97.3351 139.276 97.6449 139.256 97.9709 139.099C98.211 138.96 98.4332 138.734 98.6376 138.423Z" fill="white"/>
<path d="M104.256 131.79C103.949 132.257 103.573 132.604 103.127 132.831C102.681 133.057 102.165 133.164 101.666 133.133C101.166 133.102 100.683 132.934 100.216 132.627L97.5696 130.889C97.1026 130.583 96.7557 130.206 96.5287 129.76C96.3018 129.314 96.1949 128.799 96.2258 128.299C96.2568 127.8 96.4256 127.316 96.7322 126.849C97.0388 126.382 97.4152 126.035 97.8612 125.808C98.3073 125.581 98.8231 125.475 99.3226 125.506C99.8221 125.536 100.305 125.705 100.772 126.012L103.419 127.75C103.886 128.056 104.233 128.432 104.46 128.879C104.686 129.325 104.793 129.84 104.762 130.34C104.732 130.839 104.563 131.323 104.256 131.79ZM103.374 131.21C103.544 130.951 103.663 130.657 103.677 130.296C103.658 129.986 103.639 129.676 103.481 129.35C103.376 129.058 103.151 128.836 102.839 128.632L100.141 126.86C99.8818 126.69 99.5883 126.571 99.2266 126.556C98.9168 126.576 98.6071 126.595 98.281 126.752C97.9891 126.858 97.7668 127.083 97.5624 127.394C97.3921 127.654 97.2736 127.947 97.2589 128.309C97.2783 128.619 97.2977 128.929 97.4549 129.255C97.5602 129.547 97.7856 129.769 98.0969 129.973L100.847 131.779C101.106 131.949 101.4 132.068 101.762 132.083C102.071 132.063 102.381 132.044 102.707 131.887C102.981 131.695 103.204 131.47 103.374 131.21Z" fill="white"/>
<path d="M105.387 113.67C105.693 113.203 106.07 112.856 106.516 112.629C106.962 112.402 107.477 112.295 107.977 112.326C108.476 112.357 109.012 112.56 109.479 112.866L111.865 114.434C112.384 114.774 112.731 115.151 113.01 115.631C113.237 116.077 113.344 116.593 113.365 117.126C113.334 117.626 113.131 118.161 112.825 118.628C112.552 119.043 112.21 119.338 111.85 119.547C111.455 119.808 111.026 119.897 110.596 119.986L110.468 118.937C110.778 118.918 111.036 118.864 111.362 118.707C111.602 118.568 111.876 118.376 112.046 118.117C112.251 117.805 112.403 117.46 112.384 117.15C112.398 116.789 112.293 116.497 112.136 116.171C111.979 115.845 111.753 115.622 111.494 115.452L110.041 114.498L110.385 114.427C110.56 114.839 110.597 115.235 110.6 115.682C110.551 116.096 110.417 116.527 110.178 116.89C109.872 117.357 109.529 117.652 109.083 117.879C108.637 118.106 108.155 118.161 107.708 118.164C107.208 118.133 106.725 117.965 106.31 117.692C105.843 117.385 105.548 117.043 105.321 116.597C105.094 116.151 104.987 115.635 105.018 115.136C104.945 114.568 105.114 114.085 105.387 113.67ZM106.269 114.249C106.064 114.56 105.946 114.854 105.965 115.164C105.951 115.525 106.004 115.783 106.161 116.109C106.318 116.435 106.544 116.657 106.803 116.828C107.115 117.032 107.408 117.151 107.718 117.131C108.08 117.146 108.337 117.093 108.663 116.935C108.989 116.778 109.212 116.553 109.382 116.293C109.586 115.982 109.705 115.688 109.686 115.379C109.666 115.069 109.647 114.759 109.49 114.433C109.332 114.107 109.107 113.885 108.848 113.714C108.588 113.544 108.295 113.426 107.933 113.411C107.571 113.396 107.313 113.45 106.987 113.607C106.695 113.712 106.473 113.938 106.269 114.249Z" fill="white"/>
<path d="M110.122 106.457C110.429 105.99 110.805 105.643 111.251 105.416C111.697 105.189 112.213 105.082 112.712 105.113C113.212 105.144 113.747 105.347 114.214 105.654L116.601 107.221C117.12 107.562 117.467 107.938 117.746 108.418C117.972 108.864 118.079 109.38 118.1 109.914C118.069 110.413 117.867 110.948 117.56 111.415C117.287 111.83 116.945 112.125 116.585 112.335C116.191 112.596 115.761 112.685 115.331 112.774L115.203 111.724C115.513 111.705 115.771 111.652 116.097 111.494C116.337 111.355 116.611 111.164 116.782 110.904C116.986 110.593 117.139 110.247 117.119 109.938C117.134 109.576 117.028 109.284 116.871 108.958C116.714 108.632 116.489 108.41 116.229 108.239L114.776 107.285L115.12 107.214C115.295 107.626 115.332 108.022 115.336 108.469C115.287 108.883 115.152 109.314 114.914 109.678C114.607 110.145 114.265 110.44 113.819 110.667C113.373 110.894 112.891 110.949 112.443 110.952C111.944 110.921 111.46 110.752 111.045 110.479C110.578 110.173 110.283 109.83 110.056 109.384C109.829 108.938 109.722 108.423 109.753 107.923C109.681 107.355 109.849 106.872 110.122 106.457ZM111.004 107.036C110.8 107.348 110.681 107.641 110.701 107.951C110.686 108.313 110.739 108.57 110.897 108.896C111.054 109.223 111.279 109.445 111.539 109.615C111.85 109.82 112.143 109.938 112.453 109.919C112.815 109.933 113.073 109.88 113.399 109.723C113.725 109.565 113.947 109.34 114.117 109.081C114.322 108.769 114.44 108.476 114.421 108.166C114.402 107.856 114.382 107.546 114.225 107.22C114.068 106.894 113.842 106.672 113.583 106.502C113.323 106.331 113.03 106.213 112.668 106.198C112.307 106.184 112.049 106.237 111.723 106.394C111.431 106.5 111.208 106.725 111.004 107.036Z" fill="white"/>
<path d="M114.858 99.2447C115.165 98.7777 115.541 98.4307 115.987 98.2038C116.433 97.9769 116.949 97.87 117.449 97.9009C117.948 97.9318 118.483 98.1347 118.95 98.4413L121.337 100.009C121.856 100.349 122.203 100.726 122.482 101.206C122.709 101.652 122.816 102.168 122.837 102.701C122.806 103.201 122.603 103.736 122.296 104.203C122.024 104.618 121.681 104.913 121.321 105.122C120.927 105.383 120.497 105.472 120.067 105.561L119.94 104.512C120.249 104.493 120.507 104.439 120.833 104.282C121.073 104.143 121.348 103.951 121.518 103.692C121.722 103.38 121.875 103.035 121.855 102.725C121.87 102.364 121.765 102.072 121.608 101.746C121.45 101.42 121.225 101.197 120.966 101.027L119.513 100.073L119.856 100.002C120.032 100.414 120.069 100.809 120.072 101.257C120.023 101.671 119.888 102.102 119.65 102.465C119.343 102.932 119.001 103.227 118.555 103.454C118.109 103.681 117.627 103.736 117.18 103.739C116.68 103.708 116.197 103.54 115.782 103.267C115.315 102.96 115.02 102.618 114.793 102.172C114.566 101.726 114.459 101.21 114.49 100.711C114.417 100.143 114.586 99.6598 114.858 99.2447ZM115.74 99.8239C115.536 100.135 115.417 100.429 115.437 100.739C115.422 101.1 115.476 101.358 115.633 101.684C115.79 102.01 116.015 102.232 116.275 102.403C116.586 102.607 116.88 102.726 117.19 102.706C117.551 102.721 117.809 102.667 118.135 102.51C118.461 102.353 118.683 102.128 118.854 101.868C119.058 101.557 119.177 101.263 119.157 100.954C119.138 100.644 119.118 100.334 118.961 100.008C118.804 99.682 118.579 99.4597 118.319 99.2894C118.06 99.119 117.766 99.0006 117.405 98.9859C117.043 98.9712 116.785 99.0246 116.459 99.1819C116.167 99.2872 115.945 99.5126 115.74 99.8239Z" fill="white"/>
<path d="M119.594 92.0321C119.9 91.5651 120.277 91.2181 120.723 90.9912C121.169 90.7642 121.684 90.6573 122.184 90.6883C122.683 90.7192 123.219 90.9221 123.686 91.2287L126.073 92.796C126.591 93.1367 126.938 93.513 127.217 93.9932C127.444 94.4392 127.551 94.955 127.572 95.4885C127.541 95.9881 127.338 96.5232 127.032 96.9902C126.759 97.4053 126.417 97.7004 126.057 97.9095C125.662 98.1705 125.233 98.2596 124.803 98.3487L124.675 97.2993C124.985 97.28 125.243 97.2265 125.569 97.0693C125.809 96.9299 126.083 96.7386 126.253 96.4791C126.458 96.1678 126.61 95.8224 126.591 95.5126C126.605 95.151 126.5 94.859 126.343 94.533C126.186 94.207 125.96 93.9847 125.701 93.8144L124.248 92.8604L124.592 92.7891C124.767 93.2011 124.804 93.5968 124.807 94.0444C124.758 94.458 124.624 94.8893 124.385 95.2526C124.079 95.7196 123.736 96.0146 123.29 96.2416C122.844 96.4685 122.363 96.5235 121.915 96.5267C121.415 96.4957 120.932 96.3269 120.517 96.0544C120.05 95.7477 119.755 95.4054 119.528 94.9594C119.301 94.5133 119.194 93.9976 119.225 93.4981C119.152 92.9304 119.321 92.4472 119.594 92.0321ZM120.476 92.6113C120.271 92.9226 120.153 93.2161 120.172 93.5259C120.158 93.8875 120.211 94.1454 120.368 94.4714C120.525 94.7975 120.751 95.0197 121.01 95.1901C121.322 95.3945 121.615 95.513 121.925 95.4936C122.287 95.5083 122.544 95.4548 122.87 95.2976C123.196 95.1404 123.419 94.915 123.589 94.6555C123.793 94.3442 123.912 94.0507 123.893 93.7409C123.873 93.4312 123.854 93.1214 123.697 92.7954C123.539 92.4693 123.314 92.2471 123.055 92.0767C122.795 91.9064 122.502 91.7879 122.14 91.7732C121.778 91.7585 121.52 91.812 121.194 91.9692C120.902 92.0746 120.68 92.2999 120.476 92.6113Z" fill="white"/>
<path d="M134.9 84.7801L128.673 80.6916L128.618 82.5858L127.632 81.9385L127.688 80.0442L128.267 79.1621L135.479 83.898L134.9 84.7801Z" fill="white"/>
<path d="M139.179 78.6038C138.872 79.0708 138.496 79.4178 138.05 79.6447C137.604 79.8717 137.088 79.9786 136.589 79.9476C136.089 79.9167 135.606 79.7479 135.139 79.4413L132.492 77.7036C132.025 77.397 131.679 77.0206 131.452 76.5746C131.225 76.1285 131.118 75.6128 131.149 75.1133C131.18 74.6138 131.348 74.1305 131.655 73.6635C131.962 73.1965 132.338 72.8496 132.784 72.6226C133.23 72.3957 133.746 72.2888 134.245 72.3197C134.745 72.3507 135.228 72.5195 135.695 72.8261L138.341 74.5637C138.808 74.8704 139.155 75.2467 139.382 75.6928C139.609 76.1388 139.716 76.6546 139.685 77.1541C139.654 77.6536 139.486 78.1368 139.179 78.6038ZM138.297 78.0246C138.467 77.7652 138.586 77.4717 138.6 77.11C138.581 76.8002 138.562 76.4905 138.404 76.1644C138.299 75.8725 138.074 75.6503 137.762 75.4458L135.064 73.6741C134.805 73.5038 134.511 73.3853 134.149 73.3706C133.84 73.39 133.53 73.4094 133.204 73.5666C132.912 73.672 132.69 73.8973 132.485 74.2087C132.315 74.4681 132.196 74.7616 132.182 75.1233C132.201 75.433 132.221 75.7428 132.378 76.0688C132.483 76.3608 132.708 76.583 133.02 76.7875L135.77 78.5932C136.029 78.7636 136.323 78.882 136.685 78.8967C136.994 78.8774 137.304 78.858 137.63 78.7007C137.87 78.5613 138.092 78.336 138.297 78.0246Z" fill="white"/>
<path d="M144.236 70.5625L142.887 69.6766L140.706 72.9975L139.876 72.4524L136.41 66.7606L137.057 65.7747L140.523 71.4665L142.022 69.1834L139.999 67.8546L140.578 66.9725L142.602 68.3013L143.079 67.5748L143.909 68.12L143.432 68.8464L144.781 69.7322L144.236 70.5625Z" fill="white"/>
<path d="M148.378 64.5937C148.071 65.0607 147.695 65.4077 147.301 65.6687C146.907 65.9297 146.425 65.9847 145.977 65.9878C145.53 65.9909 145.046 65.8221 144.631 65.5496C144.216 65.277 143.869 64.9007 143.694 64.4887C143.467 64.0426 143.412 63.5609 143.529 63.0436L143.841 63.248C143.446 63.5091 143.017 63.5981 142.655 63.5835C142.241 63.5347 141.862 63.434 141.499 63.1955C141.084 62.923 140.788 62.5807 140.631 62.2547C140.456 61.8427 140.419 61.447 140.468 61.0334C140.517 60.6199 140.685 60.1366 140.958 59.7215C141.23 59.3064 141.573 59.0113 141.967 58.7503C142.327 58.5412 142.705 58.418 143.153 58.4149C143.6 58.4118 143.946 58.5643 144.361 58.8369C144.724 59.0754 144.967 59.3836 145.176 59.7437C145.385 60.1038 145.422 60.4995 145.34 60.9649L145.028 60.7605C145.457 60.4476 145.972 60.3407 146.42 60.3376C146.868 60.3345 147.351 60.5033 147.766 60.7758C148.181 61.0484 148.528 61.4247 148.703 61.8367C148.878 62.2487 148.967 62.6785 148.936 63.178C148.853 63.6434 148.685 64.1267 148.378 64.5937ZM147.496 64.0145C147.768 63.5994 147.903 63.168 147.814 62.7382C147.725 62.3084 147.516 61.9483 147.101 61.6757C146.634 61.3691 146.254 61.2685 145.824 61.3576C145.395 61.4466 145.052 61.7417 144.78 62.1568C144.507 62.5719 144.373 63.0033 144.462 63.4331C144.499 63.8288 144.794 64.1711 145.261 64.4777C145.676 64.7503 146.141 64.8331 146.519 64.71C146.897 64.5868 147.223 64.4296 147.496 64.0145ZM143.916 61.6636C144.154 61.3003 144.255 60.9209 144.235 60.6111C144.216 60.3013 144.007 59.9412 143.644 59.7027C143.28 59.4642 142.953 59.3977 142.575 59.5208C142.197 59.644 141.975 59.8694 141.736 60.2326C141.498 60.5958 141.397 60.9753 141.416 61.2851C141.436 61.5948 141.645 61.9549 142.008 62.1934C142.371 62.4319 142.699 62.4985 143.077 62.3753C143.455 62.2522 143.677 62.0268 143.916 61.6636Z" fill="white"/>
<path d="M35.2708 146.941L35.9863 145.851L36.3495 146.09C36.3642 145.728 36.4308 145.4 36.4973 145.073C36.6158 144.779 36.7343 144.486 36.9046 144.226C37.1431 143.863 37.3994 143.586 37.6736 143.394C37.9818 143.151 38.2737 143.046 38.6694 143.009C38.6679 142.785 38.6663 142.561 38.6648 142.337C38.6632 142.113 38.7135 141.924 38.7638 141.734C38.8142 141.544 38.8645 141.355 38.9667 141.199C39.0689 141.043 39.1192 140.853 39.2215 140.698C39.46 140.335 39.7163 140.057 40.0245 139.814C40.3327 139.571 40.6246 139.466 40.9166 139.36C41.2085 139.255 41.5702 139.27 41.9497 139.37C42.2772 139.437 42.6745 139.623 43.0378 139.862L45.1652 141.259L44.4497 142.349L42.4779 141.054C42.2185 140.883 41.9769 140.799 41.7871 140.749C41.5455 140.664 41.3217 140.666 41.1498 140.702C40.9779 140.737 40.7719 140.825 40.5659 140.912C40.4118 141.034 40.2236 141.207 40.0873 141.415C40.0192 141.519 39.951 141.622 39.9348 141.76C39.8666 141.864 39.8504 142.002 39.8341 142.14C39.8179 142.278 39.8016 142.415 39.7854 142.553C39.7691 142.691 39.8388 142.811 39.8744 142.983L42.7802 144.891L42.0647 145.981L40.093 144.686C39.8335 144.516 39.5919 144.431 39.4021 144.381C39.2124 144.331 38.9367 144.298 38.7648 144.334C38.5929 144.369 38.3869 144.457 38.1809 144.544C38.0268 144.666 37.8386 144.84 37.7023 145.047C37.6342 145.151 37.532 145.307 37.5157 145.444C37.4476 145.548 37.3973 145.738 37.381 145.876C37.3647 146.014 37.3485 146.151 37.3322 146.289C37.316 146.427 37.3516 146.599 37.3694 146.685L40.2752 148.593L39.5597 149.683L35.3048 146.889L35.2708 146.941Z" fill="white"/>
<path d="M43.7361 138.686C43.4248 138.482 43.1475 138.226 42.9903 137.899C42.799 137.625 42.6758 137.247 42.6045 136.904C42.5333 136.56 42.582 136.146 42.6827 135.767C42.7833 135.387 43.004 134.938 43.2425 134.575C43.5151 134.16 43.8055 133.831 44.1137 133.587C44.4219 133.344 44.782 133.135 45.1258 133.064C45.4696 132.993 45.8135 132.921 46.193 133.022C46.5205 133.089 46.9 133.189 47.2114 133.394C47.5227 133.598 47.7999 133.854 47.9572 134.18C48.1485 134.454 48.2716 134.832 48.3429 135.176C48.4142 135.52 48.3654 135.934 48.2648 136.313C48.1641 136.693 47.9434 137.142 47.7049 137.505C47.4324 137.92 47.142 138.249 46.8338 138.492C46.5256 138.736 46.1655 138.945 45.8216 139.016C45.4778 139.087 45.134 139.159 44.7545 139.058C44.3928 139.043 44.0474 138.891 43.7361 138.686ZM44.4857 137.545C44.6413 137.647 44.883 137.731 45.0208 137.748C45.2105 137.798 45.4343 137.796 45.6403 137.709C45.8463 137.621 46.0523 137.534 46.2064 137.412C46.3946 137.239 46.5828 137.065 46.7531 136.806C46.9235 136.546 47.0079 136.305 47.0923 136.063C47.1767 135.821 47.1751 135.598 47.1395 135.426C47.1038 135.254 47.0504 134.996 46.9288 134.842C46.8072 134.688 46.6856 134.534 46.5299 134.431C46.3743 134.329 46.1326 134.245 45.9429 134.194C45.7532 134.144 45.5294 134.146 45.3234 134.233C45.1174 134.321 44.9114 134.408 44.7573 134.53C44.535 134.755 44.3469 134.929 44.1765 135.188C44.0062 135.448 43.9218 135.689 43.8374 135.931C43.753 136.172 43.7545 136.396 43.7902 136.568C43.7917 136.792 43.8792 136.998 44.0008 137.152C44.1743 137.34 44.33 137.442 44.4857 137.545Z" fill="white"/>
<path d="M45.8334 130.855L46.5489 129.765L47.1716 130.174C47.1862 129.813 47.1669 129.503 47.2156 129.089C47.2822 128.762 47.3488 128.434 47.4154 128.107L48.6057 128.443C48.385 128.892 48.2503 129.323 48.1496 129.703C48.1009 130.116 48.1381 130.512 48.2612 130.89L50.8557 132.593L50.1402 133.683L45.8334 130.855Z" fill="white"/>
<path d="M50.2609 128.861C49.8977 128.623 49.6204 128.367 49.4632 128.041C49.2719 127.766 49.1488 127.388 49.0775 127.045C49.0062 126.701 49.055 126.287 49.1556 125.908C49.2563 125.528 49.4429 125.131 49.6814 124.768C49.7836 124.612 49.8858 124.456 50.0399 124.335C50.1421 124.179 50.2962 124.058 50.4163 123.988C50.5704 123.866 50.6385 123.763 50.7926 123.641C50.9126 123.571 51.0327 123.502 51.1527 123.432L49.0771 122.069L50.104 121.184L55.8636 124.966L55.1481 126.055L54.733 125.783C54.7168 125.921 54.7005 126.058 54.7361 126.23C54.7199 126.368 54.6696 126.558 54.6192 126.748C54.5689 126.937 54.5186 127.127 54.4164 127.283C54.3142 127.438 54.2638 127.628 54.1616 127.784C53.9231 128.147 53.6327 128.476 53.3586 128.668C53.0504 128.911 52.7244 129.068 52.3805 129.139C52.0367 129.211 51.6929 129.282 51.3134 129.181C50.9339 129.08 50.5723 129.066 50.2609 128.861ZM51.0105 127.72C51.1662 127.822 51.3559 127.872 51.5456 127.923C51.7354 127.973 51.9592 127.971 52.1652 127.884C52.3712 127.796 52.5772 127.709 52.7313 127.587C52.9194 127.414 53.1076 127.24 53.2439 127.033C53.3461 126.877 53.4483 126.721 53.4646 126.584C53.5149 126.394 53.6171 126.238 53.6334 126.1C53.6837 125.911 53.6999 125.773 53.6643 125.601C53.6806 125.463 53.6449 125.291 53.6093 125.119L52.1564 124.165C51.9845 124.201 51.8644 124.27 51.7103 124.392C51.5903 124.462 51.4362 124.583 51.3162 124.653C51.1961 124.723 51.0939 124.878 50.9739 124.948C50.9058 125.052 50.7517 125.174 50.6835 125.277C50.5132 125.537 50.4288 125.778 50.3444 126.02C50.26 126.262 50.2615 126.485 50.2972 126.657C50.2987 126.881 50.3863 127.087 50.5079 127.241C50.6813 127.429 50.8029 127.584 51.0105 127.72Z" fill="white"/>
<path d="M54.4002 122.445C54.0888 122.241 53.8635 122.018 53.6722 121.744C53.4809 121.47 53.3577 121.092 53.2864 120.748C53.2152 120.405 53.2639 119.991 53.3646 119.611C53.4652 119.232 53.5999 118.801 53.8725 118.386C54.1451 117.97 54.4355 117.641 54.7956 117.432C55.1038 117.189 55.5157 117.014 55.8596 116.943C56.2034 116.871 56.5991 116.834 56.9786 116.935C57.3581 117.035 57.7376 117.136 58.0489 117.341C58.1008 117.375 58.1527 117.409 58.2046 117.443C58.2565 117.477 58.3083 117.511 58.3602 117.545L55.6686 121.644C55.8065 121.66 55.9962 121.711 56.1681 121.675C56.34 121.64 56.546 121.552 56.7001 121.43C56.9061 121.343 57.0602 121.221 57.1965 121.014C57.3847 120.84 57.521 120.633 57.6913 120.373C57.8617 120.114 57.9801 119.82 58.0645 119.579C58.183 119.285 58.2674 119.044 58.334 118.716L59.4027 118.898C59.3524 119.088 59.3361 119.225 59.2858 119.415C59.2355 119.605 59.1851 119.795 59.0829 119.95C58.9807 120.106 58.9304 120.296 58.7941 120.503C58.6919 120.659 58.5556 120.866 58.4534 121.022C58.1468 121.489 57.7882 121.922 57.446 122.217C57.1037 122.512 56.7436 122.721 56.3657 122.845C55.9878 122.968 55.678 122.987 55.2645 122.938C55.091 122.75 54.7115 122.649 54.4002 122.445ZM56.7448 117.969C56.607 117.953 56.4691 117.937 56.3313 117.921C56.1593 117.956 55.9874 117.992 55.8674 118.062C55.7474 118.131 55.5414 118.219 55.4392 118.375C55.2851 118.496 55.1488 118.704 55.0466 118.859C54.9103 119.067 54.774 119.275 54.7237 119.464C54.6733 119.654 54.623 119.844 54.6246 120.068C54.6602 120.239 54.644 120.377 54.6796 120.549C54.7152 120.721 54.7849 120.841 54.8546 120.961L56.7967 118.004L56.7448 117.969Z" fill="white"/>
<path d="M59.4081 114.817L56.0703 115.151L56.9902 113.75L59.0029 113.512L58.3871 111.622L59.273 110.273L60.362 113.365L63.6998 113.031L62.7799 114.432L60.6812 114.688L61.3489 116.612L60.463 117.961L59.4081 114.817Z" fill="white"/>
<path d="M31.9748 150.717L37.5091 154.277L32.1696 156.414L31.9748 150.717ZM26.8301 158.552L32.1696 156.414L32.3644 162.112L26.8301 158.552ZM26.3747 157.436L26.1828 159.538L31.717 163.098L33.5694 162.086L33.4149 157.232L37.9646 155.393L38.1565 153.291L32.6222 149.731L30.7698 150.743L30.9243 155.597L26.3747 157.436Z" fill="white"/>
</g>
<defs>
<linearGradient id="paint0_linear_122_3437" x1="92.2628" y1="50.2035" x2="114.54" y2="43.2308" gradientUnits="userSpaceOnUse">
<stop stop-color="#B56110"/>
<stop offset="0.1507" stop-color="#B56110"/>
<stop offset="0.4638" stop-color="#E5AD5C"/>
<stop offset="0.6129" stop-color="#F9CC7B"/>
<stop offset="0.7204" stop-color="#FFE6A6"/>
<stop offset="0.8387" stop-color="#F9CC7B"/>
<stop offset="1" stop-color="#B56110"/>
</linearGradient>
<linearGradient id="paint1_linear_122_3437" x1="96.7252" y1="56.0068" x2="108.573" y2="37.9625" gradientUnits="userSpaceOnUse">
<stop stop-color="#B56110"/>
<stop offset="0.1507" stop-color="#B56110"/>
<stop offset="0.4638" stop-color="#E5AD5C"/>
<stop offset="0.6129" stop-color="#F9CC7B"/>
<stop offset="0.7204" stop-color="#FFE6A6"/>
<stop offset="0.8387" stop-color="#F9CC7B"/>
<stop offset="1" stop-color="#B56110"/>
</linearGradient>
<clipPath id="clip0_122_3437">
<rect width="195.039" height="123.529" fill="white" transform="translate(0.988281 163.64) rotate(-56.7104)"/>
</clipPath>
</defs>
</svg>
