<svg width="572" height="482" viewBox="0 0 572 482" fill="none" xmlns="http://www.w3.org/2000/svg">
<path d="M414.411 467.997L30.7098 295.244C14.1441 287.786 6.74927 268.279 14.2076 251.713L113.78 30.5545C121.238 13.9888 140.745 6.59401 157.31 14.0523L541.153 186.869C557.718 194.328 565.113 213.834 557.655 230.4L458.147 451.417C450.483 468.061 430.976 475.456 414.411 467.997Z" fill="black"/>
<path d="M59.7358 268.976C58.7447 268.53 58.0227 267.864 57.506 267.121C56.9893 266.377 56.7417 265.414 56.7773 264.579C56.8128 263.743 56.9759 262.625 57.4858 261.492C57.9958 260.359 58.5199 259.574 59.3271 258.915C60.1344 258.257 60.8141 257.882 61.7133 257.776C62.6124 257.67 63.5895 257.769 64.5806 258.215C65.7133 258.725 66.5769 259.455 67.1714 260.404C67.6244 261.289 67.8082 262.393 67.6452 263.512L66.2434 263.221C66.4206 262.45 66.3145 261.55 65.9394 260.871C65.5643 260.191 64.9839 259.589 64.1344 259.207C63.4264 258.888 62.6547 258.711 62.0387 258.944C61.3449 258.972 60.8067 259.411 60.2686 259.85C59.7304 260.289 59.2701 260.933 58.8876 261.783C58.5051 262.632 58.328 263.404 58.3562 264.098C58.3844 264.792 58.5541 265.549 58.8514 266.024C59.2903 266.562 59.7291 267.1 60.4371 267.419C61.2866 267.801 62.122 267.837 62.8796 267.667C63.6372 267.497 64.1753 267.058 64.841 266.336L65.9878 267.193C65.2584 268.057 64.3096 268.651 63.3466 268.899C61.9871 269.649 60.8685 269.486 59.7358 268.976Z" fill="white"/>
<path d="M67.6505 272.199L75.6383 263.535L77.3374 264.3L76.1457 276.024L74.8714 275.45L75.8859 264.497L76.3107 264.689L68.9248 272.773L67.6505 272.199ZM70.4332 270.557L70.9432 269.424L76.0403 271.719L75.5304 272.852L70.4332 270.557Z" fill="white"/>
<path d="M80.252 277.872L84.8418 267.678L88.8062 269.463C88.9478 269.527 89.0894 269.591 89.0894 269.591C89.0894 269.591 89.3726 269.718 89.5142 269.782C90.0168 270.178 90.3778 270.511 90.6751 270.986C90.9723 271.46 91.0643 272.012 91.0146 272.501C90.965 272.989 90.8516 273.619 90.6603 274.044C90.2778 274.894 89.8813 275.396 89.1378 275.913C88.458 276.288 87.7004 276.458 86.7872 276.217L86.2987 276.167L83.1837 274.765L81.4626 278.588L80.252 277.872ZM83.7575 273.491L86.4476 274.702C86.5892 274.766 86.5892 274.766 86.7308 274.829C86.8724 274.893 87.014 274.957 87.014 274.957C87.3609 274.943 87.7078 274.929 88.0547 274.915C88.2601 274.837 88.5291 274.617 88.7982 274.398C89.0673 274.178 89.1948 273.895 89.3223 273.612C89.4498 273.329 89.5773 273.046 89.5632 272.699C89.5491 272.352 89.535 272.005 89.4572 271.8C89.3793 271.594 89.1599 271.325 88.7989 270.992C88.6573 270.929 88.5157 270.865 88.5157 270.865L88.2325 270.737L85.5424 269.526L83.7575 273.491ZM86.3403 280.614L86.2067 275.615L87.6722 275.764L87.8977 281.315L86.3403 280.614Z" fill="white"/>
<path d="M92.1456 283.227L96.7354 273.033L99.8503 274.435C99.9919 274.499 100.133 274.563 100.417 274.69C100.7 274.818 100.983 274.945 101.125 275.009C101.91 275.533 102.349 276.071 102.724 276.751C103.099 277.431 103.205 278.33 103.028 279.101C102.993 279.937 102.752 280.85 102.369 281.7C101.987 282.549 101.463 283.335 100.861 283.915C100.259 284.496 99.5792 284.871 98.8995 285.246C98.2198 285.621 97.4481 285.444 96.5348 285.203C96.2516 285.076 96.11 285.012 95.8269 284.884C95.5437 284.757 95.4021 284.693 95.2605 284.629L92.1456 283.227ZM93.9299 282.668L95.7705 283.497C95.9121 283.56 96.1953 283.688 96.3368 283.752C96.62 283.879 96.7616 283.943 96.9032 284.007C97.5333 284.12 98.0218 284.17 98.6378 283.936C99.2538 283.703 99.5866 283.342 99.9832 282.839C100.38 282.336 100.776 281.834 101.031 281.268C101.35 280.56 101.463 279.929 101.577 279.299C101.69 278.669 101.598 278.117 101.506 277.565C101.414 277.013 100.912 276.616 100.551 276.283C100.409 276.219 100.126 276.092 99.9845 276.028C99.8429 275.964 99.5597 275.837 99.4181 275.773L97.5775 274.944L93.9299 282.668Z" fill="white"/>
<path d="M104.605 288.837L109.194 278.643L110.469 279.216L108.429 283.747L113.809 286.169L115.849 281.639L117.123 282.212L112.533 292.407L111.259 291.833L113.299 287.302L107.919 284.88L105.879 289.411L104.605 288.837Z" fill="white"/>
<path d="M121.327 296.706C120.336 296.26 119.614 295.594 119.097 294.85C118.58 294.107 118.333 293.144 118.368 292.309C118.404 291.473 118.567 290.355 119.077 289.222C119.587 288.089 120.111 287.303 120.918 286.645C121.725 285.987 122.405 285.612 123.304 285.506C124.203 285.4 125.18 285.499 126.171 285.945C127.162 286.391 127.885 287.057 128.401 287.801C128.918 288.544 129.166 289.507 129.13 290.342C129.094 291.178 128.931 292.296 128.421 293.429C127.911 294.562 127.387 295.348 126.58 296.006C125.773 296.664 125.093 297.039 124.194 297.145C123.436 297.315 122.459 297.216 121.327 296.706ZM121.9 295.432C122.608 295.75 123.38 295.927 123.996 295.694C124.612 295.46 125.228 295.227 125.766 294.788C126.304 294.349 126.765 293.705 127.147 292.855C127.53 292.006 127.707 291.234 127.679 290.54C127.65 289.847 127.622 289.153 127.183 288.615C126.744 288.076 126.306 287.538 125.598 287.219C124.89 286.901 124.118 286.724 123.502 286.957C122.808 286.985 122.27 287.424 121.732 287.863C121.194 288.302 120.733 288.946 120.351 289.796C119.968 290.645 119.791 291.417 119.82 292.111C119.848 292.804 119.876 293.498 120.315 294.036C120.754 294.575 121.192 295.113 121.9 295.432Z" fill="white"/>
<path d="M130.656 300.566L135.246 290.372L136.52 290.946L132.441 300.007L137.113 302.111L136.603 303.243L130.656 300.566Z" fill="white"/>
<path d="M140.709 305.092L145.299 294.898L148.414 296.3C148.555 296.364 148.697 296.428 148.98 296.555C149.263 296.683 149.546 296.81 149.688 296.874C150.474 297.398 150.913 297.936 151.288 298.616C151.663 299.296 151.769 300.195 151.592 300.967C151.556 301.802 151.315 302.715 150.933 303.565C150.55 304.414 150.026 305.2 149.424 305.781C148.822 306.361 148.143 306.736 147.463 307.111C146.783 307.486 146.012 307.309 145.098 307.068C144.815 306.941 144.674 306.877 144.39 306.75C144.107 306.622 143.966 306.558 143.824 306.495L140.709 305.092ZM142.493 304.533L144.334 305.362C144.476 305.426 144.759 305.553 144.9 305.617C145.183 305.744 145.325 305.808 145.467 305.872C146.097 305.985 146.585 306.035 147.201 305.801C147.817 305.568 148.15 305.207 148.547 304.704C148.943 304.202 149.34 303.699 149.595 303.133C149.914 302.425 150.027 301.795 150.14 301.165C150.254 300.535 150.162 299.982 150.07 299.43C149.978 298.878 149.475 298.481 149.114 298.148C148.973 298.085 148.69 297.957 148.548 297.893C148.406 297.83 148.123 297.702 147.982 297.638L146.141 296.81L142.493 304.533Z" fill="white"/>
<path d="M153.169 310.702L157.759 300.508L164.13 303.376L163.62 304.509L158.382 302.15L156.915 305.407L161.305 307.383L160.795 308.516L156.405 306.539L154.875 309.938L160.114 312.296L159.604 313.429L153.169 310.702Z" fill="white"/>
<path d="M164.071 315.61L168.661 305.416L172.626 307.201C172.767 307.265 172.909 307.328 172.909 307.328C172.909 307.328 173.192 307.456 173.333 307.52C173.836 307.916 174.197 308.249 174.494 308.723C174.792 309.198 174.884 309.75 174.834 310.239C174.784 310.727 174.671 311.357 174.48 311.782C174.097 312.632 173.701 313.134 172.957 313.651C172.277 314.026 171.52 314.196 170.606 313.955L170.118 313.905L167.003 312.503L165.282 316.326L164.071 315.61ZM167.577 311.228L170.267 312.44C170.409 312.503 170.409 312.503 170.55 312.567C170.692 312.631 170.833 312.695 170.833 312.695C171.18 312.681 171.527 312.666 171.874 312.652C172.079 312.574 172.348 312.355 172.618 312.136C172.887 311.916 173.014 311.633 173.142 311.35C173.269 311.067 173.397 310.784 173.383 310.437C173.368 310.09 173.354 309.743 173.276 309.537C173.199 309.332 172.979 309.063 172.618 308.73C172.477 308.666 172.335 308.603 172.335 308.603L172.052 308.475L169.362 307.264L167.577 311.228ZM170.16 318.351L170.026 313.353L171.492 313.502L171.717 319.053L170.16 318.351Z" fill="white"/>
<path d="M181.628 323.515L186.218 313.321L187.492 313.894L189.303 324.246L192.872 316.317L194.147 316.89L189.557 327.085L188.283 326.511L186.472 316.16L182.902 324.089L181.628 323.515Z" fill="white"/>
<path d="M193.522 328.87L201.509 320.205L203.208 320.97L202.017 332.694L200.743 332.121L201.835 321.373L202.26 321.565L194.874 329.649L193.522 328.87ZM196.304 327.228L196.814 326.095L202.053 328.453L201.543 329.586L196.304 327.228Z" fill="white"/>
<path d="M206.265 334.607L210.854 324.413L211.987 324.923L212.176 334.714L219.633 328.365L220.766 328.875L216.176 339.069L215.043 338.559L218.358 331.197L211.645 337.029L210.937 336.71L210.854 327.818L207.539 335.181L206.265 334.607Z" fill="white"/>
<path d="M220.989 341.236L225.579 331.042L231.951 333.911L231.441 335.044L226.202 332.685L224.736 335.941L229.125 337.918L228.615 339.05L224.226 337.074L222.696 340.472L227.934 342.831L227.425 343.963L220.989 341.236Z" fill="white"/>
<path d="M466.747 204.626L465.727 206.891L458.223 203.512L456.693 206.911L463.489 209.97L462.469 212.236L455.673 209.176L454.079 212.716L461.867 216.222L460.783 218.629L450.306 213.911L456.553 200.036L466.747 204.626Z" fill="white"/>
<path d="M470.234 220.33C472.358 221.286 474.206 220.585 475.226 218.32L478.859 210.249L481.55 211.461L477.916 219.531C476.259 223.212 472.973 224.458 469.15 222.737C465.328 221.015 463.94 217.666 465.598 213.985L469.231 205.915L471.922 207.126L468.288 215.196C467.332 217.32 468.11 219.373 470.234 220.33Z" fill="white"/>
<path d="M487.055 230.627L486.638 225.501C486.496 225.437 486.355 225.374 486.072 225.246L482.957 223.844L481.108 227.95L478.418 226.739L484.665 212.863L490.47 215.477C494.01 217.07 495.369 219.726 493.966 222.84C493.01 224.964 491.318 226.076 489.236 226.16L490.311 232.093L487.055 230.627ZM484.04 221.437L487.155 222.839C489.138 223.732 490.653 223.392 491.418 221.693C492.183 219.994 491.432 218.634 489.45 217.742L486.335 216.34L484.04 221.437Z" fill="white"/>
<path d="M509.434 232.359C507.649 236.323 502.99 237.972 498.884 236.123C494.778 234.275 492.924 229.694 494.709 225.729C496.494 221.765 501.153 220.116 505.259 221.965C509.365 223.813 511.347 228.111 509.434 232.359ZM497.399 226.94C496.252 229.489 497.419 232.569 499.968 233.716C502.517 234.864 505.597 233.696 506.744 231.148C507.891 228.599 506.724 225.519 504.175 224.372C501.627 223.224 498.674 224.109 497.399 226.94Z" fill="white"/>
<mask id="mask0_225_1497" style="mask-type:luminance" maskUnits="userSpaceOnUse" x="111" y="107" width="60" height="54">
<path d="M170.027 126.888L126.418 107.254L111.183 141.093L154.791 160.727L170.027 126.888Z" fill="white"/>
</mask>
<g mask="url(#mask0_225_1497)">
<path d="M147.57 157.476L118.403 144.345C114.439 142.56 112.649 137.837 114.434 133.873L123.167 114.475C124.952 110.511 129.674 108.72 133.639 110.505L162.806 123.637C166.77 125.422 168.561 130.145 166.776 134.109L158.042 153.506C156.258 157.471 151.535 159.261 147.57 157.476Z" fill="url(#paint0_linear_225_1497)"/>
</g>
<mask id="mask1_225_1497" style="mask-type:luminance" maskUnits="userSpaceOnUse" x="111" y="107" width="60" height="54">
<path d="M170.027 126.888L126.418 107.254L111.183 141.093L154.791 160.727L170.027 126.888Z" fill="white"/>
</mask>
<g mask="url(#mask1_225_1497)">
<path opacity="0.5" d="M164.848 144.821L165.167 144.113L146.478 135.698L148.709 130.743L154.663 128.485L167.831 134.414L168.15 133.706L154.699 127.65L148.334 130.063L143.378 127.832L148.988 115.372L148.28 115.053L142.67 127.513L137.715 125.282L135.301 118.917L121.992 112.924L121.674 113.632L134.841 119.561L137.099 125.516L134.867 130.471L116.178 122.057L115.859 122.764L134.549 131.179L132.318 136.135L125.747 138.625L113.004 132.888L112.685 133.596L125.711 139.461L132.693 136.814L137.507 138.982L131.897 151.441L132.605 151.76L138.215 139.3L143.17 141.532L145.817 148.513L158.843 154.378L159.161 153.67L146.419 147.932L143.928 141.362L146.159 136.406L164.848 144.821ZM143.142 140.838L132.806 136.184L137.46 125.848L147.795 130.502L143.142 140.838Z" fill="url(#paint1_linear_225_1497)"/>
</g>
<mask id="mask2_225_1497" style="mask-type:luminance" maskUnits="userSpaceOnUse" x="111" y="107" width="60" height="54">
<path d="M170.027 126.888L126.418 107.254L111.183 141.093L154.791 160.727L170.027 126.888Z" fill="white"/>
</mask>
<g mask="url(#mask2_225_1497)">
<path d="M164.94 145.373L165.259 144.665L146.569 136.251L148.864 131.153L154.819 128.896L167.986 134.824L168.305 134.116L154.854 128.061L148.489 130.474L143.533 128.242L149.143 115.783L148.435 115.464L142.825 127.924L137.87 125.693L135.457 119.327L122.006 113.271L121.687 113.979L134.855 119.908L137.112 125.862L134.881 130.818L116.333 122.467L116.014 123.175L134.704 131.59L132.473 136.545L125.902 139.036L113.159 133.299L112.841 134.007L125.867 139.872L132.848 137.225L137.803 139.456L132.194 151.916L132.902 152.234L138.384 140.058L143.339 142.289L145.986 149.27L159.012 155.135L159.331 154.427L146.588 148.69L144.097 142.119L146.328 137.164L164.94 145.373ZM143.375 141.454L133.039 136.8L137.693 126.464L148.028 131.118L143.375 141.454Z" fill="#231912"/>
</g>
<path d="M179.384 174.184L178.217 171.104C184.788 168.613 189.872 163.75 192.74 157.379C195.609 151.007 195.879 143.977 193.389 137.406L196.469 136.239C199.271 143.631 198.965 151.496 195.714 158.717C192.463 165.938 186.776 171.382 179.384 174.184Z" fill="white"/>
<path d="M175.35 163.853L174.183 160.773C177.879 159.372 180.825 156.612 182.482 152.93C184.139 149.249 184.254 145.214 182.852 141.518L185.932 140.35C187.645 144.867 187.573 149.944 185.597 154.333C183.621 158.722 180.009 162.205 175.35 163.853Z" fill="white"/>
<path d="M172.145 155.088L170.977 152.008C172.415 151.463 173.555 150.444 174.128 149.169C174.766 147.753 174.773 146.224 174.228 144.787L177.308 143.619C178.165 145.878 178.122 148.243 177.102 150.508C176.146 152.632 174.404 154.232 172.145 155.088Z" fill="white"/>
<path d="M207.059 294.265C206.209 293.883 205.629 293.281 205.048 292.679C204.61 292.141 204.362 291.178 204.192 290.42C204.164 289.726 204.263 288.749 204.646 287.9L206.749 283.228C207.132 282.378 207.734 281.798 208.336 281.217C209.079 280.7 209.837 280.531 210.594 280.361C211.352 280.191 212.265 280.432 213.115 280.815C213.964 281.197 214.545 281.799 215.125 282.401C215.564 282.939 215.812 283.902 215.981 284.659C216.151 285.417 215.91 286.33 215.528 287.18L213.424 291.852C213.042 292.702 212.44 293.282 211.838 293.863C211.3 294.301 210.478 294.613 209.579 294.719C208.744 294.683 207.908 294.648 207.059 294.265ZM207.76 292.708C208.185 292.899 208.815 293.012 209.303 293.062C209.714 292.906 210.266 292.815 210.741 292.517C211.151 292.362 211.406 291.795 211.661 291.229L213.829 286.415C214.02 285.99 214.133 285.36 214.183 284.872C214.091 284.319 213.935 283.909 213.638 283.434C213.483 283.024 212.98 282.627 212.414 282.372C211.989 282.181 211.359 282.067 210.806 282.159C210.254 282.251 209.844 282.407 209.369 282.704C208.895 283.001 208.703 283.426 208.448 283.993L206.281 288.806C206.09 289.231 205.976 289.861 205.927 290.35C205.877 290.838 206.174 291.313 206.472 291.787C206.833 292.12 207.194 292.453 207.76 292.708Z" fill="white"/>
<path d="M219.802 300.003C218.952 299.62 218.372 299.018 217.792 298.416C217.353 297.878 217.105 296.915 216.935 296.158C216.907 295.464 217.006 294.487 217.389 293.637L219.493 288.965C219.875 288.115 220.477 287.535 221.079 286.954C221.681 286.374 222.58 286.268 223.338 286.098C224.095 285.928 225.008 286.169 225.858 286.552C226.707 286.934 227.288 287.536 227.868 288.138C228.307 288.676 228.555 289.639 228.725 290.397C228.753 291.091 228.653 292.068 228.271 292.917L226.167 297.59C225.785 298.439 225.183 299.02 224.581 299.6C223.901 299.975 223.222 300.35 222.322 300.456C221.629 300.484 220.652 300.385 219.802 300.003ZM220.503 298.445C220.928 298.636 221.558 298.75 222.047 298.799C222.457 298.644 223.01 298.552 223.484 298.255C223.895 298.099 224.15 297.533 224.405 296.966L226.572 292.152C226.763 291.727 226.877 291.097 226.926 290.609C226.834 290.057 226.679 289.646 226.381 289.171C226.226 288.761 225.723 288.364 225.157 288.109C224.732 287.918 224.102 287.805 223.55 287.897C222.997 287.988 222.587 288.144 222.112 288.441C221.638 288.739 221.305 289.1 221.05 289.666L218.883 294.48C218.691 294.905 218.578 295.535 218.67 296.087C218.762 296.639 218.918 297.05 219.215 297.524C219.717 297.921 220.078 298.254 220.503 298.445Z" fill="white"/>
<path d="M237.559 292.331L239.258 293.096L230.123 304.309L228.424 303.544L237.559 292.331Z" fill="white"/>
<path d="M241.747 309.883C240.898 309.501 240.317 308.899 239.737 308.297C239.298 307.759 239.05 306.796 238.881 306.038C238.852 305.344 238.952 304.367 239.334 303.518L241.438 298.845C241.82 297.996 242.422 297.416 243.024 296.835C243.626 296.255 244.525 296.149 245.283 295.979C246.04 295.809 246.954 296.05 247.803 296.432C248.653 296.815 249.233 297.417 249.814 298.019C250.253 298.557 250.5 299.52 250.67 300.277C250.84 301.035 250.599 301.948 250.216 302.798L248.113 307.47C247.73 308.32 247.128 308.9 246.526 309.481C245.988 309.919 245.167 310.231 244.268 310.337C243.291 310.237 242.455 310.202 241.747 309.883ZM242.449 308.326C242.873 308.517 243.503 308.63 243.992 308.68C244.544 308.588 244.955 308.432 245.429 308.135C245.84 307.979 246.095 307.413 246.35 306.847L248.517 302.033C248.709 301.608 248.822 300.978 248.872 300.489C248.78 299.937 248.624 299.527 248.327 299.052C248.171 298.641 247.668 298.245 247.102 297.99C246.677 297.799 246.047 297.685 245.495 297.777C244.943 297.869 244.532 298.025 244.058 298.322C243.583 298.619 243.392 299.044 243.137 299.61L240.97 304.424C240.778 304.849 240.665 305.479 240.615 305.968C240.566 306.456 240.863 306.931 241.16 307.405C241.521 307.738 241.741 308.007 242.449 308.326Z" fill="white"/>
<path d="M254.49 315.62C253.641 315.238 253.061 314.636 252.48 314.034C252.041 313.496 251.794 312.533 251.624 311.775C251.596 311.081 251.695 310.104 252.077 309.255L254.181 304.583C254.564 303.733 255.165 303.153 255.767 302.572C256.369 301.992 257.268 301.886 258.026 301.716C258.784 301.546 259.697 301.787 260.546 302.169C261.396 302.552 261.976 303.154 262.557 303.756C262.996 304.294 263.243 305.257 263.413 306.014C263.583 306.772 263.342 307.685 262.959 308.535L260.856 313.207C260.473 314.057 259.871 314.637 259.27 315.218C258.731 315.656 257.91 315.968 257.011 316.074C256.175 316.038 255.34 316.003 254.49 315.62ZM255.192 314.063C255.616 314.254 256.247 314.367 256.735 314.417C257.287 314.325 257.698 314.169 258.172 313.872C258.583 313.717 258.838 313.15 259.093 312.584L261.26 307.77C261.452 307.345 261.565 306.715 261.615 306.227C261.523 305.674 261.367 305.264 261.07 304.789C260.914 304.379 260.412 303.982 259.845 303.727C259.42 303.536 258.79 303.422 258.238 303.514C257.686 303.606 257.275 303.762 256.801 304.059C256.326 304.356 256.135 304.781 255.88 305.347L253.713 310.161C253.522 310.586 253.408 311.216 253.358 311.705C253.45 312.257 253.606 312.668 253.903 313.142C254.406 313.539 254.625 313.808 255.192 314.063Z" fill="white"/>
<path d="M186.41 273.559L186.219 273.984L184.662 273.283L184.343 273.991L185.759 274.628L185.568 275.053L184.152 274.416L183.833 275.124L185.532 275.889L185.341 276.313L183.075 275.293L184.414 272.32L186.41 273.559Z" fill="white"/>
<path d="M187.401 274.006L187.663 275.316L188.817 274.643L189.525 274.962L187.897 275.932L188.328 277.999L187.62 277.68L187.358 276.37L186.204 277.043L185.496 276.724L187.33 275.677L186.977 273.814L187.401 274.006Z" fill="white"/>
<path d="M191.847 277.369C191.528 278.077 190.976 278.169 190.268 277.851L189.702 277.596L189.319 278.445L188.753 278.19L190.092 275.217L191.224 275.727C191.932 276.045 192.166 276.662 191.847 277.369ZM191.281 277.114C191.472 276.69 191.253 276.421 190.828 276.229L190.262 275.974L189.752 277.107L190.318 277.362C190.884 277.617 191.153 277.398 191.281 277.114Z" fill="white"/>
<path d="M193.349 276.683L192.01 279.656L191.444 279.401L192.782 276.428L193.349 276.683Z" fill="white"/>
<path d="M194.558 280.804L194.515 279.763L194.374 279.699L193.666 279.38L193.283 280.23L192.859 280.039L194.197 277.065L195.33 277.575C196.038 277.894 196.335 278.369 195.953 279.218C195.761 279.643 195.287 279.94 194.94 279.954L195.06 281.2L194.558 280.804ZM193.857 278.956L194.565 279.274C194.99 279.466 195.4 279.31 195.528 279.027C195.719 278.602 195.5 278.333 195.075 278.142L194.367 277.823L193.857 278.956Z" fill="white"/>
<path d="M199.295 279.36L199.104 279.785L197.405 279.02L197.086 279.728L198.502 280.366L198.311 280.79L196.895 280.153L196.576 280.861L198.275 281.626L198.084 282.051L195.819 281.031L197.157 278.057L199.295 279.36Z" fill="white"/>
<path d="M200.597 280.628C200.314 280.5 200.109 280.578 200.045 280.72C199.79 281.286 201.475 281.704 201.029 282.695C200.774 283.262 200.222 283.354 199.514 283.035C199.089 282.844 198.65 282.305 198.572 282.1L199.047 281.803C199.344 282.277 199.563 282.546 199.988 282.738C200.271 282.865 200.477 282.787 200.604 282.504C200.859 281.938 199.174 281.52 199.62 280.529C199.812 280.104 200.428 279.87 201.136 280.189C201.419 280.316 201.921 280.713 202.141 280.982L201.666 281.279C201.1 281.024 200.739 280.692 200.597 280.628Z" fill="white"/>
<path d="M193.035 282.673L192.844 283.097L191.287 282.396L190.968 283.104L192.384 283.742L192.193 284.166L190.777 283.529L190.458 284.237L192.157 285.002L191.966 285.427L189.7 284.407L191.039 281.433L193.035 282.673Z" fill="white"/>
<path d="M194.168 283.183L194.833 285.866L195.725 283.884L196.292 284.139L194.953 287.112L194.528 286.921L193.863 284.238L192.971 286.22L192.404 285.965L193.743 282.991L194.168 283.183Z" fill="white"/>
<path d="M198.911 287.021C198.528 287.87 197.707 288.182 196.716 287.736L195.583 287.226L196.922 284.252L198.055 284.762C198.982 285.35 199.293 286.171 198.911 287.021ZM198.486 286.83C198.741 286.263 198.508 285.647 197.941 285.392L197.375 285.137L196.546 286.978L197.254 287.297C197.615 287.629 198.231 287.396 198.486 286.83Z" fill="white"/>
<path d="M216.294 275.264L216.456 277.551L218.276 276.157L218.842 276.412L217.504 279.385L217.079 279.194L218.035 277.07L216.421 278.387L215.996 278.196L215.911 276.114L214.955 278.238L214.53 278.047L215.869 275.073L216.294 275.264Z" fill="white"/>
<path d="M221.808 279.28C221.426 280.129 220.399 280.519 219.55 280.136C218.7 279.754 218.247 278.869 218.693 277.878C219.076 277.028 220.102 276.639 220.952 277.021C221.674 277.687 222.127 278.572 221.808 279.28ZM219.26 278.132C219.005 278.699 219.238 279.315 219.805 279.57C220.371 279.825 220.987 279.591 221.242 279.025C221.497 278.459 221.263 277.843 220.697 277.588C220.003 277.616 219.451 277.708 219.26 278.132Z" fill="white"/>
<path d="M223.373 278.452L224.038 281.135L224.93 279.153L225.497 279.408L224.158 282.381L223.733 282.19L223.068 279.507L222.176 281.489L221.61 281.234L222.948 278.26L223.373 278.452Z" fill="white"/>
<path d="M228.187 280.619L227.996 281.044L227.005 280.598L225.857 283.146L225.291 282.891L226.439 280.343L225.447 279.896L225.639 279.472L228.187 280.619Z" fill="white"/>
<path d="M229.179 281.065L228.605 282.34L230.021 282.977L230.595 281.703L231.161 281.958L229.822 284.931L229.256 284.676L229.766 283.543L228.35 282.906L227.84 284.039L227.274 283.784L228.612 280.81L229.179 281.065Z" fill="white"/>
<path d="M233.475 282.489L230.416 285.88L229.85 285.625L232.909 282.234L233.475 282.489Z" fill="white"/>
<path d="M233.73 285.328L233.283 286.32L232.717 286.065L233.163 285.074L232.859 282.723L233.426 282.978L233.638 284.776L235.125 283.743L235.691 283.998L233.73 285.328Z" fill="white"/>
<path d="M238.099 285.081L237.908 285.506L236.35 284.805L236.031 285.513L237.447 286.15L237.256 286.575L235.84 285.938L235.521 286.646L237.221 287.411L237.029 287.835L234.764 286.815L236.103 283.842L238.099 285.081Z" fill="white"/>
<path d="M239.691 288.353L238.275 287.715L237.736 288.154L237.17 287.899L239.783 285.5L240.349 285.754L240.285 289.302L239.719 289.047L239.691 288.353ZM239.74 287.864L239.825 286.54L238.891 287.482L239.74 287.864Z" fill="white"/>
<path d="M242.551 290.321L242.509 289.281L242.367 289.217L241.659 288.898L241.277 289.748L240.71 289.493L241.985 286.661L243.118 287.171C243.826 287.49 244.123 287.964 243.805 288.672C243.613 289.097 243.139 289.394 242.792 289.408L242.912 290.654L242.551 290.321ZM241.85 288.473L242.558 288.792C242.983 288.983 243.394 288.828 243.521 288.544C243.649 288.261 243.493 287.851 243.068 287.659L242.36 287.341L241.85 288.473Z" fill="white"/>
<path d="M181.674 78.3217L184.648 79.6604L184.201 80.6515C185.101 80.5455 185.936 80.5811 186.771 80.6166C187.543 80.7938 188.315 80.9709 189.023 81.2896C190.014 81.7359 190.8 82.2599 191.38 82.8618C192.102 83.5275 192.477 84.2072 192.725 85.1702C193.277 85.0782 193.829 84.9863 194.382 84.8944C194.934 84.8024 195.422 84.8521 195.911 84.9017C196.399 84.9514 196.888 85.001 197.313 85.1923C197.737 85.3835 198.226 85.4332 198.651 85.6244C199.642 86.0706 200.427 86.5947 201.15 87.2604C201.872 87.926 202.247 88.6058 202.622 89.2855C202.997 89.9653 203.103 90.8644 203.004 91.8414C202.968 92.6769 202.663 93.7317 202.217 94.7228L199.604 100.528L196.63 99.1892L199.053 93.8089C199.371 93.101 199.485 92.4709 199.534 91.9824C199.648 91.3523 199.556 90.8 199.4 90.3894C199.244 89.9787 198.947 89.5043 198.65 89.0299C198.289 88.697 197.786 88.3005 197.22 88.0455C196.937 87.918 196.654 87.7905 196.307 87.8046C196.024 87.6771 195.677 87.6912 195.33 87.7053C194.983 87.7194 194.636 87.7335 194.289 87.7476C193.942 87.7617 193.673 87.9811 193.262 88.1368L189.692 96.0656L186.719 94.727L189.142 89.3467C189.46 88.6387 189.574 88.0086 189.623 87.5201C189.673 87.0316 189.645 86.3378 189.489 85.9271C189.333 85.5164 189.036 85.042 188.739 84.5676C188.378 84.2348 187.875 83.8382 187.309 83.5832C187.026 83.4557 186.601 83.2645 186.254 83.2786C185.971 83.1511 185.482 83.1014 185.135 83.1155C184.789 83.1296 184.442 83.1437 184.095 83.1578C183.748 83.1719 183.337 83.3276 183.132 83.4054L179.562 91.3343L176.589 89.9956L181.674 78.3217Z" fill="white"/>
<path d="M205.396 95.9837C205.778 95.1342 206.302 94.3485 207.046 93.8318C207.648 93.2513 208.533 92.7984 209.354 92.487C210.175 92.1756 211.216 92.1334 212.193 92.2327C213.17 92.332 214.367 92.7004 215.358 93.1466C216.49 93.6566 217.418 94.2444 218.14 94.91C218.862 95.5757 219.52 96.3829 219.831 97.2042C220.143 98.0256 220.454 98.8469 220.355 99.8239C220.319 100.659 220.22 101.636 219.837 102.486C219.455 103.335 218.931 104.121 218.187 104.638C217.586 105.218 216.7 105.671 215.879 105.983C215.058 106.294 214.017 106.336 213.04 106.237C212.063 106.138 210.867 105.769 209.875 105.323C208.743 104.813 207.815 104.225 207.093 103.56C206.371 102.894 205.713 102.087 205.402 101.265C205.09 100.444 204.779 99.6227 204.878 98.6457C204.772 97.7465 205.013 96.8333 205.396 95.9837ZM208.511 97.3862C208.319 97.8109 208.206 98.441 208.22 98.788C208.17 99.2765 208.262 99.8287 208.56 100.303C208.857 100.778 209.154 101.252 209.515 101.585C210.018 101.981 210.52 102.378 211.228 102.697C211.936 103.015 212.566 103.129 213.196 103.242C213.826 103.356 214.379 103.264 214.789 103.108C215.2 102.952 215.816 102.719 216.149 102.358C216.482 101.997 216.815 101.636 217.006 101.211C217.197 100.786 217.31 100.156 217.36 99.6676C217.41 99.1791 217.318 98.6268 217.02 98.1524C216.723 97.678 216.426 97.2036 216.065 96.8708C215.421 96.4105 214.918 96.0139 214.21 95.6951C213.502 95.3764 212.872 95.263 212.242 95.1496C211.612 95.0362 211.06 95.1282 210.649 95.2838C210.097 95.3758 209.622 95.673 209.29 96.034C208.893 96.5367 208.702 96.9614 208.511 97.3862Z" fill="white"/>
<path d="M225.567 98.0832L228.54 99.4219L227.775 101.121C228.674 101.015 229.432 100.845 230.472 100.803C231.308 100.838 232.143 100.874 232.979 100.91L232.617 103.982C231.421 103.614 230.302 103.451 229.325 103.351C228.284 103.394 227.321 103.641 226.436 104.094L223.249 111.174L220.276 109.835L225.567 98.0832Z" fill="white"/>
<path d="M232.233 108.237C232.68 107.246 233.204 106.46 233.947 105.944C234.549 105.363 235.434 104.91 236.255 104.599C237.077 104.287 238.118 104.245 239.095 104.345C240.072 104.444 241.126 104.748 242.118 105.195C242.542 105.386 242.967 105.577 243.328 105.91C243.753 106.101 244.114 106.434 244.333 106.703C244.694 107.036 244.978 107.163 245.339 107.496C245.558 107.765 245.777 108.034 245.997 108.304L248.547 102.64L251.138 104.828L244.062 120.544L241.088 119.206L241.598 118.073C241.251 118.087 240.904 118.101 240.494 118.257C240.147 118.271 239.658 118.221 239.17 118.172C238.681 118.122 238.193 118.072 237.768 117.881C237.343 117.69 236.855 117.64 236.43 117.449C235.439 117.003 234.512 116.415 233.931 115.813C233.209 115.147 232.692 114.404 232.381 113.583C232.07 112.761 231.758 111.94 231.858 110.963C231.957 109.986 231.851 109.087 232.233 108.237ZM235.348 109.64C235.157 110.064 235.107 110.553 235.058 111.041C235.008 111.53 235.1 112.082 235.397 112.557C235.695 113.031 235.992 113.505 236.353 113.838C236.855 114.235 237.358 114.631 237.924 114.886C238.349 115.078 238.774 115.269 239.121 115.255C239.609 115.304 240.034 115.496 240.381 115.482C240.87 115.531 241.216 115.517 241.627 115.361C241.974 115.347 242.385 115.192 242.795 115.036L244.58 111.072C244.425 110.661 244.205 110.392 243.844 110.059C243.625 109.79 243.264 109.457 243.044 109.188C242.825 108.919 242.4 108.728 242.181 108.459C241.898 108.331 241.536 107.998 241.253 107.871C240.545 107.552 239.915 107.439 239.285 107.325C238.655 107.212 238.103 107.304 237.692 107.459C237.14 107.551 236.666 107.849 236.333 108.21C235.936 108.712 235.603 109.073 235.348 109.64Z" fill="white"/>
<path d="M249.713 115.936C250.095 115.087 250.556 114.443 251.158 113.862C251.76 113.282 252.645 112.829 253.466 112.517C254.287 112.206 255.328 112.164 256.305 112.263C257.282 112.362 258.401 112.525 259.533 113.035C260.666 113.545 261.594 114.133 262.252 114.94C262.974 115.606 263.568 116.555 263.88 117.376C264.191 118.198 264.439 119.161 264.339 120.138C264.24 121.115 264.141 122.092 263.758 122.941C263.695 123.083 263.631 123.224 263.567 123.366C263.503 123.507 263.44 123.649 263.376 123.791L252.19 118.755C252.205 119.102 252.155 119.59 252.311 120.001C252.466 120.411 252.764 120.886 253.125 121.219C253.422 121.693 253.783 122.026 254.349 122.281C254.852 122.677 255.418 122.932 256.126 123.251C256.834 123.57 257.606 123.747 258.236 123.86C259.007 124.038 259.638 124.151 260.473 124.187L260.444 126.898C259.956 126.849 259.609 126.863 259.12 126.813C258.632 126.763 258.143 126.714 257.718 126.522C257.294 126.331 256.805 126.282 256.239 126.027C255.814 125.835 255.248 125.58 254.823 125.389C253.549 124.815 252.338 124.1 251.474 123.371C250.611 122.641 249.953 121.834 249.5 120.949C249.047 120.064 248.877 119.306 248.835 118.266C249.231 117.763 249.331 116.786 249.713 115.936ZM261.692 119.967C261.677 119.62 261.663 119.273 261.649 118.926C261.494 118.516 261.338 118.105 261.118 117.836C260.899 117.567 260.602 117.092 260.177 116.901C259.816 116.568 259.25 116.313 258.825 116.122C258.259 115.867 257.692 115.612 257.204 115.563C256.715 115.513 256.227 115.463 255.674 115.555C255.264 115.711 254.917 115.725 254.506 115.881C254.095 116.036 253.826 116.256 253.557 116.475L261.692 119.967Z" fill="white"/>
<path d="M270.526 125.307L268.39 117.193L272.213 118.914L273.592 123.793L278.018 121.528L281.699 123.185L274.491 127.092L276.627 135.206L272.804 133.485L271.347 128.401L266.858 130.808L263.177 129.15L270.526 125.307Z" fill="white"/>
<path d="M171.049 71.6648L164.433 86.7367L157.051 74.3879L171.049 71.6648ZM149.811 62.1028L157.193 74.4516L143.195 77.1748L149.811 62.1028ZM152.388 60.5386L147.121 60.8916L140.505 75.9636L143.733 80.1414L155.663 77.8497L161.998 88.3647L167.265 88.0117L173.881 72.9397L170.653 68.7619L158.723 71.0536L152.388 60.5386Z" fill="white"/>
<mask id="mask3_225_1497" style="mask-type:luminance" maskUnits="userSpaceOnUse" x="11" y="11" width="550" height="460">
<path d="M414.411 467.997L30.7098 295.244C14.1441 287.786 6.74927 268.279 14.2076 251.713L113.78 30.5545C121.238 13.9889 140.745 6.59401 157.31 14.0523L541.153 186.869C557.718 194.328 565.113 213.834 557.655 230.4L458.147 451.417C450.483 468.061 430.976 475.456 414.411 467.997Z" fill="white"/>
</mask>
<g mask="url(#mask3_225_1497)">
<path opacity="0.5" d="M291.197 66.1579L436.856 308.837L160.587 361.551M106.451 337.689L171.564 419.623L407.214 374.675L531.697 581.936L636.446 575.456L767.121 279.921L702.008 197.987L466.293 243.077L341.874 35.6741L237.061 42.2952M712.985 256.059L582.374 551.452L436.715 308.773L712.985 256.059Z" stroke="#EAEAEA" stroke-width="0.4994" stroke-miterlimit="10"/>
</g>
<path d="M377.959 415.825L372.154 413.212L385.765 392.434L391.57 395.048L377.959 415.825Z" fill="white"/>
<path d="M408.936 403.377C407.994 402.443 406.409 401.048 404.143 400.028C398.338 397.414 392.971 398.744 390.995 403.133C389.529 406.39 391.596 409.364 393.351 411.516C395.107 413.669 395.496 414.696 395.05 415.687C394.348 417.244 392.189 417.123 390.49 416.358C388.225 415.339 387.142 414.34 385.478 412.74L384.961 411.996L381.817 416.711C382.978 417.915 385.13 419.565 387.82 420.776C393.908 423.517 399.211 422.329 401.457 417.72C402.604 415.171 401.939 412.488 399.384 409.464C397.848 407.581 396.892 406.299 397.402 405.166C397.848 404.175 399.286 403.63 401.693 404.714C403.533 405.543 404.758 406.605 405.699 407.54L406.138 408.078L408.936 403.377Z" fill="white"/>
<path d="M410.13 420.773C411.128 419.69 415.2 415.563 415.2 415.563C415.2 415.563 416.199 414.48 416.864 413.758L416.396 415.932C416.396 415.932 415.107 421.822 414.738 423.018C414.094 422.558 411.262 421.283 410.13 420.773ZM423.853 409.582L419.322 407.542C417.906 406.905 416.724 406.883 415.52 408.044L397.576 424.828L403.664 427.569C403.664 427.569 405.931 425.183 406.469 424.744C407.177 425.063 413.123 427.74 413.973 428.123C413.732 429.036 413.151 431.84 413.151 431.84L418.531 434.262L423.853 409.582Z" fill="white"/>
<path d="M377.271 388.61L364.723 401.351L365.559 397.981C366.161 393.995 364.548 388.501 361.759 384.861L358.137 406.901L364.225 409.642L383.564 391.273L377.271 388.61Z" fill="white"/>
<path d="M366.368 383.701L357.023 379.494L356.691 379.855C363.224 385.01 365.998 391.709 365.558 397.981L368.23 386.753C368.442 385.146 367.642 384.275 366.368 383.701Z" fill="#FAA61A"/>
<path d="M97.9449 198.481L99.6024 194.8L90.5408 190.72L91.5607 188.455L104.257 177.653L106.947 178.864L94.2509 189.666L100.481 192.471L102.967 186.949L105.515 188.096L103.029 193.618L105.011 194.511L103.992 196.776L102.009 195.883L100.352 199.565L97.9449 198.481Z" fill="white"/>
<path d="M113.895 206.173C112.904 205.727 111.976 205.139 111.318 204.332C110.66 203.524 110.207 202.639 109.818 201.613C109.57 200.65 109.528 199.609 109.691 198.49L112.211 198.944C112.034 199.716 112.126 200.268 112.296 201.026C112.529 201.642 112.763 202.257 113.202 202.796C113.641 203.334 114.143 203.73 114.709 203.985C115.559 204.368 116.331 204.545 117.088 204.375C117.987 204.269 118.603 204.036 119.347 203.519C120.09 203.002 120.487 202.5 120.869 201.65C121.252 200.801 121.429 200.029 121.259 199.271C121.09 198.514 120.92 197.756 120.403 197.013C119.886 196.269 119.384 195.873 118.534 195.49C117.685 195.108 116.913 194.931 116.014 195.037C115.115 195.143 114.499 195.376 114.024 195.673L112.283 193.868L117.503 183.787L127.98 188.504L126.96 190.769L117.899 186.69L119.478 186.209L115.214 194.166L114.966 193.203C115.788 192.891 116.545 192.722 117.586 192.679C118.627 192.637 119.335 192.956 120.043 193.274C121.317 193.848 122.181 194.578 122.917 195.59C123.653 196.603 123.978 197.771 124.162 198.875C124.282 200.122 124.056 201.382 123.546 202.514C122.972 203.789 122.242 204.652 121.088 205.325C119.934 205.997 118.844 206.528 117.598 206.648C116.352 206.768 115.028 206.683 113.895 206.173Z" fill="white"/>
<path d="M132.019 214.333C131.028 213.886 130.242 213.362 129.583 212.555C128.925 211.748 128.409 211.004 128.161 210.041C127.913 209.078 127.807 208.179 127.97 207.061L130.554 207.373C130.455 208.35 130.703 209.313 131.156 210.198C131.672 210.941 132.253 211.543 133.244 211.989C134.093 212.372 134.865 212.549 135.623 212.379C136.38 212.209 136.996 211.976 137.676 211.601C138.214 211.162 138.675 210.518 139.057 209.668C139.631 208.394 139.652 207.212 139.263 206.185C138.874 205.158 138.074 204.287 136.941 203.777C136.658 203.65 136.233 203.459 135.886 203.473C135.539 203.487 135.051 203.437 134.704 203.451L134.464 200.959L144.681 197.555L144.582 198.532L134.812 194.134L135.832 191.869L147.442 197.096L146.422 199.361L137.515 202.503L137.897 201.653C139.235 202.086 140.241 202.879 140.977 203.891C141.713 204.904 142.102 205.931 142.222 207.177C142.342 208.423 142.116 209.683 141.606 210.816C141.032 212.09 140.239 213.095 139.226 213.831C138.214 214.567 137.187 214.957 135.941 215.077C134.412 215.069 133.293 214.906 132.019 214.333Z" fill="white"/>
<path d="M144.386 219.39L145.342 217.266L157.626 213.431C158.653 213.042 159.474 212.73 159.871 212.228C160.409 211.789 160.806 211.286 161.124 210.578C161.443 209.87 161.62 209.099 161.451 208.341C161.422 207.647 161.111 206.826 160.672 206.288C160.297 205.608 159.653 205.148 158.945 204.829C158.095 204.447 157.465 204.333 156.566 204.439C155.809 204.609 155.051 204.779 154.513 205.218C153.975 205.656 153.373 206.237 153.054 206.945L150.505 205.797C151.079 204.523 151.809 203.66 152.821 202.923C153.834 202.187 155.002 201.862 156.248 201.742C157.494 201.622 158.754 201.848 160.029 202.422C161.303 202.996 162.167 203.725 162.903 204.738C163.639 205.75 164.028 206.777 164.148 208.023C164.268 209.269 164.105 210.388 163.531 211.662C163.149 212.512 162.689 213.156 162.228 213.8C161.69 214.239 161.152 214.678 160.472 215.053C159.792 215.428 158.971 215.739 158.008 215.987L147.855 219.249L147.954 218.272L158.432 222.989L157.412 225.254L144.386 219.39Z" fill="white"/>
<path d="M184.972 238.174C183.981 237.727 183.195 237.203 182.537 236.396C181.878 235.589 181.362 234.845 181.114 233.882C180.866 232.919 180.76 232.02 180.923 230.902L183.508 231.214C183.408 232.191 183.656 233.154 184.109 234.039C184.626 234.782 185.206 235.384 186.197 235.83C187.047 236.213 187.818 236.39 188.576 236.22C189.333 236.05 189.949 235.817 190.629 235.442C191.167 235.003 191.628 234.359 192.01 233.509C192.584 232.235 192.605 231.053 192.216 230.026C191.827 228.999 191.027 228.128 189.894 227.618C189.611 227.491 189.186 227.3 188.84 227.314C188.493 227.328 188.004 227.278 187.657 227.292L187.417 224.8L197.634 221.397L197.535 222.374L187.765 217.975L188.785 215.71L200.395 220.937L199.375 223.202L190.468 226.344L190.851 225.495C192.189 225.927 193.194 226.72 193.93 227.732C194.666 228.745 195.055 229.772 195.175 231.018C195.295 232.264 195.069 233.524 194.559 234.657C193.985 235.931 193.192 236.936 192.179 237.672C191.167 238.408 190.14 238.798 188.894 238.918C187.365 238.91 186.104 238.684 184.972 238.174Z" fill="white"/>
<path d="M201.304 245.016L208.953 228.026L204.252 228.634L205.463 225.943L210.165 225.335L212.572 226.419L203.711 246.1L201.304 245.016Z" fill="white"/>
<path d="M217.961 253.027C216.687 252.453 215.682 251.66 214.946 250.647C214.21 249.635 213.743 248.403 213.623 247.157C213.502 245.911 213.729 244.65 214.303 243.376L217.49 236.297C218.064 235.022 218.857 234.017 219.87 233.281C220.882 232.545 222.114 232.078 223.36 231.958C224.606 231.838 225.867 232.064 227.141 232.638C228.415 233.212 229.42 234.005 230.157 235.018C230.893 236.03 231.36 237.262 231.48 238.508C231.6 239.754 231.373 241.015 230.799 242.289L227.548 249.51C226.975 250.784 226.181 251.789 225.169 252.525C224.156 253.262 222.924 253.729 221.678 253.849C220.496 253.827 219.236 253.6 217.961 253.027ZM218.981 250.761C219.689 251.08 220.461 251.257 221.36 251.151C222.259 251.045 222.875 250.812 223.619 250.295C224.299 249.92 224.759 249.276 225.141 248.426L228.52 240.922C228.839 240.214 229.016 239.442 228.91 238.543C228.74 237.786 228.57 237.028 228.054 236.285C227.678 235.605 227.034 235.144 226.185 234.762C225.477 234.443 224.705 234.266 223.806 234.372C223.048 234.542 222.291 234.712 221.547 235.228C220.868 235.603 220.407 236.248 220.025 237.097L216.646 244.601C216.327 245.309 216.15 246.081 216.256 246.98C216.426 247.738 216.596 248.495 217.113 249.239C217.629 249.982 218.132 250.379 218.981 250.761Z" fill="white"/>
<path d="M237.784 261.951C236.509 261.377 235.504 260.584 234.768 259.572C234.032 258.559 233.565 257.327 233.445 256.081C233.325 254.835 233.551 253.575 234.125 252.3L237.313 245.221C237.886 243.947 238.679 242.942 239.692 242.205C240.705 241.469 241.937 241.002 243.183 240.882C244.429 240.762 245.689 240.989 246.963 241.562C248.237 242.136 249.243 242.929 249.979 243.942C250.715 244.955 251.182 246.187 251.302 247.433C251.422 248.679 251.195 249.939 250.622 251.213L247.371 258.434C246.797 259.708 246.004 260.714 244.991 261.45C243.979 262.186 242.747 262.653 241.501 262.773C240.318 262.752 239.058 262.525 237.784 261.951ZM238.804 259.686C239.512 260.004 240.283 260.182 241.182 260.075C242.082 259.969 242.698 259.736 243.441 259.219C244.121 258.844 244.581 258.2 244.964 257.35L248.342 249.846C248.661 249.138 248.838 248.367 248.732 247.468C248.562 246.71 248.392 245.952 247.876 245.209C247.501 244.529 246.857 244.069 246.007 243.686C245.299 243.368 244.527 243.19 243.628 243.296C242.871 243.466 242.113 243.636 241.37 244.153C240.69 244.528 240.229 245.172 239.847 246.022L236.468 253.526C236.15 254.234 235.973 255.005 236.079 255.904C236.248 256.662 236.418 257.42 236.935 258.163C237.451 258.907 237.954 259.303 238.804 259.686Z" fill="white"/>
<path d="M282.926 257.754C284.2 258.328 285.206 259.121 285.942 260.134C286.678 261.146 287.145 262.378 287.265 263.624C287.385 264.87 287.095 266.272 286.521 267.546L283.589 274.059C282.951 275.475 282.158 276.48 281.082 277.358C280.069 278.094 278.837 278.561 277.527 278.823C276.281 278.943 274.879 278.653 273.605 278.079C272.472 277.569 271.609 276.84 270.95 276.032C270.151 275.161 269.761 274.135 269.372 273.108L271.914 272.379C272.084 273.137 272.317 273.753 272.834 274.496C273.273 275.034 273.853 275.636 274.561 275.955C275.411 276.338 276.324 276.578 277.082 276.409C277.981 276.303 278.66 275.928 279.404 275.411C280.147 274.894 280.608 274.25 280.927 273.542L282.711 269.578L283.023 270.399C282.074 270.993 281.111 271.241 280.007 271.425C278.966 271.467 277.847 271.304 276.856 270.858C275.582 270.284 274.718 269.555 273.982 268.542C273.246 267.53 272.92 266.361 272.737 265.257C272.616 264.011 272.843 262.751 273.353 261.618C273.863 260.485 274.656 259.48 275.669 258.744C276.682 258.008 277.914 257.541 279.16 257.421C280.392 256.954 281.652 257.18 282.926 257.754ZM281.906 260.02C281.057 259.637 280.285 259.46 279.527 259.63C278.628 259.736 278.012 259.969 277.269 260.486C276.525 261.003 276.065 261.647 275.746 262.355C275.364 263.204 275.187 263.976 275.356 264.734C275.462 265.633 275.696 266.249 276.213 266.992C276.729 267.736 277.373 268.196 278.081 268.515C278.931 268.897 279.703 269.074 280.46 268.905C281.359 268.799 281.975 268.565 282.719 268.048C283.462 267.532 283.923 266.887 284.241 266.18C284.56 265.472 284.737 264.7 284.631 263.801C284.525 262.902 284.292 262.286 283.775 261.542C283.195 260.94 282.614 260.338 281.906 260.02Z" fill="white"/>
<path d="M302.607 266.615C303.881 267.189 304.886 267.982 305.622 268.994C306.358 270.007 306.826 271.239 306.946 272.485C307.066 273.731 306.775 275.133 306.201 276.407L303.269 282.92C302.632 284.336 301.839 285.341 300.762 286.219C299.75 286.955 298.518 287.422 297.208 287.684C295.962 287.804 294.56 287.513 293.286 286.94C292.153 286.43 291.289 285.7 290.631 284.893C289.831 284.022 289.442 282.995 289.053 281.969L291.595 281.24C291.764 281.998 291.998 282.614 292.515 283.357C292.953 283.895 293.534 284.497 294.242 284.816C295.091 285.198 296.005 285.439 296.762 285.27C297.661 285.163 298.341 284.788 299.085 284.272C299.828 283.755 300.288 283.111 300.607 282.403L302.392 278.438L302.703 279.26C301.755 279.854 300.792 280.102 299.687 280.286C298.646 280.328 297.528 280.165 296.537 279.719C295.262 279.145 294.399 278.416 293.663 277.403C292.927 276.391 292.601 275.222 292.417 274.118C292.297 272.872 292.524 271.611 293.034 270.479C293.544 269.346 294.337 268.341 295.35 267.605C296.362 266.869 297.594 266.402 298.84 266.281C300.072 265.814 301.332 266.041 302.607 266.615ZM301.587 268.88C300.737 268.498 299.966 268.321 299.208 268.49C298.309 268.597 297.693 268.83 296.949 269.347C296.206 269.863 295.746 270.508 295.427 271.216C295.044 272.065 294.867 272.837 295.037 273.594C295.143 274.494 295.376 275.11 295.893 275.853C296.41 276.597 297.054 277.057 297.762 277.376C298.612 277.758 299.383 277.935 300.141 277.765C301.04 277.659 301.656 277.426 302.399 276.909C303.143 276.392 303.603 275.748 303.922 275.04C304.241 274.332 304.418 273.561 304.312 272.662C304.206 271.762 303.972 271.146 303.456 270.403C302.875 269.801 302.295 269.199 301.587 268.88Z" fill="white"/>
<path d="M322.146 275.412C323.42 275.986 324.425 276.779 325.161 277.792C325.898 278.804 326.365 280.036 326.485 281.282C326.605 282.528 326.314 283.93 325.741 285.204L322.808 291.717C322.171 293.133 321.378 294.138 320.301 295.016C319.289 295.752 318.057 296.219 316.747 296.481C315.501 296.601 314.099 296.311 312.825 295.737C311.692 295.227 310.828 294.497 310.17 293.69C309.37 292.819 308.981 291.793 308.592 290.766L311.134 290.037C311.303 290.795 311.537 291.411 312.054 292.154C312.493 292.692 313.073 293.294 313.781 293.613C314.63 293.996 315.544 294.236 316.301 294.067C317.2 293.961 317.88 293.586 318.624 293.069C319.367 292.552 319.828 291.908 320.146 291.2L321.931 287.236L322.243 288.057C321.294 288.651 320.331 288.899 319.226 289.083C318.186 289.125 317.067 288.962 316.076 288.516C314.802 287.942 313.938 287.213 313.202 286.2C312.466 285.188 312.14 284.019 311.956 282.915C311.836 281.669 312.063 280.409 312.573 279.276C313.083 278.143 313.876 277.138 314.889 276.402C315.901 275.666 317.133 275.199 318.379 275.079C319.753 274.675 321.013 274.902 322.146 275.412ZM321.126 277.677C320.276 277.295 319.505 277.118 318.747 277.288C317.848 277.394 317.232 277.627 316.488 278.144C315.745 278.661 315.285 279.305 314.966 280.013C314.583 280.862 314.406 281.634 314.576 282.391C314.682 283.291 314.916 283.907 315.432 284.65C315.949 285.394 316.593 285.854 317.301 286.173C318.151 286.555 318.922 286.732 319.68 286.563C320.579 286.457 321.195 286.223 321.939 285.706C322.682 285.19 323.142 284.545 323.461 283.837C323.78 283.13 323.957 282.358 323.851 281.459C323.745 280.56 323.511 279.944 322.995 279.2C322.556 278.662 321.975 278.06 321.126 277.677Z" fill="white"/>
<path d="M341.685 284.209C342.959 284.783 343.964 285.576 344.7 286.588C345.437 287.601 345.904 288.833 346.024 290.079C346.144 291.325 345.853 292.727 345.28 294.001L342.347 300.514C341.71 301.93 340.917 302.935 339.84 303.813C338.828 304.549 337.596 305.016 336.286 305.278C335.04 305.398 333.638 305.107 332.364 304.534C331.231 304.024 330.367 303.294 329.709 302.487C328.909 301.616 328.52 300.589 328.131 299.563L330.673 298.834C330.843 299.592 331.076 300.208 331.593 300.951C332.032 301.489 332.612 302.091 333.32 302.41C334.17 302.792 335.083 303.033 335.84 302.864C336.74 302.758 337.419 302.382 338.163 301.866C338.906 301.349 339.367 300.705 339.685 299.997L341.47 296.032L341.782 296.854C340.833 297.448 339.87 297.696 338.765 297.88C337.725 297.922 336.606 297.759 335.615 297.313C334.341 296.739 333.477 296.01 332.741 294.997C332.005 293.985 331.679 292.816 331.495 291.712C331.375 290.466 331.602 289.205 332.112 288.073C332.622 286.94 333.415 285.935 334.428 285.199C335.44 284.463 336.672 283.996 337.918 283.875C339.292 283.472 340.552 283.699 341.685 284.209ZM340.665 286.474C339.815 286.092 339.044 285.915 338.286 286.084C337.387 286.191 336.771 286.424 336.027 286.941C335.284 287.457 334.824 288.102 334.505 288.81C334.122 289.659 333.945 290.431 334.115 291.188C334.221 292.088 334.455 292.704 334.971 293.447C335.488 294.191 336.132 294.651 336.84 294.97C337.69 295.352 338.461 295.529 339.219 295.359C340.118 295.253 340.734 295.02 341.478 294.503C342.221 293.986 342.681 293.342 343 292.634C343.319 291.926 343.496 291.155 343.39 290.256C343.284 289.356 343.05 288.74 342.534 287.997C342.095 287.459 341.514 286.857 340.665 286.474Z" fill="white"/>
<path d="M365.828 319.089L373.478 302.099L368.777 302.707L369.988 300.017L374.689 299.409L377.096 300.493L368.235 320.173L365.828 319.089Z" fill="white"/>
<path d="M382.627 327.164C381.353 326.59 380.348 325.797 379.612 324.784C378.876 323.772 378.409 322.54 378.289 321.294C378.168 320.048 378.395 318.788 378.969 317.513L382.156 310.434C382.73 309.16 383.523 308.154 384.536 307.418C385.548 306.682 386.78 306.215 388.026 306.095C389.272 305.975 390.533 306.202 391.807 306.775C393.081 307.349 394.086 308.142 394.823 309.155C395.559 310.167 396.026 311.399 396.146 312.645C396.266 313.892 396.039 315.152 395.465 316.426L392.214 323.647C391.641 324.921 390.847 325.926 389.835 326.663C388.822 327.399 387.59 327.866 386.344 327.986C385.162 327.964 383.902 327.738 382.627 327.164ZM383.647 324.899C384.355 325.217 385.127 325.394 386.026 325.288C386.925 325.182 387.541 324.949 388.285 324.432C388.965 324.057 389.425 323.413 389.807 322.563L393.186 315.059C393.505 314.351 393.682 313.58 393.576 312.68C393.406 311.923 393.236 311.165 392.72 310.422C392.344 309.742 391.7 309.282 390.851 308.899C390.143 308.58 389.371 308.403 388.472 308.509C387.714 308.679 386.957 308.849 386.213 309.366C385.534 309.741 385.073 310.385 384.691 311.234L381.312 318.739C380.993 319.446 380.816 320.218 380.922 321.117C381.092 321.875 381.262 322.632 381.779 323.376C382.295 324.119 382.798 324.516 383.647 324.899Z" fill="white"/>
<path d="M404.481 336.492L406.138 332.811L397.077 328.731L398.097 326.466L410.793 315.664L413.483 316.875L400.787 327.677L407.017 330.482L409.503 324.96L411.91 326.044L409.424 331.566L411.406 332.458L410.386 334.723L408.404 333.831L406.746 337.512L404.481 336.492Z" fill="white"/>
<path d="M420.855 344.375C419.581 343.802 418.576 343.008 417.776 342.137C416.976 341.266 416.651 340.098 416.467 338.994C416.283 337.889 416.51 336.629 417.02 335.496C417.53 334.364 418.323 333.358 419.272 332.764C420.284 332.028 421.452 331.702 422.776 331.788L422.394 332.637C421.594 331.766 421.205 330.739 421.099 329.84C421.056 328.799 421.156 327.822 421.602 326.831C422.112 325.699 422.778 324.977 423.585 324.318C424.534 323.724 425.497 323.476 426.537 323.434C427.578 323.392 428.838 323.618 429.971 324.128C431.104 324.638 431.967 325.368 432.767 326.239C433.425 327.046 433.878 327.931 434.062 329.036C434.246 330.14 434.005 331.053 433.495 332.186C433.049 333.177 432.383 333.899 431.576 334.557C430.769 335.216 429.806 335.463 428.624 335.442L429.006 334.592C429.948 335.527 430.415 336.759 430.599 337.864C430.782 338.968 430.556 340.228 430.046 341.361C429.536 342.494 428.743 343.499 427.794 344.093C426.845 344.688 425.818 345.077 424.572 345.197C423.39 345.176 422.13 344.949 420.855 344.375ZM421.875 342.11C423.008 342.62 424.127 342.783 425.153 342.394C426.18 342.005 426.987 341.346 427.497 340.214C428.071 338.939 428.17 337.962 427.781 336.936C427.328 336.051 426.528 335.18 425.395 334.67C424.263 334.16 423.144 333.997 422.117 334.386C421.154 334.633 420.425 335.497 419.851 336.771C419.341 337.904 419.32 339.086 419.773 339.971C420.226 340.856 420.743 341.6 421.875 342.11ZM426.274 332.34C427.265 332.787 428.242 332.886 428.999 332.716C429.757 332.546 430.564 331.888 431.01 330.897C431.457 329.906 431.492 329.07 431.039 328.185C430.586 327.3 429.942 326.84 428.951 326.394C427.96 325.948 426.983 325.848 426.225 326.018C425.468 326.188 424.66 326.846 424.214 327.837C423.768 328.828 423.733 329.664 424.185 330.549C424.638 331.434 425.283 331.894 426.274 332.34Z" fill="white"/>
<defs>
<linearGradient id="paint0_linear_225_1497" x1="128.202" y1="109.245" x2="154.16" y2="161.467" gradientUnits="userSpaceOnUse">
<stop stop-color="#B56110"/>
<stop offset="0.1507" stop-color="#B56110"/>
<stop offset="0.4638" stop-color="#E5AD5C"/>
<stop offset="0.6129" stop-color="#F9CC7B"/>
<stop offset="0.7204" stop-color="#FFE6A6"/>
<stop offset="0.8387" stop-color="#F9CC7B"/>
<stop offset="1" stop-color="#B56110"/>
</linearGradient>
<linearGradient id="paint1_linear_225_1497" x1="115.823" y1="122.376" x2="164.998" y2="144.516" gradientUnits="userSpaceOnUse">
<stop stop-color="#B56110"/>
<stop offset="0.1507" stop-color="#B56110"/>
<stop offset="0.4638" stop-color="#E5AD5C"/>
<stop offset="0.6129" stop-color="#F9CC7B"/>
<stop offset="0.7204" stop-color="#FFE6A6"/>
<stop offset="0.8387" stop-color="#F9CC7B"/>
<stop offset="1" stop-color="#B56110"/>
</linearGradient>
</defs>
</svg>
