<svg width="312" height="323" viewBox="0 0 312 323" fill="none" xmlns="http://www.w3.org/2000/svg">
<path d="M1 1L0.999986 321.781" stroke="#21201E" stroke-linecap="round"/>
<path d="M311.321 321.443L0.999869 321.781" stroke="#21201E" stroke-linecap="round"/>
<line x1="8.57031" y1="321.781" x2="8.57031" y2="317.747" stroke="#21201E"/>
<line x1="1" y1="6.55225" x2="9.06997" y2="6.55225" stroke="#21201E"/>
<line x1="14.6226" y1="321.781" x2="14.6226" y2="313.712" stroke="#21201E"/>
<line x1="1" y1="12.6047" x2="5.03499" y2="12.6047" stroke="#21201E"/>
<line x1="20.6753" y1="321.781" x2="20.6753" y2="317.747" stroke="#21201E"/>
<line x1="1" y1="18.6575" x2="9.06997" y2="18.6575" stroke="#21201E"/>
<line x1="26.7275" y1="321.781" x2="26.7275" y2="313.712" stroke="#21201E"/>
<line x1="1" y1="24.7097" x2="5.03499" y2="24.7097" stroke="#21201E"/>
<line x1="32.7803" y1="321.781" x2="32.7803" y2="317.747" stroke="#21201E"/>
<line x1="1" y1="30.7625" x2="9.06997" y2="30.7625" stroke="#21201E"/>
<line x1="38.8325" y1="321.781" x2="38.8325" y2="313.712" stroke="#21201E"/>
<line x1="1" y1="36.8149" x2="9.06997" y2="36.8149" stroke="#21201E"/>
<line x1="44.8853" y1="321.781" x2="44.8853" y2="313.712" stroke="#21201E"/>
<line x1="1" y1="42.8672" x2="5.03499" y2="42.8672" stroke="#21201E"/>
<line x1="50.9375" y1="321.781" x2="50.9375" y2="317.747" stroke="#21201E"/>
<line x1="1" y1="48.9199" x2="5.03499" y2="48.9199" stroke="#21201E"/>
<line x1="56.9897" y1="321.781" x2="56.9897" y2="317.747" stroke="#21201E"/>
<line x1="1" y1="54.9722" x2="5.03499" y2="54.9722" stroke="#21201E"/>
<line x1="63.0425" y1="321.781" x2="63.0425" y2="317.747" stroke="#21201E"/>
<line x1="1" y1="61.0247" x2="5.03499" y2="61.0247" stroke="#21201E"/>
<line x1="69.0952" y1="321.781" x2="69.0952" y2="317.747" stroke="#21201E"/>
<line x1="1" y1="67.0771" x2="9.06997" y2="67.0771" stroke="#21201E"/>
<line x1="75.1475" y1="321.781" x2="75.1475" y2="313.712" stroke="#21201E"/>
<line x1="1" y1="303.124" x2="9.06997" y2="303.124" stroke="#21201E"/>
<line x1="311.194" y1="321.781" x2="311.194" y2="313.712" stroke="#21201E"/>
<line x1="1" y1="73.1296" x2="5.03499" y2="73.1296" stroke="#21201E"/>
<line x1="81.1997" y1="321.781" x2="81.1997" y2="317.747" stroke="#21201E"/>
<line x1="1" y1="309.176" x2="5.03499" y2="309.176" stroke="#21201E"/>
<line x1="1" y1="79.1821" x2="5.03499" y2="79.1821" stroke="#21201E"/>
<line x1="87.2524" y1="321.781" x2="87.2524" y2="317.747" stroke="#21201E"/>
<line x1="1" y1="315.229" x2="5.03499" y2="315.229" stroke="#21201E"/>
<line x1="1" y1="85.2346" x2="9.06997" y2="85.2346" stroke="#21201E"/>
<line x1="93.3047" y1="321.781" x2="93.3047" y2="313.712" stroke="#21201E"/>
<line x1="1" y1="91.2871" x2="9.06997" y2="91.2871" stroke="#21201E"/>
<line x1="99.3574" y1="321.781" x2="99.3574" y2="313.712" stroke="#21201E"/>
<line x1="1" y1="97.3396" x2="5.03499" y2="97.3396" stroke="#21201E"/>
<line x1="105.41" y1="321.781" x2="105.41" y2="317.747" stroke="#21201E"/>
<line x1="1" y1="103.392" x2="5.03499" y2="103.392" stroke="#21201E"/>
<line x1="111.462" y1="321.781" x2="111.462" y2="317.747" stroke="#21201E"/>
<line x1="1" y1="109.445" x2="5.03499" y2="109.445" stroke="#21201E"/>
<line x1="117.515" y1="321.781" x2="117.515" y2="317.747" stroke="#21201E"/>
<line x1="1" y1="115.497" x2="5.03499" y2="115.497" stroke="#21201E"/>
<line x1="123.567" y1="321.781" x2="123.567" y2="317.747" stroke="#21201E"/>
<line x1="1" y1="121.55" x2="5.03499" y2="121.55" stroke="#21201E"/>
<line x1="129.62" y1="321.781" x2="129.62" y2="317.747" stroke="#21201E"/>
<line x1="1" y1="266.809" x2="5.03499" y2="266.809" stroke="#21201E"/>
<line x1="274.879" y1="321.781" x2="274.879" y2="317.747" stroke="#21201E"/>
<line x1="1" y1="127.602" x2="9.06997" y2="127.602" stroke="#21201E"/>
<line x1="135.672" y1="321.781" x2="135.672" y2="313.712" stroke="#21201E"/>
<line x1="1" y1="272.861" x2="9.06997" y2="272.861" stroke="#21201E"/>
<line x1="280.932" y1="321.781" x2="280.932" y2="313.712" stroke="#21201E"/>
<line x1="1" y1="133.655" x2="9.06997" y2="133.655" stroke="#21201E"/>
<line x1="141.725" y1="321.781" x2="141.725" y2="313.712" stroke="#21201E"/>
<line x1="1" y1="278.914" x2="9.06997" y2="278.914" stroke="#21201E"/>
<line x1="286.984" y1="321.781" x2="286.984" y2="313.712" stroke="#21201E"/>
<line x1="1" y1="139.707" x2="5.03499" y2="139.707" stroke="#21201E"/>
<line x1="147.777" y1="321.781" x2="147.777" y2="317.747" stroke="#21201E"/>
<line x1="1" y1="284.966" x2="5.03499" y2="284.966" stroke="#21201E"/>
<line x1="293.037" y1="321.781" x2="293.037" y2="317.747" stroke="#21201E"/>
<line x1="1" y1="145.76" x2="5.03499" y2="145.76" stroke="#21201E"/>
<line x1="153.83" y1="321.781" x2="153.83" y2="317.747" stroke="#21201E"/>
<line x1="1" y1="291.019" x2="5.03499" y2="291.019" stroke="#21201E"/>
<line x1="299.089" y1="321.781" x2="299.089" y2="317.747" stroke="#21201E"/>
<line x1="1" y1="151.812" x2="9.06997" y2="151.812" stroke="#21201E"/>
<line x1="159.882" y1="321.781" x2="159.882" y2="313.712" stroke="#21201E"/>
<line x1="1" y1="297.071" x2="9.06997" y2="297.071" stroke="#21201E"/>
<line x1="305.142" y1="321.781" x2="305.142" y2="313.712" stroke="#21201E"/>
<line x1="1" y1="157.864" x2="9.06997" y2="157.864" stroke="#21201E"/>
<line x1="165.935" y1="321.781" x2="165.935" y2="313.712" stroke="#21201E"/>
<line x1="1" y1="163.917" x2="9.06997" y2="163.917" stroke="#21201E"/>
<line x1="171.987" y1="321.781" x2="171.987" y2="313.712" stroke="#21201E"/>
<line x1="1" y1="169.969" x2="5.03499" y2="169.969" stroke="#21201E"/>
<line x1="178.04" y1="321.781" x2="178.04" y2="317.747" stroke="#21201E"/>
<line x1="1" y1="176.022" x2="5.03499" y2="176.022" stroke="#21201E"/>
<line x1="184.092" y1="321.781" x2="184.092" y2="317.747" stroke="#21201E"/>
<line x1="1" y1="182.074" x2="5.03499" y2="182.074" stroke="#21201E"/>
<line x1="190.145" y1="321.781" x2="190.145" y2="317.747" stroke="#21201E"/>
<line x1="1" y1="188.127" x2="5.03499" y2="188.127" stroke="#21201E"/>
<line x1="196.197" y1="321.781" x2="196.197" y2="317.747" stroke="#21201E"/>
<line x1="1" y1="194.179" x2="9.06997" y2="194.179" stroke="#21201E"/>
<line x1="202.25" y1="321.781" x2="202.25" y2="313.712" stroke="#21201E"/>
<line x1="1" y1="200.232" x2="9.06997" y2="200.232" stroke="#21201E"/>
<line x1="208.302" y1="321.781" x2="208.302" y2="313.712" stroke="#21201E"/>
<line x1="1" y1="206.284" x2="9.06997" y2="206.284" stroke="#21201E"/>
<line x1="214.354" y1="321.781" x2="214.354" y2="313.712" stroke="#21201E"/>
<line x1="1" y1="212.337" x2="5.03499" y2="212.337" stroke="#21201E"/>
<line x1="220.407" y1="321.781" x2="220.407" y2="317.747" stroke="#21201E"/>
<line x1="1" y1="218.389" x2="5.03499" y2="218.389" stroke="#21201E"/>
<line x1="226.459" y1="321.781" x2="226.459" y2="317.747" stroke="#21201E"/>
<line x1="1" y1="224.442" x2="5.03499" y2="224.442" stroke="#21201E"/>
<line x1="232.512" y1="321.781" x2="232.512" y2="317.747" stroke="#21201E"/>
<line x1="1" y1="230.494" x2="5.03499" y2="230.494" stroke="#21201E"/>
<line x1="238.564" y1="321.781" x2="238.564" y2="317.747" stroke="#21201E"/>
<line x1="1" y1="236.547" x2="9.06997" y2="236.547" stroke="#21201E"/>
<line x1="244.617" y1="321.781" x2="244.617" y2="313.712" stroke="#21201E"/>
<line x1="1" y1="242.599" x2="5.03499" y2="242.599" stroke="#21201E"/>
<line x1="250.669" y1="321.781" x2="250.669" y2="317.747" stroke="#21201E"/>
<line x1="1" y1="248.652" x2="5.03499" y2="248.652" stroke="#21201E"/>
<line x1="256.722" y1="321.781" x2="256.722" y2="317.747" stroke="#21201E"/>
<line x1="1" y1="254.704" x2="5.03499" y2="254.704" stroke="#21201E"/>
<line x1="262.774" y1="321.781" x2="262.774" y2="317.747" stroke="#21201E"/>
<line x1="1" y1="260.757" x2="5.03499" y2="260.757" stroke="#21201E"/>
<line x1="268.827" y1="321.781" x2="268.827" y2="317.747" stroke="#21201E"/>
</svg>
