<svg width="1202" height="686" viewBox="0 0 1202 686" fill="none" xmlns="http://www.w3.org/2000/svg">
<path d="M22.116 661.358C22.116 659.294 22.452 657.686 23.124 656.534C23.796 655.37 24.972 654.788 26.652 654.788C28.32 654.788 29.49 655.37 30.162 656.534C30.834 657.686 31.17 659.294 31.17 661.358C31.17 663.458 30.834 665.09 30.162 666.254C29.49 667.418 28.32 668 26.652 668C24.972 668 23.796 667.418 23.124 666.254C22.452 665.09 22.116 663.458 22.116 661.358ZM29.55 661.358C29.55 660.314 29.478 659.432 29.334 658.712C29.202 657.98 28.92 657.392 28.488 656.948C28.068 656.504 27.456 656.282 26.652 656.282C25.836 656.282 25.212 656.504 24.78 656.948C24.36 657.392 24.078 657.98 23.934 658.712C23.802 659.432 23.736 660.314 23.736 661.358C23.736 662.438 23.802 663.344 23.934 664.076C24.078 664.808 24.36 665.396 24.78 665.84C25.212 666.284 25.836 666.506 26.652 666.506C27.456 666.506 28.068 666.284 28.488 665.84C28.92 665.396 29.202 664.808 29.334 664.076C29.478 663.344 29.55 662.438 29.55 661.358Z" fill="#21201E"/>
<path d="M0.684 7.48V5.986H4.068V19H2.412V7.48H0.684ZM6.88163 12.358C6.88163 10.294 7.21763 8.686 7.88963 7.534C8.56163 6.37 9.73763 5.788 11.4176 5.788C13.0856 5.788 14.2556 6.37 14.9276 7.534C15.5996 8.686 15.9356 10.294 15.9356 12.358C15.9356 14.458 15.5996 16.09 14.9276 17.254C14.2556 18.418 13.0856 19 11.4176 19C9.73763 19 8.56163 18.418 7.88963 17.254C7.21763 16.09 6.88163 14.458 6.88163 12.358ZM14.3156 12.358C14.3156 11.314 14.2436 10.432 14.0996 9.712C13.9676 8.98 13.6856 8.392 13.2536 7.948C12.8336 7.504 12.2216 7.282 11.4176 7.282C10.6016 7.282 9.97763 7.504 9.54563 7.948C9.12563 8.392 8.84363 8.98 8.69963 9.712C8.56763 10.432 8.50163 11.314 8.50163 12.358C8.50163 13.438 8.56763 14.344 8.69963 15.076C8.84363 15.808 9.12563 16.396 9.54563 16.84C9.97763 17.284 10.6016 17.506 11.4176 17.506C12.2216 17.506 12.8336 17.284 13.2536 16.84C13.6856 16.396 13.9676 15.808 14.0996 15.076C14.2436 14.344 14.3156 13.438 14.3156 12.358ZM18.1844 12.358C18.1844 10.294 18.5204 8.686 19.1924 7.534C19.8644 6.37 21.0404 5.788 22.7204 5.788C24.3884 5.788 25.5584 6.37 26.2304 7.534C26.9024 8.686 27.2384 10.294 27.2384 12.358C27.2384 14.458 26.9024 16.09 26.2304 17.254C25.5584 18.418 24.3884 19 22.7204 19C21.0404 19 19.8644 18.418 19.1924 17.254C18.5204 16.09 18.1844 14.458 18.1844 12.358ZM25.6184 12.358C25.6184 11.314 25.5464 10.432 25.4024 9.712C25.2704 8.98 24.9884 8.392 24.5564 7.948C24.1364 7.504 23.5244 7.282 22.7204 7.282C21.9044 7.282 21.2804 7.504 20.8484 7.948C20.4284 8.392 20.1464 8.98 20.0024 9.712C19.8704 10.432 19.8044 11.314 19.8044 12.358C19.8044 13.438 19.8704 14.344 20.0024 15.076C20.1464 15.808 20.4284 16.396 20.8484 16.84C21.2804 17.284 21.9044 17.506 22.7204 17.506C23.5244 17.506 24.1364 17.284 24.5564 16.84C24.9884 16.396 25.2704 15.808 25.4024 15.076C25.5464 14.344 25.6184 13.438 25.6184 12.358Z" fill="#21201E"/>
<path d="M1172.68 668.48V666.986H1176.07V680H1174.41V668.48H1172.68ZM1178.88 673.358C1178.88 671.294 1179.22 669.686 1179.89 668.534C1180.56 667.37 1181.74 666.788 1183.42 666.788C1185.09 666.788 1186.26 667.37 1186.93 668.534C1187.6 669.686 1187.94 671.294 1187.94 673.358C1187.94 675.458 1187.6 677.09 1186.93 678.254C1186.26 679.418 1185.09 680 1183.42 680C1181.74 680 1180.56 679.418 1179.89 678.254C1179.22 677.09 1178.88 675.458 1178.88 673.358ZM1186.32 673.358C1186.32 672.314 1186.24 671.432 1186.1 670.712C1185.97 669.98 1185.69 669.392 1185.25 668.948C1184.83 668.504 1184.22 668.282 1183.42 668.282C1182.6 668.282 1181.98 668.504 1181.55 668.948C1181.13 669.392 1180.84 669.98 1180.7 670.712C1180.57 671.432 1180.5 672.314 1180.5 673.358C1180.5 674.438 1180.57 675.344 1180.7 676.076C1180.84 676.808 1181.13 677.396 1181.55 677.84C1181.98 678.284 1182.6 678.506 1183.42 678.506C1184.22 678.506 1184.83 678.284 1185.25 677.84C1185.69 677.396 1185.97 676.808 1186.1 676.076C1186.24 675.344 1186.32 674.438 1186.32 673.358ZM1190.18 673.358C1190.18 671.294 1190.52 669.686 1191.19 668.534C1191.86 667.37 1193.04 666.788 1194.72 666.788C1196.39 666.788 1197.56 667.37 1198.23 668.534C1198.9 669.686 1199.24 671.294 1199.24 673.358C1199.24 675.458 1198.9 677.09 1198.23 678.254C1197.56 679.418 1196.39 680 1194.72 680C1193.04 680 1191.86 679.418 1191.19 678.254C1190.52 677.09 1190.18 675.458 1190.18 673.358ZM1197.62 673.358C1197.62 672.314 1197.55 671.432 1197.4 670.712C1197.27 669.98 1196.99 669.392 1196.56 668.948C1196.14 668.504 1195.52 668.282 1194.72 668.282C1193.9 668.282 1193.28 668.504 1192.85 668.948C1192.43 669.392 1192.15 669.98 1192 670.712C1191.87 671.432 1191.8 672.314 1191.8 673.358C1191.8 674.438 1191.87 675.344 1192 676.076C1192.15 676.808 1192.43 677.396 1192.85 677.84C1193.28 678.284 1193.9 678.506 1194.72 678.506C1195.52 678.506 1196.14 678.284 1196.56 677.84C1196.99 677.396 1197.27 676.808 1197.4 676.076C1197.55 675.344 1197.62 674.438 1197.62 673.358Z" fill="#21201E"/>
<path d="M41 13L41 649" stroke="#21201E" stroke-linecap="round"/>
<path d="M1201 649L41 649" stroke="#21201E" stroke-linecap="round"/>
<line x1="56.5" y1="649" x2="56.5" y2="641" stroke="#21201E"/>
<line x1="692.5" y1="649" x2="692.5" y2="641" stroke="#21201E"/>
<line x1="41" y1="24.5" x2="57" y2="24.5" stroke="#21201E"/>
<line x1="68.5" y1="649" x2="68.5" y2="633" stroke="#21201E"/>
<line x1="704.5" y1="649" x2="704.5" y2="633" stroke="#21201E"/>
<line x1="41" y1="36.5" x2="49" y2="36.5" stroke="#21201E"/>
<line x1="80.5" y1="649" x2="80.5" y2="641" stroke="#21201E"/>
<line x1="716.5" y1="649" x2="716.5" y2="641" stroke="#21201E"/>
<line x1="41" y1="48.5" x2="57" y2="48.5" stroke="#21201E"/>
<line x1="92.5" y1="649" x2="92.5" y2="633" stroke="#21201E"/>
<line x1="728.5" y1="649" x2="728.5" y2="633" stroke="#21201E"/>
<line x1="41" y1="60.5" x2="49" y2="60.5" stroke="#21201E"/>
<line x1="104.5" y1="649" x2="104.5" y2="641" stroke="#21201E"/>
<line x1="740.5" y1="649" x2="740.5" y2="641" stroke="#21201E"/>
<line x1="41" y1="72.5" x2="57" y2="72.5" stroke="#21201E"/>
<line x1="116.5" y1="649" x2="116.5" y2="633" stroke="#21201E"/>
<line x1="752.5" y1="649" x2="752.5" y2="633" stroke="#21201E"/>
<line x1="41" y1="84.5" x2="57" y2="84.5" stroke="#21201E"/>
<line x1="128.5" y1="649" x2="128.5" y2="633" stroke="#21201E"/>
<line x1="764.5" y1="649" x2="764.5" y2="633" stroke="#21201E"/>
<line x1="41" y1="96.5" x2="49" y2="96.5" stroke="#21201E"/>
<line x1="140.5" y1="649" x2="140.5" y2="641" stroke="#21201E"/>
<line x1="776.5" y1="649" x2="776.5" y2="641" stroke="#21201E"/>
<line x1="41" y1="108.5" x2="49" y2="108.5" stroke="#21201E"/>
<line x1="152.5" y1="649" x2="152.5" y2="641" stroke="#21201E"/>
<line x1="788.5" y1="649" x2="788.5" y2="641" stroke="#21201E"/>
<line x1="41" y1="120.5" x2="49" y2="120.5" stroke="#21201E"/>
<line x1="164.5" y1="649" x2="164.5" y2="641" stroke="#21201E"/>
<line x1="800.5" y1="649" x2="800.5" y2="641" stroke="#21201E"/>
<line x1="41" y1="132.5" x2="49" y2="132.5" stroke="#21201E"/>
<line x1="176.5" y1="649" x2="176.5" y2="641" stroke="#21201E"/>
<line x1="812.5" y1="649" x2="812.5" y2="641" stroke="#21201E"/>
<line x1="41" y1="144.5" x2="57" y2="144.5" stroke="#21201E"/>
<line x1="188.5" y1="649" x2="188.5" y2="633" stroke="#21201E"/>
<line x1="824.5" y1="649" x2="824.5" y2="633" stroke="#21201E"/>
<line x1="41" y1="612.5" x2="57" y2="612.5" stroke="#21201E"/>
<line x1="656.5" y1="649" x2="656.5" y2="633" stroke="#21201E"/>
<line x1="41" y1="156.5" x2="49" y2="156.5" stroke="#21201E"/>
<line x1="200.5" y1="649" x2="200.5" y2="641" stroke="#21201E"/>
<line x1="836.5" y1="649" x2="836.5" y2="641" stroke="#21201E"/>
<line x1="41" y1="624.5" x2="49" y2="624.5" stroke="#21201E"/>
<line x1="668.5" y1="649" x2="668.5" y2="641" stroke="#21201E"/>
<line x1="41" y1="168.5" x2="49" y2="168.5" stroke="#21201E"/>
<line x1="212.5" y1="649" x2="212.5" y2="641" stroke="#21201E"/>
<line x1="848.5" y1="649" x2="848.5" y2="641" stroke="#21201E"/>
<line x1="41" y1="636.5" x2="49" y2="636.5" stroke="#21201E"/>
<line x1="680.5" y1="649" x2="680.5" y2="641" stroke="#21201E"/>
<line x1="41" y1="180.5" x2="57" y2="180.5" stroke="#21201E"/>
<line x1="224.5" y1="649" x2="224.5" y2="633" stroke="#21201E"/>
<line x1="860.5" y1="649" x2="860.5" y2="633" stroke="#21201E"/>
<line x1="41" y1="192.5" x2="57" y2="192.5" stroke="#21201E"/>
<line x1="236.5" y1="649" x2="236.5" y2="633" stroke="#21201E"/>
<line x1="872.5" y1="649" x2="872.5" y2="633" stroke="#21201E"/>
<line x1="41" y1="204.5" x2="49" y2="204.5" stroke="#21201E"/>
<line x1="248.5" y1="649" x2="248.5" y2="641" stroke="#21201E"/>
<line x1="884.5" y1="649" x2="884.5" y2="641" stroke="#21201E"/>
<line x1="41" y1="216.5" x2="49" y2="216.5" stroke="#21201E"/>
<line x1="260.5" y1="649" x2="260.5" y2="641" stroke="#21201E"/>
<line x1="896.5" y1="649" x2="896.5" y2="641" stroke="#21201E"/>
<line x1="41" y1="228.5" x2="49" y2="228.5" stroke="#21201E"/>
<line x1="272.5" y1="649" x2="272.5" y2="641" stroke="#21201E"/>
<line x1="908.5" y1="649" x2="908.5" y2="641" stroke="#21201E"/>
<line x1="41" y1="240.5" x2="49" y2="240.5" stroke="#21201E"/>
<line x1="284.5" y1="649" x2="284.5" y2="641" stroke="#21201E"/>
<line x1="920.5" y1="649" x2="920.5" y2="641" stroke="#21201E"/>
<line x1="41" y1="252.5" x2="49" y2="252.5" stroke="#21201E"/>
<line x1="296.5" y1="649" x2="296.5" y2="641" stroke="#21201E"/>
<line x1="932.5" y1="649" x2="932.5" y2="641" stroke="#21201E"/>
<line x1="41" y1="540.5" x2="49" y2="540.5" stroke="#21201E"/>
<line x1="584.5" y1="649" x2="584.5" y2="641" stroke="#21201E"/>
<line x1="41" y1="264.5" x2="57" y2="264.5" stroke="#21201E"/>
<line x1="308.5" y1="649" x2="308.5" y2="633" stroke="#21201E"/>
<line x1="944.5" y1="649" x2="944.5" y2="633" stroke="#21201E"/>
<line x1="41" y1="552.5" x2="57" y2="552.5" stroke="#21201E"/>
<line x1="596.5" y1="649" x2="596.5" y2="633" stroke="#21201E"/>
<line x1="41" y1="276.5" x2="57" y2="276.5" stroke="#21201E"/>
<line x1="320.5" y1="649" x2="320.5" y2="633" stroke="#21201E"/>
<line x1="956.5" y1="649" x2="956.5" y2="633" stroke="#21201E"/>
<line x1="41" y1="564.5" x2="57" y2="564.5" stroke="#21201E"/>
<line x1="608.5" y1="649" x2="608.5" y2="633" stroke="#21201E"/>
<line x1="41" y1="288.5" x2="49" y2="288.5" stroke="#21201E"/>
<line x1="332.5" y1="649" x2="332.5" y2="641" stroke="#21201E"/>
<line x1="968.5" y1="649" x2="968.5" y2="641" stroke="#21201E"/>
<line x1="41" y1="576.5" x2="49" y2="576.5" stroke="#21201E"/>
<line x1="620.5" y1="649" x2="620.5" y2="641" stroke="#21201E"/>
<line x1="41" y1="300.5" x2="49" y2="300.5" stroke="#21201E"/>
<line x1="344.5" y1="649" x2="344.5" y2="641" stroke="#21201E"/>
<line x1="980.5" y1="649" x2="980.5" y2="641" stroke="#21201E"/>
<line x1="41" y1="588.5" x2="49" y2="588.5" stroke="#21201E"/>
<line x1="632.5" y1="649" x2="632.5" y2="641" stroke="#21201E"/>
<line x1="41" y1="312.5" x2="57" y2="312.5" stroke="#21201E"/>
<line x1="356.5" y1="649" x2="356.5" y2="633" stroke="#21201E"/>
<line x1="992.5" y1="649" x2="992.5" y2="633" stroke="#21201E"/>
<line x1="41" y1="600.5" x2="57" y2="600.5" stroke="#21201E"/>
<line x1="644.5" y1="649" x2="644.5" y2="633" stroke="#21201E"/>
<line x1="41" y1="324.5" x2="57" y2="324.5" stroke="#21201E"/>
<line x1="368.5" y1="649" x2="368.5" y2="633" stroke="#21201E"/>
<line x1="1004.5" y1="649" x2="1004.5" y2="633" stroke="#21201E"/>
<line x1="41" y1="336.5" x2="57" y2="336.5" stroke="#21201E"/>
<line x1="380.5" y1="649" x2="380.5" y2="633" stroke="#21201E"/>
<line x1="1016.5" y1="649" x2="1016.5" y2="633" stroke="#21201E"/>
<line x1="41" y1="348.5" x2="49" y2="348.5" stroke="#21201E"/>
<line x1="392.5" y1="649" x2="392.5" y2="641" stroke="#21201E"/>
<line x1="1028.5" y1="649" x2="1028.5" y2="641" stroke="#21201E"/>
<line x1="41" y1="360.5" x2="49" y2="360.5" stroke="#21201E"/>
<line x1="404.5" y1="649" x2="404.5" y2="641" stroke="#21201E"/>
<line x1="1040.5" y1="649" x2="1040.5" y2="641" stroke="#21201E"/>
<line x1="41" y1="372.5" x2="49" y2="372.5" stroke="#21201E"/>
<line x1="416.5" y1="649" x2="416.5" y2="641" stroke="#21201E"/>
<line x1="1052.5" y1="649" x2="1052.5" y2="641" stroke="#21201E"/>
<line x1="41" y1="384.5" x2="49" y2="384.5" stroke="#21201E"/>
<line x1="428.5" y1="649" x2="428.5" y2="641" stroke="#21201E"/>
<line x1="1064.5" y1="649" x2="1064.5" y2="641" stroke="#21201E"/>
<line x1="41" y1="396.5" x2="57" y2="396.5" stroke="#21201E"/>
<line x1="440.5" y1="649" x2="440.5" y2="633" stroke="#21201E"/>
<line x1="1076.5" y1="649" x2="1076.5" y2="633" stroke="#21201E"/>
<line x1="41" y1="408.5" x2="57" y2="408.5" stroke="#21201E"/>
<line x1="452.5" y1="649" x2="452.5" y2="633" stroke="#21201E"/>
<line x1="1088.5" y1="649" x2="1088.5" y2="633" stroke="#21201E"/>
<line x1="41" y1="420.5" x2="57" y2="420.5" stroke="#21201E"/>
<line x1="464.5" y1="649" x2="464.5" y2="633" stroke="#21201E"/>
<line x1="1100.5" y1="649" x2="1100.5" y2="633" stroke="#21201E"/>
<line x1="41" y1="432.5" x2="49" y2="432.5" stroke="#21201E"/>
<line x1="476.5" y1="649" x2="476.5" y2="641" stroke="#21201E"/>
<line x1="1112.5" y1="649" x2="1112.5" y2="641" stroke="#21201E"/>
<line x1="41" y1="444.5" x2="49" y2="444.5" stroke="#21201E"/>
<line x1="488.5" y1="649" x2="488.5" y2="641" stroke="#21201E"/>
<line x1="1124.5" y1="649" x2="1124.5" y2="641" stroke="#21201E"/>
<line x1="41" y1="456.5" x2="49" y2="456.5" stroke="#21201E"/>
<line x1="500.5" y1="649" x2="500.5" y2="641" stroke="#21201E"/>
<line x1="1136.5" y1="649" x2="1136.5" y2="641" stroke="#21201E"/>
<line x1="41" y1="468.5" x2="49" y2="468.5" stroke="#21201E"/>
<line x1="512.5" y1="649" x2="512.5" y2="641" stroke="#21201E"/>
<line x1="1148.5" y1="649" x2="1148.5" y2="641" stroke="#21201E"/>
<line x1="41" y1="480.5" x2="57" y2="480.5" stroke="#21201E"/>
<line x1="524.5" y1="649" x2="524.5" y2="633" stroke="#21201E"/>
<line x1="1160.5" y1="649" x2="1160.5" y2="633" stroke="#21201E"/>
<line x1="41" y1="492.5" x2="49" y2="492.5" stroke="#21201E"/>
<line x1="536.5" y1="649" x2="536.5" y2="641" stroke="#21201E"/>
<line x1="1172.5" y1="649" x2="1172.5" y2="641" stroke="#21201E"/>
<line x1="41" y1="504.5" x2="49" y2="504.5" stroke="#21201E"/>
<line x1="548.5" y1="649" x2="548.5" y2="641" stroke="#21201E"/>
<line x1="1184.5" y1="649" x2="1184.5" y2="641" stroke="#21201E"/>
<line x1="41" y1="516.5" x2="49" y2="516.5" stroke="#21201E"/>
<line x1="560.5" y1="649" x2="560.5" y2="641" stroke="#21201E"/>
<line x1="1196.5" y1="649" x2="1196.5" y2="641" stroke="#21201E"/>
<line x1="41" y1="528.5" x2="49" y2="528.5" stroke="#21201E"/>
<line x1="572.5" y1="649" x2="572.5" y2="641" stroke="#21201E"/>
</svg>
