<svg width="491" height="240" viewBox="0 0 491 240" fill="none" xmlns="http://www.w3.org/2000/svg">
<path d="M59 234L112 202L165 130L219 142L272 178L325 113.5L378 122L431 28.5L485 6" stroke="#313131"/>
<circle opacity="0.2" cx="59" cy="234" r="6" fill="white"/>
<circle cx="59" cy="234" r="3" fill="white"/>
<circle opacity="0.2" cx="112" cy="202" r="6" fill="white"/>
<circle cx="112" cy="202" r="3" fill="white"/>
<circle opacity="0.2" cx="165" cy="130" r="6" fill="white"/>
<circle cx="165" cy="130" r="3" fill="white"/>
<circle opacity="0.2" cx="219" cy="142" r="6" fill="white"/>
<circle cx="219" cy="142" r="3" fill="white"/>
<circle opacity="0.2" cx="272" cy="178" r="6" fill="white"/>
<circle cx="272" cy="178" r="3" fill="white"/>
<circle opacity="0.2" cx="325" cy="114" r="6" fill="white"/>
<circle cx="325" cy="114" r="3" fill="white"/>
<circle opacity="0.2" cx="379" cy="122" r="6" fill="white"/>
<circle cx="379" cy="122" r="3" fill="white"/>
<circle opacity="0.2" cx="431" cy="29" r="6" fill="white"/>
<circle cx="431" cy="29" r="3" fill="white"/>
<circle opacity="0.2" cx="485" cy="6" r="6" fill="white"/>
<circle cx="485" cy="6" r="3" fill="white"/>
</svg>
