<svg width="320" height="48" viewBox="0 0 320 48" fill="none" xmlns="http://www.w3.org/2000/svg">
<path fill-rule="evenodd" clip-rule="evenodd" d="M0 24C0 10.7452 10.7452 0 24 0H236C244.32 0 251.652 4.23394 255.957 10.6648C258.283 14.1383 261.82 17 266 17C270.18 17 273.717 14.1383 276.043 10.6648C280.348 4.23393 287.68 0 296 0C309.255 0 320 10.7452 320 24C320 37.2548 309.255 48 296 48C288.175 48 281.225 44.2553 276.844 38.4603C274.182 34.9391 270.414 32 266 32C261.586 32 257.818 34.9392 255.156 38.4604C250.775 44.2554 243.825 48 236 48H24C10.7452 48 0 37.2548 0 24Z" fill="white"/>
<path d="M291.833 28.1666L300.166 19.8333M300.166 19.8333H291.833M300.166 19.8333V28.1666" stroke="#0B0C0D" stroke-linecap="round" stroke-linejoin="round"/>
<path d="M65.56 24.4C65.56 23.3013 65.8053 22.32 66.296 21.456C66.7973 20.5813 67.4747 19.904 68.328 19.424C69.192 18.9333 70.1573 18.688 71.224 18.688C72.472 18.688 73.5653 19.008 74.504 19.648C75.4427 20.288 76.0987 21.1733 76.472 22.304H73.896C73.64 21.7707 73.2773 21.3707 72.808 21.104C72.3493 20.8373 71.816 20.704 71.208 20.704C70.5573 20.704 69.976 20.8587 69.464 21.168C68.9627 21.4667 68.568 21.8933 68.28 22.448C68.0027 23.0027 67.864 23.6533 67.864 24.4C67.864 25.136 68.0027 25.7867 68.28 26.352C68.568 26.9067 68.9627 27.3387 69.464 27.648C69.976 27.9467 70.5573 28.096 71.208 28.096C71.816 28.096 72.3493 27.9627 72.808 27.696C73.2773 27.4187 73.64 27.0133 73.896 26.48H76.472C76.0987 27.6213 75.4427 28.512 74.504 29.152C73.576 29.7813 72.4827 30.096 71.224 30.096C70.1573 30.096 69.192 29.856 68.328 29.376C67.4747 28.8853 66.7973 28.208 66.296 27.344C65.8053 26.48 65.56 25.4987 65.56 24.4ZM80.7852 22.512C81.0733 22.0427 81.4466 21.6747 81.9053 21.408C82.3746 21.1413 82.9079 21.008 83.5052 21.008V23.36H82.9132C82.2093 23.36 81.6759 23.5253 81.3133 23.856C80.9612 24.1867 80.7852 24.7627 80.7852 25.584V30H78.5452V21.136H80.7852V22.512ZM93.414 25.376C93.414 25.696 93.3927 25.984 93.35 26.24H86.87C86.9233 26.88 87.1473 27.3813 87.542 27.744C87.9367 28.1067 88.422 28.288 88.998 28.288C89.83 28.288 90.422 27.9307 90.774 27.216H93.19C92.934 28.0693 92.4433 28.7733 91.718 29.328C90.9927 29.872 90.102 30.144 89.046 30.144C88.1927 30.144 87.4247 29.9573 86.742 29.584C86.07 29.2 85.542 28.6613 85.158 27.968C84.7847 27.2747 84.598 26.4747 84.598 25.568C84.598 24.6507 84.7847 23.8453 85.158 23.152C85.5313 22.4587 86.054 21.9253 86.726 21.552C87.398 21.1787 88.1713 20.992 89.046 20.992C89.8887 20.992 90.6407 21.1733 91.302 21.536C91.974 21.8987 92.4913 22.416 92.854 23.088C93.2273 23.7493 93.414 24.512 93.414 25.376ZM91.094 24.736C91.0833 24.16 90.8753 23.7013 90.47 23.36C90.0647 23.008 89.5687 22.832 88.982 22.832C88.4273 22.832 87.958 23.0027 87.574 23.344C87.2007 23.6747 86.9713 24.1387 86.886 24.736H91.094ZM94.633 25.536C94.633 24.64 94.809 23.8453 95.161 23.152C95.5237 22.4587 96.009 21.9253 96.617 21.552C97.2357 21.1787 97.9237 20.992 98.681 20.992C99.3423 20.992 99.9183 21.1253 100.409 21.392C100.91 21.6587 101.31 21.9947 101.609 22.4V21.136H103.865V30H101.609V28.704C101.321 29.12 100.921 29.4667 100.409 29.744C99.9077 30.0107 99.3263 30.144 98.665 30.144C97.9183 30.144 97.2357 29.952 96.617 29.568C96.009 29.184 95.5237 28.6453 95.161 27.952C94.809 27.248 94.633 26.4427 94.633 25.536ZM101.609 25.568C101.609 25.024 101.502 24.56 101.289 24.176C101.076 23.7813 100.788 23.4827 100.425 23.28C100.062 23.0667 99.673 22.96 99.257 22.96C98.841 22.96 98.457 23.0613 98.105 23.264C97.753 23.4667 97.465 23.7653 97.241 24.16C97.0277 24.544 96.921 25.0027 96.921 25.536C96.921 26.0693 97.0277 26.5387 97.241 26.944C97.465 27.3387 97.753 27.6427 98.105 27.856C98.4677 28.0693 98.8517 28.176 99.257 28.176C99.673 28.176 100.062 28.0747 100.425 27.872C100.788 27.6587 101.076 27.36 101.289 26.976C101.502 26.5813 101.609 26.112 101.609 25.568ZM108.821 22.976V27.264C108.821 27.5627 108.89 27.7813 109.029 27.92C109.178 28.048 109.423 28.112 109.765 28.112H110.805V30H109.397C107.509 30 106.565 29.0827 106.565 27.248V22.976H105.509V21.136H106.565V18.944H108.821V21.136H110.805V22.976H108.821ZM120.816 25.376C120.816 25.696 120.795 25.984 120.752 26.24H114.272C114.325 26.88 114.549 27.3813 114.944 27.744C115.339 28.1067 115.824 28.288 116.4 28.288C117.232 28.288 117.824 27.9307 118.176 27.216H120.592C120.336 28.0693 119.845 28.7733 119.12 29.328C118.395 29.872 117.504 30.144 116.448 30.144C115.595 30.144 114.827 29.9573 114.144 29.584C113.472 29.2 112.944 28.6613 112.56 27.968C112.187 27.2747 112 26.4747 112 25.568C112 24.6507 112.187 23.8453 112.56 23.152C112.933 22.4587 113.456 21.9253 114.128 21.552C114.8 21.1787 115.573 20.992 116.448 20.992C117.291 20.992 118.043 21.1733 118.704 21.536C119.376 21.8987 119.893 22.416 120.256 23.088C120.629 23.7493 120.816 24.512 120.816 25.376ZM118.496 24.736C118.485 24.16 118.277 23.7013 117.872 23.36C117.467 23.008 116.971 22.832 116.384 22.832C115.829 22.832 115.36 23.0027 114.976 23.344C114.603 23.6747 114.373 24.1387 114.288 24.736H118.496ZM126.007 25.536C126.007 24.64 126.183 23.8453 126.535 23.152C126.898 22.4587 127.383 21.9253 127.991 21.552C128.61 21.1787 129.298 20.992 130.055 20.992C130.717 20.992 131.293 21.1253 131.783 21.392C132.285 21.6587 132.685 21.9947 132.983 22.4V21.136H135.239V30H132.983V28.704C132.695 29.12 132.295 29.4667 131.783 29.744C131.282 30.0107 130.701 30.144 130.039 30.144C129.293 30.144 128.61 29.952 127.991 29.568C127.383 29.184 126.898 28.6453 126.535 27.952C126.183 27.248 126.007 26.4427 126.007 25.536ZM132.983 25.568C132.983 25.024 132.877 24.56 132.663 24.176C132.45 23.7813 132.162 23.4827 131.799 23.28C131.437 23.0667 131.047 22.96 130.631 22.96C130.215 22.96 129.831 23.0613 129.479 23.264C129.127 23.4667 128.839 23.7653 128.615 24.16C128.402 24.544 128.295 25.0027 128.295 25.536C128.295 26.0693 128.402 26.5387 128.615 26.944C128.839 27.3387 129.127 27.6427 129.479 27.856C129.842 28.0693 130.226 28.176 130.631 28.176C131.047 28.176 131.437 28.0747 131.799 27.872C132.162 27.6587 132.45 27.36 132.663 26.976C132.877 26.5813 132.983 26.112 132.983 25.568ZM137.011 25.568C137.011 24.6507 137.198 23.8507 137.571 23.168C137.944 22.4747 138.462 21.9413 139.123 21.568C139.784 21.184 140.542 20.992 141.395 20.992C142.494 20.992 143.4 21.2693 144.115 21.824C144.84 22.368 145.326 23.136 145.571 24.128H143.155C143.027 23.744 142.808 23.4453 142.499 23.232C142.2 23.008 141.827 22.896 141.379 22.896C140.739 22.896 140.232 23.1307 139.859 23.6C139.486 24.0587 139.299 24.7147 139.299 25.568C139.299 26.4107 139.486 27.0667 139.859 27.536C140.232 27.9947 140.739 28.224 141.379 28.224C142.286 28.224 142.878 27.8187 143.155 27.008H145.571C145.326 27.968 144.84 28.7307 144.115 29.296C143.39 29.8613 142.483 30.144 141.395 30.144C140.542 30.144 139.784 29.9573 139.123 29.584C138.462 29.2 137.944 28.6667 137.571 27.984C137.198 27.2907 137.011 26.4853 137.011 25.568ZM146.796 25.568C146.796 24.6507 146.983 23.8507 147.356 23.168C147.729 22.4747 148.247 21.9413 148.908 21.568C149.569 21.184 150.327 20.992 151.18 20.992C152.279 20.992 153.185 21.2693 153.9 21.824C154.625 22.368 155.111 23.136 155.356 24.128H152.94C152.812 23.744 152.593 23.4453 152.284 23.232C151.985 23.008 151.612 22.896 151.164 22.896C150.524 22.896 150.017 23.1307 149.644 23.6C149.271 24.0587 149.084 24.7147 149.084 25.568C149.084 26.4107 149.271 27.0667 149.644 27.536C150.017 27.9947 150.524 28.224 151.164 28.224C152.071 28.224 152.663 27.8187 152.94 27.008H155.356C155.111 27.968 154.625 28.7307 153.9 29.296C153.175 29.8613 152.268 30.144 151.18 30.144C150.327 30.144 149.569 29.9573 148.908 29.584C148.247 29.2 147.729 28.6667 147.356 27.984C146.983 27.2907 146.796 26.4853 146.796 25.568ZM161.093 30.144C160.24 30.144 159.472 29.9573 158.789 29.584C158.106 29.2 157.568 28.6613 157.173 27.968C156.789 27.2747 156.597 26.4747 156.597 25.568C156.597 24.6613 156.794 23.8613 157.189 23.168C157.594 22.4747 158.144 21.9413 158.837 21.568C159.53 21.184 160.304 20.992 161.157 20.992C162.01 20.992 162.784 21.184 163.477 21.568C164.17 21.9413 164.714 22.4747 165.109 23.168C165.514 23.8613 165.717 24.6613 165.717 25.568C165.717 26.4747 165.509 27.2747 165.093 27.968C164.688 28.6613 164.133 29.2 163.429 29.584C162.736 29.9573 161.957 30.144 161.093 30.144ZM161.093 28.192C161.498 28.192 161.877 28.096 162.229 27.904C162.592 27.7013 162.88 27.4027 163.093 27.008C163.306 26.6133 163.413 26.1333 163.413 25.568C163.413 24.7253 163.189 24.08 162.741 23.632C162.304 23.1733 161.765 22.944 161.125 22.944C160.485 22.944 159.946 23.1733 159.509 23.632C159.082 24.08 158.869 24.7253 158.869 25.568C158.869 26.4107 159.077 27.0613 159.493 27.52C159.92 27.968 160.453 28.192 161.093 28.192ZM175.888 21.136V30H173.632V28.88C173.344 29.264 172.966 29.568 172.496 29.792C172.038 30.0053 171.536 30.112 170.992 30.112C170.299 30.112 169.686 29.968 169.152 29.68C168.619 29.3813 168.198 28.9493 167.888 28.384C167.59 27.808 167.44 27.1253 167.44 26.336V21.136H169.68V26.016C169.68 26.72 169.856 27.264 170.208 27.648C170.56 28.0213 171.04 28.208 171.648 28.208C172.267 28.208 172.752 28.0213 173.104 27.648C173.456 27.264 173.632 26.72 173.632 26.016V21.136H175.888ZM183.17 21.008C184.226 21.008 185.08 21.344 185.73 22.016C186.381 22.6773 186.706 23.6053 186.706 24.8V30H184.466V25.104C184.466 24.4 184.29 23.8613 183.938 23.488C183.586 23.104 183.106 22.912 182.498 22.912C181.88 22.912 181.389 23.104 181.026 23.488C180.674 23.8613 180.498 24.4 180.498 25.104V30H178.258V21.136H180.498V22.24C180.797 21.856 181.176 21.5573 181.634 21.344C182.104 21.12 182.616 21.008 183.17 21.008ZM191.605 22.976V27.264C191.605 27.5627 191.674 27.7813 191.813 27.92C191.962 28.048 192.207 28.112 192.549 28.112H193.589V30H192.181C190.293 30 189.349 29.0827 189.349 27.248V22.976H188.293V21.136H189.349V18.944H191.605V21.136H193.589V22.976H191.605Z" fill="#131313"/>
</svg>
