<svg width="161" height="25" viewBox="0 0 161 25" fill="none" xmlns="http://www.w3.org/2000/svg">
<path d="M42.5171 5.65225H46.009V6.83195C46.882 6.29603 47.7347 5.92527 48.5639 5.71629C49.393 5.50732 50.2053 5.40283 51.0008 5.40283C52.1097 5.40283 53.1276 5.58147 54.0579 5.93538C54.9848 6.28929 55.7802 6.8252 56.4408 7.53976C56.9532 7.14541 57.4554 6.81509 57.9508 6.54208C58.4463 6.26906 58.9418 6.04998 59.4372 5.88145C59.9327 5.71292 60.4349 5.59158 60.9473 5.51743C61.4596 5.44328 61.9854 5.4062 62.528 5.4062C63.6673 5.4062 64.702 5.56125 65.6323 5.87134C66.5592 6.18143 67.3547 6.64319 68.0086 7.25663C68.6658 7.87007 69.1714 8.63519 69.532 9.55198C69.8893 10.4688 70.068 11.5271 70.068 12.7304V19.5726H66.5862V13.2967C66.5862 12.5349 66.4783 11.8507 66.2626 11.2507C66.0469 10.6474 65.7435 10.1418 65.3559 9.72725C64.9649 9.31267 64.5032 8.99921 63.9639 8.78349C63.4246 8.56778 62.8314 8.45992 62.1876 8.45992C61.8337 8.45992 61.4731 8.49363 61.1023 8.56104C60.7315 8.62845 60.3709 8.73293 60.0237 8.8745C59.6732 9.01606 59.3462 9.1947 59.0395 9.41042C58.7328 9.62613 58.4665 9.87892 58.2373 10.1722V19.576H54.7556V13.2967C54.7556 12.5349 54.6477 11.8507 54.432 11.2507C54.2163 10.6474 53.9129 10.1418 53.5253 9.72725C53.1343 9.31267 52.6692 8.99921 52.1198 8.78349C51.5738 8.56778 50.9738 8.45992 50.3199 8.45992C49.9188 8.45992 49.5143 8.50037 49.1099 8.58463C48.7054 8.66889 48.3144 8.78349 47.9403 8.9318C47.5662 9.0801 47.2156 9.26211 46.8887 9.47446C46.5617 9.6868 46.2685 9.92611 46.009 10.1958V19.576H42.5171V5.65225Z" fill="white"/>
<path d="M73.6211 12.6124C73.6211 11.6148 73.8233 10.6777 74.2278 9.80477C74.6323 8.9318 75.212 8.17005 75.9636 7.51617C76.7153 6.86228 77.6219 6.34659 78.6904 5.96908C79.7555 5.59158 80.9554 5.40283 82.2834 5.40283C83.6114 5.40283 84.8113 5.59158 85.8764 5.96908C86.9415 6.34659 87.8516 6.86228 88.6032 7.51617C89.3548 8.17005 89.9312 8.9318 90.339 9.80477C90.7435 10.6777 90.9457 11.6148 90.9457 12.6124C90.9457 13.6101 90.7435 14.5471 90.339 15.4201C89.9346 16.2931 89.3548 17.0548 88.6032 17.7087C87.8516 18.3626 86.9449 18.8783 85.8764 19.2558C84.8113 19.6333 83.6114 19.822 82.2834 19.822C80.9554 19.822 79.7555 19.6333 78.6904 19.2558C77.6253 18.8783 76.7153 18.3626 75.9636 17.7087C75.212 17.0548 74.6356 16.2931 74.2278 15.4201C73.8233 14.5471 73.6211 13.6135 73.6211 12.6124ZM77.2916 12.6124C77.2916 13.172 77.4029 13.7011 77.6287 14.2C77.8545 14.6988 78.1781 15.1404 78.6095 15.5212C79.0409 15.9021 79.56 16.2054 80.1802 16.4279C80.797 16.6537 81.4981 16.765 82.2868 16.765C83.0721 16.765 83.7766 16.6537 84.3934 16.4279C85.0102 16.2054 85.5326 15.9021 85.9641 15.5212C86.3921 15.1404 86.7191 14.6988 86.9449 14.2C87.1707 13.7011 87.2819 13.172 87.2819 12.6124C87.2819 12.0529 87.1707 11.5238 86.9449 11.0182C86.7224 10.516 86.3955 10.071 85.9641 9.69017C85.536 9.3093 85.0136 9.00595 84.3934 8.78012C83.7766 8.55767 83.0721 8.44307 82.2868 8.44307C81.5014 8.44307 80.797 8.5543 80.1802 8.78012C79.5634 9.00595 79.0409 9.30593 78.6095 9.69017C78.1781 10.0744 77.8545 10.5126 77.6287 11.0182C77.4029 11.5238 77.2916 12.0563 77.2916 12.6124Z" fill="white"/>
<path d="M94.4707 5.65253H97.9626V7.658C98.7344 7.08501 99.5467 6.58954 100.406 6.17159C101.262 5.75364 102.118 5.43681 102.968 5.21436L103.996 8.41301C102.651 8.54783 101.468 8.84781 100.45 9.31632C99.4321 9.78482 98.603 10.4421 97.966 11.2915V19.5729H94.4741V5.65253H94.4707Z" fill="white"/>
<path d="M105.513 12.6733C105.513 11.5644 105.722 10.5633 106.14 9.67011C106.558 8.77691 107.134 8.01517 107.869 7.3815C108.603 6.74784 109.476 6.25911 110.488 5.91869C111.499 5.57826 112.594 5.40636 113.774 5.40636C114.276 5.40636 114.775 5.4367 115.267 5.50074C115.759 5.56478 116.231 5.64904 116.683 5.76027C117.134 5.8715 117.559 6.00295 117.957 6.15462C118.354 6.3063 118.705 6.47483 119.012 6.65684V0L122.504 0.930271V19.5762H119.012V18.265C118.705 18.4774 118.344 18.6796 117.926 18.8683C117.508 19.0571 117.06 19.2222 116.582 19.3638C116.103 19.5054 115.604 19.6166 115.088 19.7009C114.573 19.7851 114.064 19.8256 113.562 19.8256C112.382 19.8256 111.297 19.6537 110.312 19.3065C109.325 18.9593 108.479 18.474 107.771 17.8437C107.063 17.2134 106.51 16.4618 106.113 15.5854C105.712 14.7023 105.513 13.735 105.513 12.6733ZM109.183 12.6733C109.183 13.2328 109.294 13.7586 109.52 14.2541C109.746 14.7495 110.066 15.1843 110.488 15.5585C110.909 15.9326 111.415 16.2258 112.011 16.4415C112.604 16.6573 113.272 16.7651 114.01 16.7651C114.482 16.7651 114.954 16.7213 115.425 16.6303C115.897 16.5393 116.352 16.4112 116.787 16.246C117.222 16.0809 117.633 15.8787 118.014 15.6427C118.395 15.4068 118.729 15.1439 119.012 14.8506V10.0308C118.658 9.74763 118.284 9.50832 117.889 9.30946C117.495 9.11397 117.094 8.95218 116.686 8.82747C116.278 8.70276 115.864 8.60838 115.446 8.55108C115.028 8.49041 114.623 8.46345 114.229 8.46345C113.427 8.46345 112.712 8.57131 112.089 8.78702C111.462 9.00274 110.936 9.29935 110.508 9.67685C110.08 10.0544 109.749 10.4993 109.524 11.0082C109.298 11.5205 109.183 12.0733 109.183 12.6733Z" fill="white"/>
<path d="M126.113 12.5653C126.113 11.6215 126.305 10.7182 126.693 9.85875C127.077 8.99926 127.633 8.23751 128.358 7.57688C129.083 6.91626 129.969 6.39045 131.017 5.9961C132.069 5.60174 133.262 5.40625 134.597 5.40625C135.925 5.40625 137.125 5.60511 138.19 6.00284C139.255 6.40056 140.162 6.94322 140.903 7.63755C141.645 8.32852 142.218 9.14419 142.615 10.0812C143.013 11.0182 143.212 12.0193 143.212 13.0911C143.212 13.2259 143.209 13.3675 143.205 13.5225C143.202 13.6776 143.192 13.8158 143.175 13.9405H130.006C130.155 14.3584 130.397 14.7393 130.731 15.0865C131.065 15.4336 131.483 15.7302 131.988 15.983C132.49 16.2358 133.073 16.4279 133.734 16.5661C134.395 16.7043 135.126 16.7717 135.928 16.7717C136.731 16.7717 137.529 16.6875 138.325 16.519C139.12 16.3504 139.879 16.1347 140.603 15.8752L141.783 18.5413C141.328 18.7536 140.866 18.939 140.398 19.1008C139.929 19.2626 139.444 19.394 138.935 19.5019C138.426 19.6097 137.897 19.6873 137.341 19.7446C136.784 19.7985 136.201 19.8288 135.588 19.8288C134.024 19.8288 132.649 19.6401 131.469 19.2626C130.289 18.8851 129.302 18.3694 128.506 17.7155C127.711 17.0616 127.114 16.2965 126.713 15.4134C126.316 14.527 126.113 13.5798 126.113 12.5653ZM139.508 11.2103C139.383 10.8261 139.188 10.4654 138.925 10.1318C138.662 9.79808 138.332 9.50484 137.941 9.25879C137.546 9.01274 137.091 8.81725 136.572 8.67568C136.053 8.53412 135.483 8.46334 134.86 8.46334C134.199 8.46334 133.596 8.53749 133.053 8.68579C132.511 8.8341 132.035 9.03633 131.624 9.28912C131.216 9.54191 130.876 9.83178 130.603 10.1621C130.33 10.4924 130.134 10.8429 130.006 11.2137H139.508V11.2103Z" fill="white"/>
<path d="M150.574 12.6128L144.817 5.63916H149.277L152.769 9.88942L156.085 5.64253H160.44L155.023 12.6027L160.78 19.5764H156.321L152.721 15.2216L149.381 19.5764H145.026L150.574 12.6128Z" fill="white"/>
<path d="M29.2913 3.77811L29.4126 21.4229L16.7124 12.6022L29.2913 3.77811ZM4.00877 3.77811L16.709 12.6022L4.12674 21.4263L4.00877 3.77811ZM5.85246 1.12549L0.779785 3.8017L0.901125 21.4465L5.98391 24.0688L16.7191 16.539L27.5689 24.0756L32.6416 21.3993L32.5203 3.75452L27.4375 1.13223L16.7023 8.66204L5.85246 1.12549Z" fill="white"/>
</svg>
